NotoSerifEthiopic-Regular.ufo
<glyph name="hyphen" format="2">
  <advance width="310"/>
  <unicode hex="002D"/>
  <outline>
    <contour>
      <point x="25" y="235" type="line"/>
      <point x="285" y="235" type="line"/>
      <point x="285" y="310" type="line"/>
      <point x="25" y="310" type="line"/>
    </contour>
  </outline>
</glyph>
<glyph name="dieresiscomb" format="2">
  <unicode hex="0308"/>
  <anchor x="0" y="536" name="_top"/>
  <anchor x="0" y="744" name="top"/>
  <outline>
    <contour>
      <point x="95" y="632" type="curve" smooth="yes"/>
      <point x="123" y="632"/>
      <point x="146" y="647"/>
      <point x="146" y="688" type="curve" smooth="yes"/>
      <point x="146" y="730"/>
      <point x="123" y="744"/>
      <point x="95" y="744" type="curve" smooth="yes"/>
      <point x="66" y="744"/>
      <point x="44" y="730"/>
      <point x="44" y="688" type="curve" smooth="yes"/>
      <point x="44" y="647"/>
      <point x="66" y="632"/>
    </contour>
    <contour>
      <point x="-95" y="632" type="curve" smooth="yes"/>
      <point x="-67" y="632"/>
      <point x="-44" y="647"/>
      <point x="-44" y="688" type="curve" smooth="yes"/>
      <point x="-44" y="730"/>
      <point x="-67" y="744"/>
      <point x="-95" y="744" type="curve" smooth="yes"/>
      <point x="-124" y="744"/>
      <point x="-146" y="730"/>
      <point x="-146" y="688" type="curve" smooth="yes"/>
      <point x="-146" y="647"/>
      <point x="-124" y="632"/>
    </contour>
  </outline>
</glyph>
<glyph name="dblverticallineabovecomb" format="2">
  <unicode hex="030E"/>
  <anchor x="0" y="536" name="_top"/>
  <anchor x="0" y="760" name="top"/>
  <outline>
    <contour>
      <point x="-100" y="596" type="line"/>
      <point x="-44" y="596" type="line"/>
      <point x="-44" y="760" type="line"/>
      <point x="-100" y="760" type="line"/>
    </contour>
    <contour>
      <point x="44" y="596" type="line"/>
      <point x="100" y="596" type="line"/>
      <point x="100" y="760" type="line"/>
      <point x="44" y="760" type="line"/>
    </contour>
  </outline>
</glyph>
<glyph name="ha-ethiopic" format="2">
  <advance width="646"/>
  <unicode hex="1200"/>
  <note>
uni1200
</note>
  <anchor x="303" y="718" name="top"/>
  <outline>
    <contour>
      <point x="292" y="-12" type="curve" smooth="yes"/>
      <point x="444" y="-12"/>
      <point x="556" y="86"/>
      <point x="556" y="285" type="curve" smooth="yes"/>
      <point x="556" y="620" type="line" smooth="yes"/>
      <point x="556" y="662"/>
      <point x="549" y="698"/>
      <point x="530" y="718" type="curve"/>
      <point x="397" y="709" type="line"/>
      <point x="397" y="667" type="line"/>
      <point x="438" y="667"/>
      <point x="456" y="653"/>
      <point x="456" y="594" type="curve" smooth="yes"/>
      <point x="456" y="310" type="line" smooth="yes"/>
      <point x="456" y="110"/>
      <point x="401" y="36"/>
      <point x="307" y="36" type="curve" smooth="yes"/>
      <point x="233" y="36"/>
      <point x="207" y="93"/>
      <point x="207" y="208" type="curve" smooth="yes"/>
      <point x="207" y="312"/>
      <point x="209" y="468"/>
      <point x="209" y="620" type="curve" smooth="yes"/>
      <point x="209" y="668"/>
      <point x="202" y="698"/>
      <point x="183" y="718" type="curve"/>
      <point x="50" y="709" type="line"/>
      <point x="50" y="667" type="line"/>
      <point x="91" y="667"/>
      <point x="109" y="653"/>
      <point x="109" y="594" type="curve" smooth="yes"/>
      <point x="109" y="458"/>
      <point x="106" y="286"/>
      <point x="106" y="215" type="curve" smooth="yes"/>
      <point x="106" y="65"/>
      <point x="154" y="-12"/>
    </contour>
  </outline>
</glyph>
<glyph name="hi-ethiopic" format="2">
  <advance width="585"/>
  <unicode hex="1202"/>
  <note>
uni1202
</note>
  <anchor x="301" y="718" name="top"/>
  <outline>
    <contour>
      <point x="203" y="0" type="curve"/>
      <point x="346" y="0" type="line"/>
      <point x="346" y="50" type="line"/>
      <point x="323" y="50"/>
      <point x="313" y="60"/>
      <point x="313" y="77" type="curve" smooth="yes"/>
      <point x="313" y="87"/>
      <point x="316" y="98"/>
      <point x="321" y="110" type="curve" smooth="yes"/>
      <point x="482" y="512" type="line" smooth="yes"/>
      <point x="509" y="580"/>
      <point x="518" y="630"/>
      <point x="518" y="664" type="curve" smooth="yes"/>
      <point x="518" y="691"/>
      <point x="513" y="708"/>
      <point x="507" y="718" type="curve"/>
      <point x="368" y="709" type="line"/>
      <point x="368" y="667" type="line"/>
      <point x="397" y="667"/>
      <point x="411" y="651"/>
      <point x="411" y="620" type="curve" smooth="yes"/>
      <point x="411" y="596"/>
      <point x="403" y="563"/>
      <point x="386" y="521" type="curve" smooth="yes"/>
      <point x="340" y="407" type="line"/>
      <point x="328" y="403"/>
      <point x="303" y="399"/>
      <point x="271" y="399" type="curve" smooth="yes"/>
      <point x="215" y="399"/>
      <point x="186" y="436"/>
      <point x="186" y="495" type="curve" smooth="yes"/>
      <point x="186" y="531"/>
      <point x="191" y="591"/>
      <point x="191" y="635" type="curve" smooth="yes"/>
      <point x="191" y="670"/>
      <point x="183" y="698"/>
      <point x="164" y="718" type="curve"/>
      <point x="32" y="709" type="line"/>
      <point x="32" y="667" type="line"/>
      <point x="73" y="667"/>
      <point x="91" y="653"/>
      <point x="91" y="607" type="curve" smooth="yes"/>
      <point x="91" y="574"/>
      <point x="86" y="522"/>
      <point x="86" y="493" type="curve" smooth="yes"/>
      <point x="86" y="420"/>
      <point x="116" y="348"/>
      <point x="231" y="348" type="curve" smooth="yes"/>
      <point x="264" y="348"/>
      <point x="299" y="351"/>
      <point x="320" y="356" type="curve"/>
      <point x="213" y="100" type="line" smooth="yes"/>
      <point x="201" y="72"/>
      <point x="196" y="47"/>
      <point x="196" y="29" type="curve" smooth="yes"/>
      <point x="196" y="16"/>
      <point x="198" y="6"/>
    </contour>
    <component base="rightdoubleflag" xOffset="289"/>
  </outline>
</glyph>
<glyph name="hee-ethiopic" format="2">
  <advance width="597"/>
  <unicode hex="1204"/>
  <note>
uni1204
</note>
  <anchor x="302" y="718" name="top"/>
  <outline>
    <contour>
      <point x="269" y="0" type="curve"/>
      <point x="425" y="0" type="line" smooth="yes"/>
      <point x="519" y="0"/>
      <point x="572" y="57"/>
      <point x="572" y="126" type="curve" smooth="yes"/>
      <point x="572" y="191"/>
      <point x="529" y="222"/>
      <point x="439" y="222" type="curve" smooth="yes"/>
      <point x="365" y="222" type="line"/>
      <point x="482" y="512" type="line" smooth="yes"/>
      <point x="509" y="580"/>
      <point x="518" y="630"/>
      <point x="518" y="664" type="curve" smooth="yes"/>
      <point x="518" y="691"/>
      <point x="513" y="708"/>
      <point x="507" y="718" type="curve"/>
      <point x="368" y="709" type="line"/>
      <point x="368" y="669" type="line"/>
      <point x="397" y="669"/>
      <point x="411" y="652"/>
      <point x="411" y="620" type="curve" smooth="yes"/>
      <point x="411" y="596"/>
      <point x="403" y="563"/>
      <point x="386" y="521" type="curve" smooth="yes"/>
      <point x="340" y="407" type="line"/>
      <point x="328" y="403"/>
      <point x="303" y="399"/>
      <point x="271" y="399" type="curve" smooth="yes"/>
      <point x="215" y="399"/>
      <point x="186" y="436"/>
      <point x="186" y="495" type="curve" smooth="yes"/>
      <point x="186" y="531"/>
      <point x="191" y="591"/>
      <point x="191" y="635" type="curve" smooth="yes"/>
      <point x="191" y="670"/>
      <point x="183" y="698"/>
      <point x="164" y="718" type="curve"/>
      <point x="32" y="709" type="line"/>
      <point x="32" y="669" type="line"/>
      <point x="73" y="669"/>
      <point x="91" y="655"/>
      <point x="91" y="607" type="curve" smooth="yes"/>
      <point x="91" y="574"/>
      <point x="86" y="522"/>
      <point x="86" y="493" type="curve" smooth="yes"/>
      <point x="86" y="420"/>
      <point x="116" y="348"/>
      <point x="231" y="348" type="curve" smooth="yes"/>
      <point x="264" y="348"/>
      <point x="299" y="352"/>
      <point x="320" y="356" type="curve"/>
      <point x="238" y="159" type="line" smooth="yes"/>
      <point x="225" y="127"/>
      <point x="220" y="100"/>
      <point x="220" y="78" type="curve" smooth="yes"/>
      <point x="220" y="37"/>
      <point x="239" y="12"/>
    </contour>
    <contour>
      <point x="366" y="42" type="line" smooth="yes"/>
      <point x="336" y="42"/>
      <point x="319" y="57"/>
      <point x="319" y="86" type="curve" smooth="yes"/>
      <point x="319" y="98"/>
      <point x="322" y="113"/>
      <point x="329" y="131" type="curve" smooth="yes"/>
      <point x="350" y="184" type="line"/>
      <point x="408" y="184" type="line" smooth="yes"/>
      <point x="454" y="184"/>
      <point x="478" y="166"/>
      <point x="478" y="122" type="curve" smooth="yes"/>
      <point x="478" y="66"/>
      <point x="439" y="42"/>
      <point x="385" y="42" type="curve" smooth="yes"/>
    </contour>
  </outline>
</glyph>
<glyph name="he-ethiopic" format="2">
  <advance width="709"/>
  <unicode hex="1205"/>
  <note>
uni1205
</note>
  <anchor x="362" y="718" name="top"/>
  <outline>
    <contour>
      <point x="355" y="-12" type="curve" smooth="yes"/>
      <point x="507" y="-12"/>
      <point x="619" y="86"/>
      <point x="619" y="285" type="curve" smooth="yes"/>
      <point x="619" y="620" type="line" smooth="yes"/>
      <point x="619" y="662"/>
      <point x="612" y="698"/>
      <point x="593" y="718" type="curve"/>
      <point x="460" y="709" type="line"/>
      <point x="460" y="667" type="line"/>
      <point x="501" y="667"/>
      <point x="519" y="653"/>
      <point x="519" y="594" type="curve" smooth="yes"/>
      <point x="519" y="310" type="line" smooth="yes"/>
      <point x="519" y="110"/>
      <point x="464" y="36"/>
      <point x="370" y="36" type="curve" smooth="yes"/>
      <point x="296" y="36"/>
      <point x="270" y="93"/>
      <point x="270" y="208" type="curve" smooth="yes"/>
      <point x="270" y="277"/>
      <point x="272" y="397"/>
      <point x="272" y="460" type="curve" smooth="yes"/>
      <point x="272" y="502"/>
      <point x="250" y="531"/>
      <point x="208" y="531" type="curve" smooth="yes"/>
      <point x="182" y="531" type="line"/>
      <point x="182" y="635" type="line" smooth="yes"/>
      <point x="182" y="676"/>
      <point x="175" y="702"/>
      <point x="153" y="718" type="curve"/>
      <point x="38" y="709" type="line"/>
      <point x="38" y="669" type="line"/>
      <point x="69" y="669"/>
      <point x="84" y="652"/>
      <point x="84" y="607" type="curve" smooth="yes"/>
      <point x="84" y="478" type="line"/>
      <point x="131" y="478" type="line" smooth="yes"/>
      <point x="154" y="478"/>
      <point x="172" y="466"/>
      <point x="172" y="421" type="curve" smooth="yes"/>
      <point x="172" y="364"/>
      <point x="169" y="270"/>
      <point x="169" y="215" type="curve" smooth="yes"/>
      <point x="169" y="65"/>
      <point x="217" y="-12"/>
    </contour>
  </outline>
</glyph>
<glyph name="ho-ethiopic" format="2">
  <advance width="815"/>
  <unicode hex="1206"/>
  <note>
uni1206
</note>
  <anchor x="425" y="718" name="top"/>
  <outline>
    <contour>
      <point x="292" y="-12" type="curve" smooth="yes"/>
      <point x="444" y="-12"/>
      <point x="556" y="86"/>
      <point x="556" y="285" type="curve" smooth="yes"/>
      <point x="556" y="495" type="line"/>
      <point x="569" y="490"/>
      <point x="583" y="487"/>
      <point x="596" y="487" type="curve" smooth="yes"/>
      <point x="653" y="487" type="line" smooth="yes"/>
      <point x="747" y="487"/>
      <point x="800" y="544"/>
      <point x="800" y="613" type="curve" smooth="yes"/>
      <point x="800" y="678"/>
      <point x="757" y="709"/>
      <point x="667" y="709" type="curve" smooth="yes"/>
      <point x="456" y="709" type="line"/>
      <point x="456" y="310" type="line" smooth="yes"/>
      <point x="456" y="110"/>
      <point x="401" y="36"/>
      <point x="307" y="36" type="curve" smooth="yes"/>
      <point x="233" y="36"/>
      <point x="207" y="93"/>
      <point x="207" y="208" type="curve" smooth="yes"/>
      <point x="207" y="312"/>
      <point x="209" y="468"/>
      <point x="209" y="620" type="curve" smooth="yes"/>
      <point x="209" y="668"/>
      <point x="202" y="698"/>
      <point x="183" y="718" type="curve"/>
      <point x="50" y="709" type="line"/>
      <point x="50" y="667" type="line"/>
      <point x="91" y="667"/>
      <point x="109" y="653"/>
      <point x="109" y="594" type="curve" smooth="yes"/>
      <point x="109" y="458"/>
      <point x="106" y="286"/>
      <point x="106" y="215" type="curve" smooth="yes"/>
      <point x="106" y="65"/>
      <point x="154" y="-12"/>
    </contour>
    <contour>
      <point x="624" y="522" type="curve" smooth="yes"/>
      <point x="580" y="522"/>
      <point x="556" y="544"/>
      <point x="556" y="607" type="curve" smooth="yes"/>
      <point x="556" y="671" type="line"/>
      <point x="636" y="671" type="line" smooth="yes"/>
      <point x="682" y="671"/>
      <point x="706" y="653"/>
      <point x="706" y="609" type="curve" smooth="yes"/>
      <point x="706" y="553"/>
      <point x="678" y="522"/>
    </contour>
  </outline>
</glyph>
<glyph name="la-ethiopic" format="2">
  <advance width="694"/>
  <unicode hex="1208"/>
  <note>
uni1208
</note>
  <anchor x="372" y="714" name="top"/>
  <outline>
    <contour>
      <point x="130" y="-4" type="curve"/>
      <point x="252" y="5" type="line"/>
      <point x="252" y="47" type="line"/>
      <point x="211" y="50"/>
      <point x="181" y="90"/>
      <point x="181" y="163" type="curve" smooth="yes"/>
      <point x="181" y="297"/>
      <point x="232" y="405"/>
      <point x="334" y="496" type="curve"/>
      <point x="472" y="119" type="line" smooth="yes"/>
      <point x="498" y="47"/>
      <point x="520" y="16"/>
      <point x="546" y="-4" type="curve"/>
      <point x="670" y="5" type="line"/>
      <point x="670" y="47" type="line"/>
      <point x="620" y="47"/>
      <point x="594" y="75"/>
      <point x="569" y="140" type="curve" smooth="yes"/>
      <point x="351" y="714" type="line"/>
      <point x="246" y="714" type="line"/>
      <point x="306" y="561" type="line"/>
      <point x="159" y="456"/>
      <point x="75" y="308"/>
      <point x="75" y="150" type="curve" smooth="yes"/>
      <point x="75" y="68"/>
      <point x="102" y="23"/>
    </contour>
  </outline>
</glyph>
<glyph name="li-ethiopic" format="2">
  <advance width="898"/>
  <unicode hex="120A"/>
  <note>
uni120A
</note>
  <anchor x="479" y="714" name="top"/>
  <outline>
    <contour>
      <point x="130" y="-4" type="curve"/>
      <point x="252" y="5" type="line"/>
      <point x="252" y="47" type="line"/>
      <point x="211" y="50"/>
      <point x="181" y="90"/>
      <point x="181" y="163" type="curve" smooth="yes"/>
      <point x="181" y="297"/>
      <point x="232" y="405"/>
      <point x="334" y="496" type="curve"/>
      <point x="472" y="119" type="line" smooth="yes"/>
      <point x="498" y="47"/>
      <point x="516" y="20"/>
      <point x="542" y="0" type="curve"/>
      <point x="728" y="0" type="line"/>
      <point x="728" y="50" type="line"/>
      <point x="666" y="50" type="line" smooth="yes"/>
      <point x="616" y="50"/>
      <point x="594" y="75"/>
      <point x="569" y="140" type="curve" smooth="yes"/>
      <point x="351" y="714" type="line"/>
      <point x="246" y="714" type="line"/>
      <point x="306" y="561" type="line"/>
      <point x="159" y="456"/>
      <point x="75" y="308"/>
      <point x="75" y="150" type="curve" smooth="yes"/>
      <point x="75" y="68"/>
      <point x="102" y="23"/>
    </contour>
    <component base="rightdoubleflag" xOffset="602"/>
  </outline>
</glyph>
<glyph name="laa-ethiopic" format="2">
  <advance width="665"/>
  <unicode hex="120B"/>
  <note>
uni120B
</note>
  <anchor x="345" y="714" name="top"/>
  <outline>
    <contour>
      <point x="521" y="-4" type="curve"/>
      <point x="641" y="5" type="line"/>
      <point x="641" y="47" type="line"/>
      <point x="591" y="47"/>
      <point x="569" y="75"/>
      <point x="544" y="140" type="curve" smooth="yes"/>
      <point x="326" y="714" type="line"/>
      <point x="221" y="714" type="line"/>
      <point x="281" y="561" type="line"/>
      <point x="137" y="494"/>
      <point x="50" y="411"/>
      <point x="50" y="299" type="curve" smooth="yes"/>
      <point x="50" y="236"/>
      <point x="77" y="192"/>
      <point x="105" y="165" type="curve"/>
      <point x="227" y="174" type="line"/>
      <point x="227" y="216" type="line"/>
      <point x="186" y="219"/>
      <point x="156" y="249"/>
      <point x="156" y="311" type="curve" smooth="yes"/>
      <point x="156" y="395"/>
      <point x="216" y="453"/>
      <point x="309" y="496" type="curve"/>
      <point x="447" y="119" type="line" smooth="yes"/>
      <point x="473" y="47"/>
      <point x="495" y="16"/>
    </contour>
  </outline>
</glyph>
<glyph name="lee-ethiopic" format="2">
  <advance width="820"/>
  <unicode hex="120C"/>
  <note>
uni120C
</note>
  <anchor x="435" y="714" name="top"/>
  <outline>
    <contour>
      <point x="130" y="-4" type="curve"/>
      <point x="252" y="5" type="line"/>
      <point x="252" y="47" type="line"/>
      <point x="211" y="50"/>
      <point x="181" y="90"/>
      <point x="181" y="163" type="curve" smooth="yes"/>
      <point x="181" y="297"/>
      <point x="232" y="405"/>
      <point x="334" y="496" type="curve"/>
      <point x="472" y="119" type="line" smooth="yes"/>
      <point x="498" y="47"/>
      <point x="526" y="0"/>
      <point x="576" y="0" type="curve"/>
      <point x="666" y="0" type="line" smooth="yes"/>
      <point x="747" y="0"/>
      <point x="795" y="57"/>
      <point x="795" y="126" type="curve" smooth="yes"/>
      <point x="795" y="191"/>
      <point x="752" y="222"/>
      <point x="675" y="222" type="curve" smooth="yes"/>
      <point x="538" y="222" type="line"/>
      <point x="351" y="714" type="line"/>
      <point x="246" y="714" type="line"/>
      <point x="306" y="561" type="line"/>
      <point x="159" y="456"/>
      <point x="75" y="308"/>
      <point x="75" y="150" type="curve" smooth="yes"/>
      <point x="75" y="68"/>
      <point x="102" y="23"/>
    </contour>
    <contour>
      <point x="646" y="42" type="curve" smooth="yes"/>
      <point x="613" y="42"/>
      <point x="600" y="62"/>
      <point x="573" y="131" type="curve" smooth="yes"/>
      <point x="552" y="184" type="line"/>
      <point x="637" y="184" type="line" smooth="yes"/>
      <point x="675" y="184"/>
      <point x="699" y="165"/>
      <point x="699" y="117" type="curve" smooth="yes"/>
      <point x="699" y="74"/>
      <point x="683" y="42"/>
    </contour>
  </outline>
</glyph>
<glyph name="le-ethiopic" format="2">
  <advance width="704"/>
  <unicode hex="120D"/>
  <note>
uni120D
</note>
  <anchor x="377" y="714" name="top"/>
  <outline>
    <contour>
      <point x="560" y="-4" type="curve"/>
      <point x="680" y="5" type="line"/>
      <point x="680" y="47" type="line"/>
      <point x="630" y="47"/>
      <point x="608" y="75"/>
      <point x="583" y="140" type="curve" smooth="yes"/>
      <point x="365" y="714" type="line"/>
      <point x="260" y="714" type="line"/>
      <point x="320" y="561" type="line"/>
      <point x="162" y="469"/>
      <point x="75" y="318"/>
      <point x="75" y="150" type="curve" smooth="yes"/>
      <point x="75" y="47"/>
      <point x="115" y="13"/>
      <point x="160" y="0" type="curve"/>
      <point x="259" y="0" type="line" smooth="yes"/>
      <point x="340" y="0"/>
      <point x="388" y="57"/>
      <point x="388" y="126" type="curve" smooth="yes"/>
      <point x="388" y="191"/>
      <point x="345" y="222"/>
      <point x="268" y="222" type="curve" smooth="yes"/>
      <point x="185" y="222" type="line"/>
      <point x="200" y="335"/>
      <point x="250" y="425"/>
      <point x="348" y="496" type="curve"/>
      <point x="486" y="119" type="line" smooth="yes"/>
      <point x="512" y="47"/>
      <point x="534" y="16"/>
    </contour>
    <contour>
      <point x="235" y="35" type="curve" smooth="yes"/>
      <point x="214" y="35"/>
      <point x="180" y="53"/>
      <point x="180" y="144" type="curve" smooth="yes"/>
      <point x="180" y="158"/>
      <point x="180" y="171"/>
      <point x="181" y="184" type="curve"/>
      <point x="235" y="184" type="line" smooth="yes"/>
      <point x="268" y="184"/>
      <point x="292" y="166"/>
      <point x="292" y="122" type="curve" smooth="yes"/>
      <point x="292" y="66"/>
      <point x="276" y="35"/>
    </contour>
  </outline>
</glyph>
<glyph name="lwa-ethiopic" format="2">
  <advance width="808"/>
  <unicode hex="120F"/>
  <note>
uni120F
</note>
  <anchor x="421" y="714" name="top"/>
  <outline>
    <contour>
      <point x="474" y="48" type="line"/>
      <point x="581" y="48" type="line"/>
      <point x="326" y="714" type="line"/>
      <point x="221" y="714" type="line"/>
      <point x="281" y="561" type="line"/>
      <point x="137" y="494"/>
      <point x="50" y="411"/>
      <point x="50" y="299" type="curve" smooth="yes"/>
      <point x="50" y="236"/>
      <point x="77" y="192"/>
      <point x="105" y="165" type="curve"/>
      <point x="227" y="174" type="line"/>
      <point x="227" y="216" type="line"/>
      <point x="186" y="219"/>
      <point x="156" y="249"/>
      <point x="156" y="311" type="curve" smooth="yes"/>
      <point x="156" y="395"/>
      <point x="216" y="453"/>
      <point x="309" y="496" type="curve"/>
    </contour>
    <component base="footright" xOffset="147"/>
  </outline>
</glyph>
<glyph name="hha-ethiopic" format="2">
  <advance width="827"/>
  <unicode hex="1210"/>
  <note>
uni1210
</note>
  <anchor x="428" y="718" name="top"/>
  <outline>
    <contour>
      <point x="99" y="-5" type="curve"/>
      <point x="223" y="4" type="line"/>
      <point x="223" y="44" type="line"/>
      <point x="183" y="45"/>
      <point x="164" y="65"/>
      <point x="164" y="129" type="curve" smooth="yes"/>
      <point x="164" y="307"/>
      <point x="232" y="395"/>
      <point x="418" y="395" type="curve" smooth="yes"/>
      <point x="587" y="395"/>
      <point x="639" y="332"/>
      <point x="639" y="232" type="curve" smooth="yes"/>
      <point x="639" y="195"/>
      <point x="637" y="125"/>
      <point x="637" y="81" type="curve" smooth="yes"/>
      <point x="637" y="42"/>
      <point x="643" y="16"/>
      <point x="659" y="-5" type="curve"/>
      <point x="787" y="4" type="line"/>
      <point x="787" y="44" type="line"/>
      <point x="748" y="46"/>
      <point x="731" y="62"/>
      <point x="731" y="129" type="curve" smooth="yes"/>
      <point x="731" y="156"/>
      <point x="734" y="208"/>
      <point x="734" y="235" type="curve" smooth="yes"/>
      <point x="734" y="350"/>
      <point x="669" y="443"/>
      <point x="426" y="443" type="curve" smooth="yes"/>
      <point x="178" y="443"/>
      <point x="70" y="315"/>
      <point x="70" y="121" type="curve" smooth="yes"/>
      <point x="70" y="52"/>
      <point x="85" y="15"/>
    </contour>
    <component base="stem1" xOffset="239"/>
  </outline>
</glyph>
<glyph name="hhi-ethiopic" format="2">
  <advance width="1010"/>
  <unicode hex="1212"/>
  <note>
uni1212
</note>
  <anchor x="532" y="718" name="top"/>
  <outline>
    <contour>
      <point x="99" y="-5" type="curve"/>
      <point x="223" y="4" type="line"/>
      <point x="223" y="44" type="line"/>
      <point x="183" y="45"/>
      <point x="164" y="65"/>
      <point x="164" y="129" type="curve" smooth="yes"/>
      <point x="164" y="307"/>
      <point x="232" y="395"/>
      <point x="418" y="395" type="curve" smooth="yes"/>
      <point x="587" y="395"/>
      <point x="639" y="332"/>
      <point x="639" y="232" type="curve" smooth="yes"/>
      <point x="639" y="195"/>
      <point x="637" y="125"/>
      <point x="637" y="81" type="curve" smooth="yes"/>
      <point x="637" y="42"/>
      <point x="644" y="19"/>
      <point x="656" y="0" type="curve"/>
      <point x="787" y="0" type="line"/>
      <point x="787" y="50" type="line"/>
      <point x="748" y="50"/>
      <point x="731" y="62"/>
      <point x="731" y="129" type="curve" smooth="yes"/>
      <point x="731" y="156"/>
      <point x="734" y="208"/>
      <point x="734" y="235" type="curve" smooth="yes"/>
      <point x="734" y="350"/>
      <point x="669" y="443"/>
      <point x="426" y="443" type="curve" smooth="yes"/>
      <point x="178" y="443"/>
      <point x="70" y="315"/>
      <point x="70" y="121" type="curve" smooth="yes"/>
      <point x="70" y="52"/>
      <point x="85" y="15"/>
    </contour>
    <component base="stem1" xOffset="242"/>
    <component base="rightdoubleflag" xOffset="714"/>
  </outline>
</glyph>
<glyph name="hhaa-ethiopic" format="2">
  <advance width="782"/>
  <unicode hex="1213"/>
  <note>
uni1213
</note>
  <anchor x="393" y="718" name="top"/>
  <outline>
    <contour>
      <point x="614" y="-5" type="curve"/>
      <point x="742" y="4" type="line"/>
      <point x="742" y="47" type="line"/>
      <point x="703" y="49"/>
      <point x="686" y="65"/>
      <point x="686" y="129" type="curve" smooth="yes"/>
      <point x="686" y="156"/>
      <point x="689" y="208"/>
      <point x="689" y="235" type="curve" smooth="yes"/>
      <point x="689" y="345"/>
      <point x="629" y="435"/>
      <point x="420" y="442" type="curve"/>
      <point x="420" y="647" type="line" smooth="yes"/>
      <point x="420" y="678"/>
      <point x="409" y="707"/>
      <point x="391" y="718" type="curve"/>
      <point x="276" y="709" type="line"/>
      <point x="276" y="670" type="line"/>
      <point x="305" y="670"/>
      <point x="322" y="650"/>
      <point x="322" y="611" type="curve" smooth="yes"/>
      <point x="322" y="440" type="line"/>
      <point x="132" y="421"/>
      <point x="45" y="326"/>
      <point x="45" y="219" type="curve" smooth="yes"/>
      <point x="45" y="183"/>
      <point x="52" y="165"/>
      <point x="62" y="144" type="curve"/>
      <point x="198" y="153" type="line"/>
      <point x="198" y="195" type="line"/>
      <point x="158" y="196"/>
      <point x="139" y="216"/>
      <point x="139" y="247" type="curve" smooth="yes"/>
      <point x="139" y="320"/>
      <point x="191" y="378"/>
      <point x="322" y="392" type="curve"/>
      <point x="322" y="221" type="line" smooth="yes"/>
      <point x="322" y="183"/>
      <point x="333" y="160"/>
      <point x="351" y="143" type="curve"/>
      <point x="469" y="152" type="line"/>
      <point x="469" y="191" type="line"/>
      <point x="438" y="191"/>
      <point x="420" y="204"/>
      <point x="420" y="258" type="curve" smooth="yes"/>
      <point x="420" y="394" type="line"/>
      <point x="550" y="384"/>
      <point x="594" y="324"/>
      <point x="594" y="232" type="curve" smooth="yes"/>
      <point x="594" y="195"/>
      <point x="592" y="125"/>
      <point x="592" y="81" type="curve" smooth="yes"/>
      <point x="592" y="42"/>
      <point x="598" y="16"/>
    </contour>
  </outline>
</glyph>
<glyph name="hhee-ethiopic" format="2">
  <advance width="1002"/>
  <unicode hex="1214"/>
  <note>
uni1214
</note>
  <anchor x="523" y="718" name="top"/>
  <outline>
    <contour>
      <point x="99" y="-5" type="curve"/>
      <point x="223" y="4" type="line"/>
      <point x="223" y="44" type="line"/>
      <point x="183" y="45"/>
      <point x="164" y="65"/>
      <point x="164" y="129" type="curve" smooth="yes"/>
      <point x="164" y="307"/>
      <point x="232" y="395"/>
      <point x="418" y="395" type="curve" smooth="yes"/>
      <point x="587" y="395"/>
      <point x="639" y="332"/>
      <point x="639" y="232" type="curve" smooth="yes"/>
      <point x="639" y="113" type="line" smooth="yes"/>
      <point x="639" y="45"/>
      <point x="670" y="13"/>
      <point x="733" y="0" type="curve"/>
      <point x="830" y="0" type="line" smooth="yes"/>
      <point x="924" y="0"/>
      <point x="977" y="57"/>
      <point x="977" y="126" type="curve" smooth="yes"/>
      <point x="977" y="191"/>
      <point x="934" y="222"/>
      <point x="844" y="222" type="curve" smooth="yes"/>
      <point x="734" y="222" type="line"/>
      <point x="734" y="374"/>
      <point x="646" y="443"/>
      <point x="426" y="443" type="curve" smooth="yes"/>
      <point x="178" y="443"/>
      <point x="70" y="315"/>
      <point x="70" y="121" type="curve" smooth="yes"/>
      <point x="70" y="52"/>
      <point x="85" y="15"/>
    </contour>
    <contour>
      <point x="801" y="35" type="curve" smooth="yes"/>
      <point x="758" y="35"/>
      <point x="734" y="57"/>
      <point x="734" y="120" type="curve" smooth="yes"/>
      <point x="734" y="184" type="line"/>
      <point x="813" y="184" type="line" smooth="yes"/>
      <point x="859" y="184"/>
      <point x="883" y="166"/>
      <point x="883" y="122" type="curve" smooth="yes"/>
      <point x="883" y="66"/>
      <point x="855" y="35"/>
    </contour>
    <component base="stem1" xOffset="238"/>
  </outline>
</glyph>
<glyph name="hhe-ethiopic" format="2">
  <advance width="827"/>
  <unicode hex="1215"/>
  <note>
uni1215
</note>
  <anchor x="428" y="819" name="top"/>
  <outline>
    <contour>
      <point x="99" y="-5" type="curve"/>
      <point x="223" y="4" type="line"/>
      <point x="223" y="44" type="line"/>
      <point x="183" y="45"/>
      <point x="164" y="65"/>
      <point x="164" y="129" type="curve" smooth="yes"/>
      <point x="164" y="288"/>
      <point x="218" y="375"/>
      <point x="363" y="392" type="curve"/>
      <point x="363" y="73" type="line" smooth="yes"/>
      <point x="363" y="35"/>
      <point x="374" y="12"/>
      <point x="392" y="-5" type="curve"/>
      <point x="510" y="4" type="line"/>
      <point x="510" y="44" type="line"/>
      <point x="479" y="44"/>
      <point x="461" y="57"/>
      <point x="461" y="111" type="curve" smooth="yes"/>
      <point x="461" y="393" type="line"/>
      <point x="596" y="383"/>
      <point x="639" y="323"/>
      <point x="639" y="232" type="curve" smooth="yes"/>
      <point x="639" y="195"/>
      <point x="637" y="125"/>
      <point x="637" y="81" type="curve" smooth="yes"/>
      <point x="637" y="42"/>
      <point x="643" y="16"/>
      <point x="659" y="-5" type="curve"/>
      <point x="787" y="4" type="line"/>
      <point x="787" y="44" type="line"/>
      <point x="748" y="46"/>
      <point x="731" y="62"/>
      <point x="731" y="129" type="curve" smooth="yes"/>
      <point x="731" y="156"/>
      <point x="734" y="208"/>
      <point x="734" y="235" type="curve" smooth="yes"/>
      <point x="734" y="344"/>
      <point x="675" y="434"/>
      <point x="461" y="442" type="curve"/>
      <point x="461" y="643" type="line" smooth="yes"/>
      <point x="461" y="676"/>
      <point x="450" y="703"/>
      <point x="432" y="714" type="curve"/>
      <point x="262" y="714" type="line"/>
      <point x="263" y="721"/>
      <point x="264" y="728"/>
      <point x="264" y="737" type="curve" smooth="yes"/>
      <point x="264" y="783"/>
      <point x="235" y="819"/>
      <point x="177" y="819" type="curve" smooth="yes"/>
      <point x="155" y="819"/>
      <point x="133" y="813"/>
      <point x="119" y="803" type="curve"/>
      <point x="140" y="786"/>
      <point x="153" y="756"/>
      <point x="153" y="720" type="curve" smooth="yes"/>
      <point x="153" y="696"/>
      <point x="148" y="673"/>
      <point x="145" y="664" type="curve"/>
      <point x="317" y="664" type="line" smooth="yes"/>
      <point x="351" y="664"/>
      <point x="363" y="649"/>
      <point x="363" y="610" type="curve" smooth="yes"/>
      <point x="363" y="440" type="line"/>
      <point x="160" y="420"/>
      <point x="70" y="298"/>
      <point x="70" y="121" type="curve" smooth="yes"/>
      <point x="70" y="52"/>
      <point x="85" y="15"/>
    </contour>
  </outline>
</glyph>
<glyph name="hho-ethiopic" format="2">
  <advance width="787"/>
  <unicode hex="1216"/>
  <note>
uni1216
</note>
  <anchor x="418" y="718" name="top"/>
  <outline>
    <contour>
      <point x="99" y="-5" type="curve"/>
      <point x="223" y="4" type="line"/>
      <point x="223" y="47" type="line"/>
      <point x="183" y="48"/>
      <point x="164" y="68"/>
      <point x="164" y="137" type="curve" smooth="yes"/>
      <point x="164" y="294"/>
      <point x="232" y="395"/>
      <point x="408" y="395" type="curve" smooth="yes"/>
      <point x="567" y="395"/>
      <point x="618" y="339"/>
      <point x="618" y="253" type="curve" smooth="yes"/>
      <point x="618" y="241"/>
      <point x="618" y="225"/>
      <point x="618" y="212" type="curve" smooth="yes"/>
      <point x="618" y="183"/>
      <point x="624" y="160"/>
      <point x="636" y="142" type="curve"/>
      <point x="767" y="151" type="line"/>
      <point x="767" y="194" type="line"/>
      <point x="728" y="196"/>
      <point x="713" y="204"/>
      <point x="713" y="235" type="curve" smooth="yes"/>
      <point x="713" y="245"/>
      <point x="713" y="256"/>
      <point x="713" y="264" type="curve" smooth="yes"/>
      <point x="713" y="359"/>
      <point x="649" y="443"/>
      <point x="416" y="443" type="curve" smooth="yes"/>
      <point x="188" y="443"/>
      <point x="70" y="315"/>
      <point x="70" y="121" type="curve" smooth="yes"/>
      <point x="70" y="52"/>
      <point x="85" y="15"/>
    </contour>
    <contour>
      <point x="379" y="142" type="curve"/>
      <point x="497" y="151" type="line"/>
      <point x="497" y="191" type="line"/>
      <point x="466" y="191"/>
      <point x="448" y="204"/>
      <point x="448" y="258" type="curve" smooth="yes"/>
      <point x="448" y="647" type="line" smooth="yes"/>
      <point x="448" y="678"/>
      <point x="437" y="707"/>
      <point x="419" y="718" type="curve"/>
      <point x="304" y="709" type="line"/>
      <point x="304" y="670" type="line"/>
      <point x="333" y="670"/>
      <point x="350" y="650"/>
      <point x="350" y="611" type="curve" smooth="yes"/>
      <point x="350" y="221" type="line" smooth="yes"/>
      <point x="350" y="182"/>
      <point x="361" y="159"/>
    </contour>
  </outline>
</glyph>
<glyph name="hhwa-ethiopic" format="2">
  <advance width="959"/>
  <unicode hex="1217"/>
  <note>
uni1217
</note>
  <anchor x="494" y="718" name="top"/>
  <outline>
    <contour>
      <point x="614" y="1" type="curve"/>
      <point x="742" y="4" type="line"/>
      <point x="742" y="50" type="line"/>
      <point x="703" y="52"/>
      <point x="686" y="65"/>
      <point x="686" y="129" type="curve" smooth="yes"/>
      <point x="686" y="156"/>
      <point x="689" y="208"/>
      <point x="689" y="235" type="curve" smooth="yes"/>
      <point x="689" y="345"/>
      <point x="629" y="435"/>
      <point x="420" y="442" type="curve"/>
      <point x="420" y="647" type="line" smooth="yes"/>
      <point x="420" y="678"/>
      <point x="409" y="707"/>
      <point x="391" y="718" type="curve"/>
      <point x="276" y="709" type="line"/>
      <point x="276" y="670" type="line"/>
      <point x="305" y="670"/>
      <point x="322" y="650"/>
      <point x="322" y="611" type="curve" smooth="yes"/>
      <point x="322" y="440" type="line"/>
      <point x="132" y="421"/>
      <point x="45" y="326"/>
      <point x="45" y="219" type="curve" smooth="yes"/>
      <point x="45" y="183"/>
      <point x="52" y="165"/>
      <point x="62" y="144" type="curve"/>
      <point x="198" y="153" type="line"/>
      <point x="198" y="195" type="line"/>
      <point x="158" y="196"/>
      <point x="139" y="216"/>
      <point x="139" y="247" type="curve" smooth="yes"/>
      <point x="139" y="320"/>
      <point x="191" y="378"/>
      <point x="322" y="392" type="curve"/>
      <point x="322" y="221" type="line" smooth="yes"/>
      <point x="322" y="183"/>
      <point x="333" y="160"/>
      <point x="351" y="143" type="curve"/>
      <point x="469" y="152" type="line"/>
      <point x="469" y="191" type="line"/>
      <point x="438" y="191"/>
      <point x="420" y="204"/>
      <point x="420" y="258" type="curve" smooth="yes"/>
      <point x="420" y="394" type="line"/>
      <point x="550" y="384"/>
      <point x="594" y="324"/>
      <point x="594" y="232" type="curve" smooth="yes"/>
      <point x="594" y="195"/>
      <point x="592" y="125"/>
      <point x="592" y="81" type="curve" smooth="yes"/>
      <point x="592" y="46"/>
      <point x="598" y="22"/>
    </contour>
    <component base="footright" xOffset="298"/>
  </outline>
</glyph>
<glyph name="ma-ethiopic" format="2">
  <advance width="943"/>
  <unicode hex="1218"/>
  <note>
uni1218
</note>
  <anchor x="476" y="714" name="top"/>
  <outline>
    <contour>
      <point x="260" y="134" type="curve" smooth="yes"/>
      <point x="338" y="134"/>
      <point x="398" y="162"/>
      <point x="432" y="182" type="curve"/>
      <point x="432" y="665" type="line"/>
      <point x="544" y="665" type="line"/>
      <point x="544" y="193" type="line"/>
      <point x="679" y="193" type="line" smooth="yes"/>
      <point x="820" y="193"/>
      <point x="903" y="306"/>
      <point x="903" y="472" type="curve" smooth="yes"/>
      <point x="903" y="635"/>
      <point x="813" y="714"/>
      <point x="682" y="714" type="curve" smooth="yes"/>
      <point x="324" y="714" type="line" smooth="yes"/>
      <point x="145" y="714"/>
      <point x="50" y="568"/>
      <point x="50" y="405" type="curve" smooth="yes"/>
      <point x="50" y="234"/>
      <point x="129" y="134"/>
    </contour>
    <contour>
      <point x="277" y="186" type="curve" smooth="yes"/>
      <point x="203" y="186"/>
      <point x="147" y="254"/>
      <point x="147" y="414" type="curve" smooth="yes"/>
      <point x="147" y="573"/>
      <point x="220" y="665"/>
      <point x="323" y="665" type="curve" smooth="yes"/>
      <point x="338" y="665" type="line"/>
      <point x="338" y="200" type="line"/>
      <point x="322" y="191"/>
      <point x="301" y="186"/>
    </contour>
    <contour>
      <point x="638" y="241" type="line"/>
      <point x="638" y="665" type="line"/>
      <point x="675" y="665" type="line" smooth="yes"/>
      <point x="772" y="665"/>
      <point x="807" y="576"/>
      <point x="807" y="461" type="curve" smooth="yes"/>
      <point x="807" y="346"/>
      <point x="778" y="241"/>
      <point x="667" y="241" type="curve" smooth="yes"/>
    </contour>
  </outline>
</glyph>
<glyph name="maa-ethiopic" format="2">
  <advance width="895"/>
  <unicode hex="121B"/>
  <note>
uni121B
</note>
  <anchor x="441" y="714" name="top"/>
  <outline>
    <contour>
      <point x="585" y="-5" type="curve"/>
      <point x="724" y="4" type="line"/>
      <point x="724" y="42" type="line"/>
      <point x="697" y="42"/>
      <point x="683" y="51"/>
      <point x="683" y="74" type="curve" smooth="yes"/>
      <point x="683" y="88"/>
      <point x="687" y="106"/>
      <point x="697" y="131" type="curve" smooth="yes"/>
      <point x="798" y="384" type="line" smooth="yes"/>
      <point x="838" y="484"/>
      <point x="853" y="532"/>
      <point x="853" y="577" type="curve" smooth="yes"/>
      <point x="853" y="665"/>
      <point x="794" y="714"/>
      <point x="677" y="714" type="curve" smooth="yes"/>
      <point x="281" y="714" type="line" smooth="yes"/>
      <point x="122" y="714"/>
      <point x="30" y="622"/>
      <point x="30" y="477" type="curve" smooth="yes"/>
      <point x="30" y="349"/>
      <point x="101" y="280"/>
      <point x="219" y="280" type="curve" smooth="yes"/>
      <point x="298" y="280"/>
      <point x="367" y="313"/>
      <point x="412" y="360" type="curve"/>
      <point x="412" y="665" type="line"/>
      <point x="510" y="665" type="line"/>
      <point x="498" y="604"/>
      <point x="493" y="539"/>
      <point x="493" y="507" type="curve" smooth="yes"/>
      <point x="493" y="409"/>
      <point x="540" y="362"/>
      <point x="642" y="362" type="curve" smooth="yes"/>
      <point x="695" y="362" type="line"/>
      <point x="602" y="129" type="line" smooth="yes"/>
      <point x="585" y="86"/>
      <point x="578" y="56"/>
      <point x="578" y="32" type="curve" smooth="yes"/>
      <point x="578" y="18"/>
      <point x="581" y="6"/>
    </contour>
    <contour>
      <point x="229" y="331" type="curve" smooth="yes"/>
      <point x="162" y="331"/>
      <point x="125" y="381"/>
      <point x="125" y="475" type="curve" smooth="yes"/>
      <point x="125" y="598"/>
      <point x="188" y="665"/>
      <point x="287" y="665" type="curve" smooth="yes"/>
      <point x="314" y="665" type="line"/>
      <point x="314" y="363" type="line"/>
      <point x="294" y="346"/>
      <point x="266" y="331"/>
    </contour>
    <contour>
      <point x="693" y="410" type="line" smooth="yes"/>
      <point x="608" y="410"/>
      <point x="585" y="437"/>
      <point x="585" y="514" type="curve" smooth="yes"/>
      <point x="585" y="550"/>
      <point x="590" y="599"/>
      <point x="602" y="665" type="curve"/>
      <point x="669" y="665" type="line" smooth="yes"/>
      <point x="728" y="665"/>
      <point x="763" y="631"/>
      <point x="763" y="570" type="curve" smooth="yes"/>
      <point x="763" y="539"/>
      <point x="754" y="509"/>
      <point x="744" y="483" type="curve" smooth="yes"/>
      <point x="717" y="410" type="line"/>
    </contour>
  </outline>
</glyph>
<glyph name="mee-ethiopic" format="2">
  <advance width="965"/>
  <unicode hex="121C"/>
  <note>
uni121C
</note>
  <anchor x="485" y="714" name="top"/>
  <outline>
    <contour>
      <point x="645" y="0" type="curve"/>
      <point x="793" y="0" type="line" smooth="yes"/>
      <point x="887" y="0"/>
      <point x="940" y="57"/>
      <point x="940" y="126" type="curve" smooth="yes"/>
      <point x="940" y="191"/>
      <point x="897" y="222"/>
      <point x="807" y="222" type="curve" smooth="yes"/>
      <point x="733" y="222" type="line"/>
      <point x="798" y="384" type="line" smooth="yes"/>
      <point x="838" y="484"/>
      <point x="853" y="532"/>
      <point x="853" y="577" type="curve" smooth="yes"/>
      <point x="853" y="665"/>
      <point x="794" y="714"/>
      <point x="677" y="714" type="curve" smooth="yes"/>
      <point x="281" y="714" type="line" smooth="yes"/>
      <point x="122" y="714"/>
      <point x="30" y="622"/>
      <point x="30" y="477" type="curve" smooth="yes"/>
      <point x="30" y="349"/>
      <point x="101" y="280"/>
      <point x="219" y="280" type="curve" smooth="yes"/>
      <point x="298" y="280"/>
      <point x="367" y="313"/>
      <point x="412" y="360" type="curve"/>
      <point x="412" y="665" type="line"/>
      <point x="510" y="665" type="line"/>
      <point x="498" y="604"/>
      <point x="493" y="539"/>
      <point x="493" y="507" type="curve" smooth="yes"/>
      <point x="493" y="409"/>
      <point x="540" y="362"/>
      <point x="642" y="362" type="curve" smooth="yes"/>
      <point x="695" y="362" type="line"/>
      <point x="614" y="159" type="line" smooth="yes"/>
      <point x="601" y="127"/>
      <point x="596" y="100"/>
      <point x="596" y="78" type="curve" smooth="yes"/>
      <point x="596" y="37"/>
      <point x="615" y="12"/>
    </contour>
    <contour>
      <point x="229" y="331" type="curve" smooth="yes"/>
      <point x="162" y="331"/>
      <point x="125" y="381"/>
      <point x="125" y="475" type="curve" smooth="yes"/>
      <point x="125" y="598"/>
      <point x="188" y="665"/>
      <point x="287" y="665" type="curve" smooth="yes"/>
      <point x="314" y="665" type="line"/>
      <point x="314" y="363" type="line"/>
      <point x="294" y="346"/>
      <point x="266" y="331"/>
    </contour>
    <contour>
      <point x="734" y="42" type="line" smooth="yes"/>
      <point x="704" y="42"/>
      <point x="687" y="57"/>
      <point x="687" y="86" type="curve" smooth="yes"/>
      <point x="687" y="98"/>
      <point x="690" y="113"/>
      <point x="697" y="131" type="curve" smooth="yes"/>
      <point x="718" y="184" type="line"/>
      <point x="776" y="184" type="line" smooth="yes"/>
      <point x="822" y="184"/>
      <point x="846" y="166"/>
      <point x="846" y="122" type="curve" smooth="yes"/>
      <point x="846" y="66"/>
      <point x="807" y="42"/>
      <point x="753" y="42" type="curve" smooth="yes"/>
    </contour>
    <contour>
      <point x="693" y="410" type="line" smooth="yes"/>
      <point x="608" y="410"/>
      <point x="585" y="437"/>
      <point x="585" y="514" type="curve" smooth="yes"/>
      <point x="585" y="550"/>
      <point x="590" y="599"/>
      <point x="602" y="665" type="curve"/>
      <point x="669" y="665" type="line" smooth="yes"/>
      <point x="728" y="665"/>
      <point x="763" y="631"/>
      <point x="763" y="570" type="curve" smooth="yes"/>
      <point x="763" y="539"/>
      <point x="754" y="509"/>
      <point x="744" y="483" type="curve" smooth="yes"/>
      <point x="717" y="410" type="line"/>
    </contour>
  </outline>
</glyph>
<glyph name="me-ethiopic" format="2">
  <advance width="885"/>
  <unicode hex="121D"/>
  <note>
uni121D
</note>
  <anchor x="445" y="714" name="top"/>
  <outline>
    <contour>
      <point x="218" y="280" type="curve" smooth="yes"/>
      <point x="303" y="280"/>
      <point x="367" y="307"/>
      <point x="412" y="331" type="curve"/>
      <point x="412" y="664" type="line"/>
      <point x="510" y="664" type="line"/>
      <point x="510" y="363" type="line"/>
      <point x="680" y="363" type="line" smooth="yes"/>
      <point x="805" y="363"/>
      <point x="860" y="442"/>
      <point x="860" y="548" type="curve" smooth="yes"/>
      <point x="860" y="647"/>
      <point x="796" y="714"/>
      <point x="674" y="714" type="curve" smooth="yes"/>
      <point x="282" y="714" type="line" smooth="yes"/>
      <point x="124" y="714"/>
      <point x="30" y="622"/>
      <point x="30" y="477" type="curve" smooth="yes"/>
      <point x="30" y="349"/>
      <point x="108" y="280"/>
    </contour>
    <contour>
      <point x="220" y="-5" type="curve"/>
      <point x="359" y="4" type="line"/>
      <point x="359" y="42" type="line"/>
      <point x="331" y="42"/>
      <point x="318" y="51"/>
      <point x="318" y="74" type="curve" smooth="yes"/>
      <point x="318" y="88"/>
      <point x="322" y="107"/>
      <point x="332" y="131" type="curve" smooth="yes"/>
      <point x="412" y="331" type="line"/>
      <point x="310" y="312" type="line"/>
      <point x="237" y="129" type="line" smooth="yes"/>
      <point x="220" y="86"/>
      <point x="213" y="56"/>
      <point x="213" y="32" type="curve" smooth="yes"/>
      <point x="213" y="18"/>
      <point x="216" y="6"/>
    </contour>
    <contour>
      <point x="240" y="331" type="curve" smooth="yes"/>
      <point x="163" y="331"/>
      <point x="125" y="381"/>
      <point x="125" y="475" type="curve" smooth="yes"/>
      <point x="125" y="598"/>
      <point x="189" y="664"/>
      <point x="288" y="664" type="curve" smooth="yes"/>
      <point x="314" y="664" type="line"/>
      <point x="314" y="345" type="line"/>
      <point x="295" y="337"/>
      <point x="274" y="331"/>
    </contour>
    <contour>
      <point x="608" y="413" type="line"/>
      <point x="608" y="664" type="line"/>
      <point x="672" y="664" type="line" smooth="yes"/>
      <point x="744" y="664"/>
      <point x="765" y="599"/>
      <point x="765" y="543" type="curve" smooth="yes"/>
      <point x="765" y="479"/>
      <point x="742" y="413"/>
      <point x="663" y="413" type="curve" smooth="yes"/>
    </contour>
  </outline>
</glyph>
<glyph name="mo-ethiopic" format="2">
  <advance width="885"/>
  <unicode hex="121E"/>
  <note>
uni121E
</note>
  <anchor x="445" y="714" name="top"/>
  <outline>
    <contour>
      <point x="227" y="280" type="curve" smooth="yes"/>
      <point x="306" y="280"/>
      <point x="367" y="308"/>
      <point x="412" y="336" type="curve"/>
      <point x="412" y="664" type="line"/>
      <point x="510" y="664" type="line"/>
      <point x="510" y="363" type="line"/>
      <point x="680" y="363" type="line" smooth="yes"/>
      <point x="805" y="363"/>
      <point x="860" y="442"/>
      <point x="860" y="548" type="curve" smooth="yes"/>
      <point x="860" y="647"/>
      <point x="796" y="714"/>
      <point x="674" y="714" type="curve" smooth="yes"/>
      <point x="282" y="714" type="line" smooth="yes"/>
      <point x="124" y="714"/>
      <point x="30" y="622"/>
      <point x="30" y="477" type="curve" smooth="yes"/>
      <point x="30" y="349"/>
      <point x="103" y="280"/>
    </contour>
    <contour>
      <point x="343" y="-5" type="curve"/>
      <point x="461" y="4" type="line"/>
      <point x="461" y="43" type="line"/>
      <point x="430" y="43"/>
      <point x="412" y="56"/>
      <point x="412" y="110" type="curve" smooth="yes"/>
      <point x="412" y="354" type="line"/>
      <point x="314" y="318" type="line"/>
      <point x="314" y="73" type="line" smooth="yes"/>
      <point x="314" y="35"/>
      <point x="325" y="12"/>
    </contour>
    <contour>
      <point x="240" y="331" type="curve" smooth="yes"/>
      <point x="163" y="331"/>
      <point x="125" y="381"/>
      <point x="125" y="475" type="curve" smooth="yes"/>
      <point x="125" y="598"/>
      <point x="189" y="664"/>
      <point x="288" y="664" type="curve" smooth="yes"/>
      <point x="314" y="664" type="line"/>
      <point x="314" y="345" type="line"/>
      <point x="295" y="337"/>
      <point x="274" y="331"/>
    </contour>
    <contour>
      <point x="608" y="413" type="line"/>
      <point x="608" y="664" type="line"/>
      <point x="672" y="664" type="line" smooth="yes"/>
      <point x="744" y="664"/>
      <point x="765" y="599"/>
      <point x="765" y="543" type="curve" smooth="yes"/>
      <point x="765" y="479"/>
      <point x="742" y="413"/>
      <point x="663" y="413" type="curve" smooth="yes"/>
    </contour>
  </outline>
</glyph>
<glyph name="mwa-ethiopic" format="2">
  <advance width="951"/>
  <unicode hex="121F"/>
  <note>
uni121F
</note>
  <anchor x="483" y="714" name="top"/>
  <outline>
    <contour>
      <point x="585" y="4" type="curve"/>
      <point x="724" y="4" type="line"/>
      <point x="724" y="50" type="line"/>
      <point x="699" y="50"/>
      <point x="685" y="59"/>
      <point x="685" y="84" type="curve" smooth="yes"/>
      <point x="685" y="96"/>
      <point x="689" y="111"/>
      <point x="697" y="131" type="curve" smooth="yes"/>
      <point x="798" y="384" type="line" smooth="yes"/>
      <point x="838" y="484"/>
      <point x="853" y="532"/>
      <point x="853" y="577" type="curve" smooth="yes"/>
      <point x="853" y="665"/>
      <point x="794" y="714"/>
      <point x="677" y="714" type="curve" smooth="yes"/>
      <point x="281" y="714" type="line" smooth="yes"/>
      <point x="122" y="714"/>
      <point x="30" y="622"/>
      <point x="30" y="477" type="curve" smooth="yes"/>
      <point x="30" y="349"/>
      <point x="101" y="280"/>
      <point x="219" y="280" type="curve" smooth="yes"/>
      <point x="298" y="280"/>
      <point x="367" y="313"/>
      <point x="412" y="360" type="curve"/>
      <point x="412" y="665" type="line"/>
      <point x="510" y="665" type="line"/>
      <point x="498" y="604"/>
      <point x="493" y="539"/>
      <point x="493" y="507" type="curve" smooth="yes"/>
      <point x="493" y="409"/>
      <point x="540" y="362"/>
      <point x="642" y="362" type="curve" smooth="yes"/>
      <point x="695" y="362" type="line"/>
      <point x="602" y="129" type="line" smooth="yes"/>
      <point x="585" y="86"/>
      <point x="578" y="60"/>
      <point x="578" y="39" type="curve" smooth="yes"/>
      <point x="578" y="26"/>
      <point x="581" y="15"/>
    </contour>
    <contour>
      <point x="229" y="331" type="curve" smooth="yes"/>
      <point x="162" y="331"/>
      <point x="125" y="381"/>
      <point x="125" y="475" type="curve" smooth="yes"/>
      <point x="125" y="598"/>
      <point x="188" y="665"/>
      <point x="287" y="665" type="curve" smooth="yes"/>
      <point x="314" y="665" type="line"/>
      <point x="314" y="363" type="line"/>
      <point x="294" y="346"/>
      <point x="266" y="331"/>
    </contour>
    <contour>
      <point x="693" y="410" type="line" smooth="yes"/>
      <point x="608" y="410"/>
      <point x="585" y="437"/>
      <point x="585" y="514" type="curve" smooth="yes"/>
      <point x="585" y="550"/>
      <point x="590" y="599"/>
      <point x="602" y="665" type="curve"/>
      <point x="669" y="665" type="line" smooth="yes"/>
      <point x="728" y="665"/>
      <point x="763" y="631"/>
      <point x="763" y="570" type="curve" smooth="yes"/>
      <point x="763" y="539"/>
      <point x="754" y="509"/>
      <point x="744" y="483" type="curve" smooth="yes"/>
      <point x="717" y="410" type="line"/>
    </contour>
    <component base="footright" xOffset="290"/>
  </outline>
</glyph>
<glyph name="sza-ethiopic" format="2">
  <advance width="912"/>
  <unicode hex="1220"/>
  <note>
uni1220
</note>
  <anchor x="436" y="720" name="top"/>
  <outline>
    <contour>
      <point x="289" y="-5" type="curve" smooth="yes"/>
      <point x="414" y="-5"/>
      <point x="463" y="64"/>
      <point x="482" y="138" type="curve"/>
      <point x="500" y="122"/>
      <point x="538" y="104"/>
      <point x="605" y="104" type="curve" smooth="yes"/>
      <point x="746" y="104"/>
      <point x="822" y="214"/>
      <point x="822" y="351" type="curve" smooth="yes"/>
      <point x="822" y="642" type="line" smooth="yes"/>
      <point x="822" y="680"/>
      <point x="811" y="703"/>
      <point x="793" y="720" type="curve"/>
      <point x="675" y="711" type="line"/>
      <point x="675" y="672" type="line"/>
      <point x="706" y="672"/>
      <point x="724" y="659"/>
      <point x="724" y="605" type="curve" smooth="yes"/>
      <point x="724" y="344" type="line" smooth="yes"/>
      <point x="724" y="227"/>
      <point x="697" y="154"/>
      <point x="611" y="154" type="curve" smooth="yes"/>
      <point x="539" y="154"/>
      <point x="512" y="189"/>
      <point x="512" y="293" type="curve" smooth="yes"/>
      <point x="512" y="642" type="line" smooth="yes"/>
      <point x="512" y="680"/>
      <point x="501" y="703"/>
      <point x="483" y="720" type="curve"/>
      <point x="365" y="711" type="line"/>
      <point x="365" y="672" type="line"/>
      <point x="396" y="672"/>
      <point x="414" y="659"/>
      <point x="414" y="605" type="curve" smooth="yes"/>
      <point x="414" y="201" type="line" smooth="yes"/>
      <point x="414" y="116"/>
      <point x="382" y="48"/>
      <point x="302" y="48" type="curve" smooth="yes"/>
      <point x="213" y="48"/>
      <point x="195" y="110"/>
      <point x="195" y="191" type="curve" smooth="yes"/>
      <point x="195" y="335"/>
      <point x="197" y="524"/>
      <point x="197" y="642" type="curve" smooth="yes"/>
      <point x="197" y="680"/>
      <point x="186" y="703"/>
      <point x="168" y="720" type="curve"/>
      <point x="50" y="711" type="line"/>
      <point x="50" y="672" type="line"/>
      <point x="81" y="672"/>
      <point x="99" y="659"/>
      <point x="99" y="605" type="curve" smooth="yes"/>
      <point x="99" y="497"/>
      <point x="97" y="320"/>
      <point x="97" y="222" type="curve" smooth="yes"/>
      <point x="97" y="84"/>
      <point x="132" y="-5"/>
    </contour>
  </outline>
</glyph>
<glyph name="szi-ethiopic" format="2">
  <advance width="908"/>
  <unicode hex="1222"/>
  <note>
uni1222
</note>
  <anchor x="471" y="720" name="top"/>
  <outline>
    <contour>
      <point x="517" y="0" type="curve"/>
      <point x="652" y="0" type="line"/>
      <point x="652" y="50" type="line"/>
      <point x="625" y="50"/>
      <point x="613" y="59"/>
      <point x="613" y="80" type="curve" smooth="yes"/>
      <point x="613" y="92"/>
      <point x="617" y="109"/>
      <point x="625" y="131" type="curve" smooth="yes"/>
      <point x="752" y="488" type="line" smooth="yes"/>
      <point x="765" y="524"/>
      <point x="774" y="565"/>
      <point x="774" y="612" type="curve" smooth="yes"/>
      <point x="774" y="642" type="line" smooth="yes"/>
      <point x="774" y="680"/>
      <point x="763" y="703"/>
      <point x="745" y="720" type="curve"/>
      <point x="627" y="711" type="line"/>
      <point x="627" y="672" type="line"/>
      <point x="658" y="672"/>
      <point x="676" y="659"/>
      <point x="676" y="605" type="curve" smooth="yes"/>
      <point x="676" y="584" type="line" smooth="yes"/>
      <point x="676" y="493"/>
      <point x="649" y="420"/>
      <point x="575" y="420" type="curve" smooth="yes"/>
      <point x="515" y="420"/>
      <point x="488" y="455"/>
      <point x="488" y="559" type="curve" smooth="yes"/>
      <point x="488" y="642" type="line" smooth="yes"/>
      <point x="488" y="680"/>
      <point x="477" y="703"/>
      <point x="459" y="720" type="curve"/>
      <point x="341" y="711" type="line"/>
      <point x="341" y="672" type="line"/>
      <point x="372" y="672"/>
      <point x="390" y="659"/>
      <point x="390" y="605" type="curve" smooth="yes"/>
      <point x="390" y="457" type="line" smooth="yes"/>
      <point x="390" y="372"/>
      <point x="358" y="314"/>
      <point x="290" y="314" type="curve" smooth="yes"/>
      <point x="213" y="314"/>
      <point x="195" y="376"/>
      <point x="195" y="457" type="curve" smooth="yes"/>
      <point x="195" y="505"/>
      <point x="197" y="604"/>
      <point x="197" y="642" type="curve" smooth="yes"/>
      <point x="197" y="680"/>
      <point x="186" y="703"/>
      <point x="168" y="720" type="curve"/>
      <point x="50" y="711" type="line"/>
      <point x="50" y="672" type="line"/>
      <point x="81" y="672"/>
      <point x="99" y="659"/>
      <point x="99" y="605" type="curve" smooth="yes"/>
      <point x="99" y="577"/>
      <point x="97" y="490"/>
      <point x="97" y="462" type="curve" smooth="yes"/>
      <point x="97" y="350"/>
      <point x="132" y="261"/>
      <point x="277" y="261" type="curve" smooth="yes"/>
      <point x="390" y="261"/>
      <point x="439" y="330"/>
      <point x="458" y="404" type="curve"/>
      <point x="476" y="388"/>
      <point x="514" y="370"/>
      <point x="569" y="370" type="curve" smooth="yes"/>
      <point x="586" y="370"/>
      <point x="602" y="372"/>
      <point x="617" y="375" type="curve"/>
      <point x="534" y="129" type="line" smooth="yes"/>
      <point x="519" y="83"/>
      <point x="511" y="54"/>
      <point x="511" y="31" type="curve" smooth="yes"/>
      <point x="511" y="20"/>
      <point x="513" y="10"/>
    </contour>
    <component base="rightdoubleflag" xOffset="612"/>
  </outline>
</glyph>
<glyph name="szaa-ethiopic" format="2">
  <advance width="816"/>
  <unicode hex="1223"/>
  <note>
uni1223
</note>
  <anchor x="412" y="720" name="top"/>
  <outline>
    <contour>
      <point x="516" y="-5" type="curve"/>
      <point x="651" y="4" type="line"/>
      <point x="651" y="42" type="line"/>
      <point x="623" y="42"/>
      <point x="610" y="51"/>
      <point x="610" y="73" type="curve" smooth="yes"/>
      <point x="610" y="87"/>
      <point x="615" y="106"/>
      <point x="624" y="131" type="curve" smooth="yes"/>
      <point x="756" y="504" type="line"/>
      <point x="628" y="410" type="line"/>
      <point x="533" y="129" type="line" smooth="yes"/>
      <point x="518" y="83"/>
      <point x="510" y="52"/>
      <point x="510" y="28" type="curve" smooth="yes"/>
      <point x="510" y="16"/>
      <point x="512" y="5"/>
    </contour>
    <component base="shorttoploops"/>
  </outline>
</glyph>
<glyph name="szee-ethiopic" format="2">
  <advance width="876"/>
  <unicode hex="1224"/>
  <note>
uni1224
</note>
  <anchor x="450" y="720" name="top"/>
  <outline>
    <contour>
      <point x="556" y="0" type="curve"/>
      <point x="704" y="0" type="line" smooth="yes"/>
      <point x="798" y="0"/>
      <point x="851" y="57"/>
      <point x="851" y="126" type="curve" smooth="yes"/>
      <point x="851" y="191"/>
      <point x="808" y="222"/>
      <point x="718" y="222" type="curve" smooth="yes"/>
      <point x="644" y="222" type="line"/>
      <point x="752" y="490" type="line"/>
      <point x="628" y="415" type="line"/>
      <point x="525" y="159" type="line" smooth="yes"/>
      <point x="512" y="127"/>
      <point x="507" y="100"/>
      <point x="507" y="78" type="curve" smooth="yes"/>
      <point x="507" y="37"/>
      <point x="526" y="12"/>
    </contour>
    <contour>
      <point x="645" y="42" type="line" smooth="yes"/>
      <point x="615" y="42"/>
      <point x="598" y="57"/>
      <point x="598" y="86" type="curve" smooth="yes"/>
      <point x="598" y="98"/>
      <point x="601" y="113"/>
      <point x="608" y="131" type="curve" smooth="yes"/>
      <point x="629" y="184" type="line"/>
      <point x="687" y="184" type="line" smooth="yes"/>
      <point x="733" y="184"/>
      <point x="757" y="166"/>
      <point x="757" y="122" type="curve" smooth="yes"/>
      <point x="757" y="66"/>
      <point x="718" y="42"/>
      <point x="664" y="42" type="curve" smooth="yes"/>
    </contour>
    <component base="shorttoploops"/>
  </outline>
</glyph>
<glyph name="sze-ethiopic" format="2">
	<advance width="920"/>
	<unicode hex="1225"/>
	<anchor x="445" y="720" name="top"/>
	<note>
		uni1225
	</note>
	<outline>
		<contour>
			<point x="41" y="-5" type="curve"/>
			<point x="176" y="4" type="line"/>
			<point x="176" y="42" type="line"/>
			<point x="150" y="42"/>
			<point x="137" y="50"/>
			<point x="137" y="70" type="curve" smooth="yes"/>
			<point x="137" y="84"/>
			<point x="142" y="103"/>
			<point x="154" y="131" type="curve" smooth="yes"/>
			<point x="239" y="335" type="line"/>
			<point x="187" y="432" type="line"/>
			<point x="63" y="129" type="line" smooth="yes"/>
			<point x="45" y="84"/>
			<point x="36" y="53"/>
			<point x="36" y="28" type="curve" smooth="yes"/>
			<point x="36" y="15"/>
			<point x="37" y="5"/>
		</contour>
		<component base="shorttoploops" xOffset="81"/>
	</outline>
</glyph>
<glyph name="szo-ethiopic" format="2">
  <advance width="839"/>
  <unicode hex="1226"/>
  <note>
uni1226
</note>
  <anchor x="412" y="720" name="top"/>
  <outline>
    <contour>
      <point x="262" y="-5" type="curve"/>
      <point x="397" y="4" type="line"/>
      <point x="397" y="42" type="line"/>
      <point x="369" y="42"/>
      <point x="356" y="51"/>
      <point x="356" y="73" type="curve" smooth="yes"/>
      <point x="356" y="87"/>
      <point x="361" y="106"/>
      <point x="370" y="131" type="curve" smooth="yes"/>
      <point x="494" y="458" type="line"/>
      <point x="450" y="458" type="line"/>
      <point x="355" y="324" type="line"/>
      <point x="279" y="130" type="line" smooth="yes"/>
      <point x="262" y="88"/>
      <point x="255" y="57"/>
      <point x="255" y="33" type="curve" smooth="yes"/>
      <point x="255" y="18"/>
      <point x="258" y="6"/>
    </contour>
    <component base="shorttoploops"/>
  </outline>
</glyph>
<glyph name="ra-ethiopic" format="2">
	<advance width="558"/>
	<unicode hex="1228"/>
	<anchor x="281" y="718" name="top"/>
	<note>
		uni1228
	</note>
	<outline>
		<contour>
			<point x="457" y="-67" type="curve" smooth="yes"/>
			<point x="481" y="-67"/>
			<point x="503" y="-59"/>
			<point x="513" y="-51" type="curve"/>
			<point x="496" y="-36"/>
			<point x="482" y="-13"/>
			<point x="482" y="23" type="curve" smooth="yes"/>
			<point x="482" y="57"/>
			<point x="492" y="80"/>
			<point x="513" y="101" type="curve"/>
			<point x="503" y="108"/>
			<point x="481" y="115"/>
			<point x="457" y="115" type="curve" smooth="yes"/>
			<point x="404" y="115"/>
			<point x="378" y="84"/>
			<point x="372" y="50" type="curve"/>
			<point x="279" y="50" type="line"/>
			<point x="279" y="0" type="line"/>
			<point x="372" y="0" type="line"/>
			<point x="379" y="-36"/>
			<point x="404" y="-67"/>
		</contour>
		<component base="nose"/>
	</outline>
</glyph>
<glyph name="ru-ethiopic" format="2">
  <advance width="628"/>
  <unicode hex="1229"/>
  <note>
uni1229
</note>
  <anchor x="316" y="718" name="top"/>
  <outline>
    <contour>
      <point x="200" y="197" type="curve" smooth="yes"/>
      <point x="422" y="197" type="line"/>
      <point x="422" y="247" type="line"/>
      <point x="210" y="247" type="line" smooth="yes"/>
      <point x="147" y="247"/>
      <point x="111" y="269"/>
      <point x="111" y="329" type="curve" smooth="yes"/>
      <point x="111" y="387"/>
      <point x="146" y="410"/>
      <point x="223" y="464" type="curve" smooth="yes"/>
      <point x="325" y="535"/>
      <point x="371" y="581"/>
      <point x="371" y="643" type="curve" smooth="yes"/>
      <point x="371" y="672"/>
      <point x="364" y="698"/>
      <point x="345" y="718" type="curve"/>
      <point x="197" y="709" type="line"/>
      <point x="197" y="672" type="line"/>
      <point x="267" y="670"/>
      <point x="277" y="655"/>
      <point x="277" y="633" type="curve" smooth="yes"/>
      <point x="277" y="600"/>
      <point x="251" y="581"/>
      <point x="157" y="515" type="curve" smooth="yes"/>
      <point x="62" y="448"/>
      <point x="20" y="415"/>
      <point x="20" y="334" type="curve" smooth="yes"/>
      <point x="20" y="249"/>
      <point x="66" y="197"/>
    </contour>
    <contour>
      <point x="316" y="-5" type="curve"/>
      <point x="449" y="4" type="line"/>
      <point x="449" y="46" type="line"/>
      <point x="408" y="46"/>
      <point x="390" y="60"/>
      <point x="390" y="119" type="curve" smooth="yes"/>
      <point x="390" y="221" type="line"/>
      <point x="290" y="221" type="line"/>
      <point x="290" y="93" type="line" smooth="yes"/>
      <point x="290" y="51"/>
      <point x="297" y="15"/>
    </contour>
    <component base="rightsingleflag" xOffset="337" yOffset="-157"/>
  </outline>
</glyph>
<glyph name="ri-ethiopic" format="2">
  <advance width="545"/>
  <unicode hex="122A"/>
  <note>
uni122A
</note>
  <anchor x="282" y="718" name="top"/>
  <outline>
    <contour>
      <point x="279" y="0" type="curve" smooth="yes"/>
      <point x="450" y="0"/>
      <point x="515" y="101"/>
      <point x="515" y="211" type="curve" smooth="yes"/>
      <point x="515" y="244"/>
      <point x="505" y="277"/>
      <point x="494" y="292" type="curve"/>
      <point x="368" y="283" type="line"/>
      <point x="368" y="241" type="line"/>
      <point x="412" y="241"/>
      <point x="422" y="230"/>
      <point x="422" y="191" type="curve" smooth="yes"/>
      <point x="422" y="104"/>
      <point x="375" y="50"/>
      <point x="280" y="50" type="curve" smooth="yes"/>
      <point x="177" y="50"/>
      <point x="145" y="115"/>
      <point x="145" y="194" type="curve" smooth="yes"/>
      <point x="145" y="285"/>
      <point x="185" y="338"/>
      <point x="300" y="430" type="curve" smooth="yes"/>
      <point x="406" y="515"/>
      <point x="453" y="565"/>
      <point x="453" y="646" type="curve" smooth="yes"/>
      <point x="453" y="679"/>
      <point x="443" y="703"/>
      <point x="432" y="718" type="curve"/>
      <point x="306" y="709" type="line"/>
      <point x="306" y="667" type="line"/>
      <point x="350" y="667"/>
      <point x="360" y="655"/>
      <point x="360" y="628" type="curve" smooth="yes"/>
      <point x="360" y="589"/>
      <point x="333" y="554"/>
      <point x="219" y="466" type="curve" smooth="yes"/>
      <point x="122" y="391"/>
      <point x="50" y="311"/>
      <point x="50" y="198" type="curve" smooth="yes"/>
      <point x="50" y="61"/>
      <point x="126" y="0"/>
    </contour>
  </outline>
</glyph>
<glyph name="raa-ethiopic" format="2">
  <advance width="679"/>
  <unicode hex="122B"/>
  <note>
uni122B
</note>
  <anchor x="357" y="718" name="top"/>
  <outline>
    <contour>
      <point x="273" y="0" type="curve" smooth="yes"/>
      <point x="390" y="0" type="line"/>
      <point x="390" y="27" type="line" smooth="yes"/>
      <point x="390" y="158"/>
      <point x="412" y="259"/>
      <point x="514" y="259" type="curve" smooth="yes"/>
      <point x="536" y="259" type="line"/>
      <point x="535" y="251"/>
      <point x="535" y="247"/>
      <point x="535" y="242" type="curve" smooth="yes"/>
      <point x="535" y="202"/>
      <point x="564" y="166"/>
      <point x="615" y="166" type="curve" smooth="yes"/>
      <point x="637" y="166"/>
      <point x="653" y="172"/>
      <point x="664" y="177" type="curve"/>
      <point x="651" y="197"/>
      <point x="642" y="230"/>
      <point x="642" y="264" type="curve" smooth="yes"/>
      <point x="642" y="282"/>
      <point x="644" y="295"/>
      <point x="646" y="307" type="curve"/>
      <point x="510" y="307" type="line" smooth="yes"/>
      <point x="371" y="307"/>
      <point x="295" y="222"/>
      <point x="295" y="48" type="curve"/>
      <point x="280" y="48" type="line" smooth="yes"/>
      <point x="177" y="48"/>
      <point x="145" y="115"/>
      <point x="145" y="194" type="curve" smooth="yes"/>
      <point x="145" y="285"/>
      <point x="185" y="338"/>
      <point x="300" y="430" type="curve" smooth="yes"/>
      <point x="406" y="515"/>
      <point x="453" y="565"/>
      <point x="453" y="646" type="curve" smooth="yes"/>
      <point x="453" y="679"/>
      <point x="443" y="703"/>
      <point x="432" y="718" type="curve"/>
      <point x="306" y="709" type="line"/>
      <point x="306" y="667" type="line"/>
      <point x="350" y="667"/>
      <point x="360" y="655"/>
      <point x="360" y="628" type="curve" smooth="yes"/>
      <point x="360" y="589"/>
      <point x="333" y="554"/>
      <point x="219" y="466" type="curve" smooth="yes"/>
      <point x="122" y="391"/>
      <point x="50" y="311"/>
      <point x="50" y="198" type="curve" smooth="yes"/>
      <point x="50" y="61"/>
      <point x="126" y="0"/>
    </contour>
  </outline>
</glyph>
<glyph name="ree-ethiopic" format="2">
	<advance width="613"/>
	<unicode hex="122C"/>
	<anchor x="319" y="718" name="top"/>
	<note>
		uni122C
	</note>
	<outline>
		<contour>
			<point x="286" y="0" type="line"/>
			<point x="422" y="0" type="line"/>
			<point x="422" y="16" type="line"/>
			<point x="330" y="50" type="line"/>
			<point x="286" y="50" type="line"/>
		</contour>
		<component base="nose"/>
		<component base="ballbig" xOffset="239" yOffset="-187"/>
	</outline>
</glyph>
<glyph name="re-ethiopic" format="2">
  <advance width="585"/>
  <unicode hex="122D"/>
  <note>
uni122D
</note>
  <anchor x="307" y="714" name="top"/>
  <outline>
    <contour>
      <point x="498" y="-64" type="curve" smooth="yes"/>
      <point x="520" y="-64"/>
      <point x="534" y="-58"/>
      <point x="545" y="-53" type="curve"/>
      <point x="530" y="-33"/>
      <point x="521" y="-7"/>
      <point x="521" y="25" type="curve" smooth="yes"/>
      <point x="521" y="57"/>
      <point x="531" y="83"/>
      <point x="545" y="103" type="curve"/>
      <point x="534" y="108"/>
      <point x="520" y="114"/>
      <point x="498" y="114" type="curve" smooth="yes"/>
      <point x="448" y="114"/>
      <point x="421" y="81"/>
      <point x="416" y="48" type="curve"/>
      <point x="356" y="48" type="line" smooth="yes"/>
      <point x="252" y="48"/>
      <point x="164" y="55"/>
      <point x="164" y="241" type="curve" smooth="yes"/>
      <point x="164" y="359" type="line" smooth="yes"/>
      <point x="164" y="567"/>
      <point x="245" y="666"/>
      <point x="386" y="666" type="curve" smooth="yes"/>
      <point x="417" y="666" type="line"/>
      <point x="416" y="658"/>
      <point x="416" y="655"/>
      <point x="416" y="650" type="curve" smooth="yes"/>
      <point x="416" y="610"/>
      <point x="445" y="572"/>
      <point x="496" y="572" type="curve" smooth="yes"/>
      <point x="518" y="572"/>
      <point x="534" y="578"/>
      <point x="545" y="583" type="curve"/>
      <point x="532" y="603"/>
      <point x="523" y="635"/>
      <point x="523" y="669" type="curve" smooth="yes"/>
      <point x="523" y="687"/>
      <point x="525" y="702"/>
      <point x="527" y="714" type="curve"/>
      <point x="379" y="714" type="line" smooth="yes"/>
      <point x="194" y="714"/>
      <point x="70" y="592"/>
      <point x="70" y="364" type="curve" smooth="yes"/>
      <point x="70" y="236" type="line" smooth="yes"/>
      <point x="70" y="23"/>
      <point x="188" y="0"/>
      <point x="349" y="0" type="curve" smooth="yes"/>
      <point x="416" y="0" type="line"/>
      <point x="421" y="-30"/>
      <point x="448" y="-64"/>
    </contour>
  </outline>
</glyph>
<glyph name="ro-ethiopic" format="2">
  <advance width="619"/>
  <unicode hex="122E"/>
  <note>
uni122E
</note>
  <anchor x="332" y="714" name="top"/>
  <outline>
    <contour>
      <point x="503" y="-64" type="curve" smooth="yes"/>
      <point x="525" y="-64"/>
      <point x="539" y="-58"/>
      <point x="550" y="-53" type="curve"/>
      <point x="535" y="-33"/>
      <point x="526" y="-7"/>
      <point x="526" y="25" type="curve" smooth="yes"/>
      <point x="526" y="57"/>
      <point x="536" y="83"/>
      <point x="550" y="103" type="curve"/>
      <point x="539" y="108"/>
      <point x="525" y="114"/>
      <point x="503" y="114" type="curve" smooth="yes"/>
      <point x="453" y="114"/>
      <point x="426" y="81"/>
      <point x="421" y="48" type="curve"/>
      <point x="356" y="48" type="line" smooth="yes"/>
      <point x="252" y="48"/>
      <point x="164" y="55"/>
      <point x="164" y="241" type="curve" smooth="yes"/>
      <point x="164" y="359" type="line" smooth="yes"/>
      <point x="164" y="567"/>
      <point x="245" y="676"/>
      <point x="386" y="676" type="curve" smooth="yes"/>
      <point x="397" y="676" type="line"/>
      <point x="467" y="714" type="line"/>
      <point x="379" y="714" type="line" smooth="yes"/>
      <point x="194" y="714"/>
      <point x="70" y="592"/>
      <point x="70" y="364" type="curve" smooth="yes"/>
      <point x="70" y="236" type="line" smooth="yes"/>
      <point x="70" y="23"/>
      <point x="188" y="0"/>
      <point x="349" y="0" type="curve" smooth="yes"/>
      <point x="421" y="0" type="line"/>
      <point x="426" y="-30"/>
      <point x="453" y="-64"/>
    </contour>
    <component base="ballsmall" xOffset="283" yOffset="298"/>
  </outline>
</glyph>
<glyph name="rwa-ethiopic" format="2">
  <advance width="713"/>
  <unicode hex="122F"/>
  <note>
uni122F
</note>
  <anchor x="374" y="819" name="top"/>
  <outline>
    <contour>
      <point x="273" y="0" type="curve" smooth="yes"/>
      <point x="390" y="0" type="line"/>
      <point x="390" y="27" type="line" smooth="yes"/>
      <point x="390" y="158"/>
      <point x="412" y="259"/>
      <point x="514" y="259" type="curve" smooth="yes"/>
      <point x="536" y="259" type="line"/>
      <point x="535" y="251"/>
      <point x="535" y="247"/>
      <point x="535" y="242" type="curve" smooth="yes"/>
      <point x="535" y="202"/>
      <point x="564" y="166"/>
      <point x="615" y="166" type="curve" smooth="yes"/>
      <point x="637" y="166"/>
      <point x="653" y="172"/>
      <point x="664" y="177" type="curve"/>
      <point x="651" y="197"/>
      <point x="642" y="230"/>
      <point x="642" y="264" type="curve" smooth="yes"/>
      <point x="642" y="282"/>
      <point x="644" y="295"/>
      <point x="646" y="307" type="curve"/>
      <point x="510" y="307" type="line" smooth="yes"/>
      <point x="371" y="307"/>
      <point x="295" y="222"/>
      <point x="295" y="48" type="curve"/>
      <point x="280" y="48" type="line" smooth="yes"/>
      <point x="177" y="48"/>
      <point x="145" y="115"/>
      <point x="145" y="194" type="curve" smooth="yes"/>
      <point x="145" y="285"/>
      <point x="185" y="338"/>
      <point x="300" y="430" type="curve" smooth="yes"/>
      <point x="406" y="515"/>
      <point x="453" y="562"/>
      <point x="453" y="643" type="curve" smooth="yes"/>
      <point x="453" y="669"/>
      <point x="443" y="693"/>
      <point x="432" y="708" type="curve"/>
      <point x="306" y="706" type="line"/>
      <point x="306" y="664" type="line"/>
      <point x="350" y="664"/>
      <point x="360" y="652"/>
      <point x="360" y="625" type="curve" smooth="yes"/>
      <point x="360" y="586"/>
      <point x="333" y="554"/>
      <point x="219" y="466" type="curve" smooth="yes"/>
      <point x="122" y="391"/>
      <point x="50" y="311"/>
      <point x="50" y="198" type="curve" smooth="yes"/>
      <point x="50" y="61"/>
      <point x="126" y="0"/>
    </contour>
    <contour>
      <point x="640" y="819" type="curve" smooth="yes"/>
      <point x="582" y="819"/>
      <point x="553" y="783"/>
      <point x="553" y="737" type="curve" smooth="yes"/>
      <point x="553" y="728"/>
      <point x="554" y="721"/>
      <point x="555" y="714" type="curve"/>
      <point x="210" y="714" type="line"/>
      <point x="211" y="721"/>
      <point x="212" y="728"/>
      <point x="212" y="737" type="curve" smooth="yes"/>
      <point x="212" y="783"/>
      <point x="183" y="819"/>
      <point x="125" y="819" type="curve" smooth="yes"/>
      <point x="103" y="819"/>
      <point x="81" y="813"/>
      <point x="67" y="803" type="curve"/>
      <point x="88" y="786"/>
      <point x="101" y="756"/>
      <point x="101" y="720" type="curve" smooth="yes"/>
      <point x="101" y="696"/>
      <point x="96" y="673"/>
      <point x="93" y="664" type="curve"/>
      <point x="672" y="664" type="line"/>
      <point x="669" y="673"/>
      <point x="664" y="696"/>
      <point x="664" y="720" type="curve" smooth="yes"/>
      <point x="664" y="756"/>
      <point x="677" y="786"/>
      <point x="698" y="803" type="curve"/>
      <point x="684" y="813"/>
      <point x="662" y="819"/>
    </contour>
  </outline>
</glyph>
<glyph name="sa-ethiopic" format="2">
	<advance width="639"/>
	<unicode hex="1230"/>
	<anchor x="340" y="765" name="top"/>
	<note>
		uni1230
	</note>
	<outline>
		<contour>
			<point x="277" y="585" type="line"/>
			<point x="375" y="585" type="line"/>
			<point x="375" y="682" type="line" smooth="yes"/>
			<point x="375" y="723"/>
			<point x="368" y="750"/>
			<point x="346" y="765" type="curve"/>
			<point x="231" y="756" type="line"/>
			<point x="231" y="718" type="line"/>
			<point x="261" y="717"/>
			<point x="277" y="698"/>
			<point x="277" y="649" type="curve" smooth="yes"/>
		</contour>
		<component base="shortnarch" xOffset="-3"/>
	</outline>
</glyph>
<glyph name="si-ethiopic" format="2">
  <advance width="804"/>
  <unicode hex="1232"/>
  <note>
uni1232
</note>
  <anchor x="438" y="765" name="top"/>
  <outline>
    <contour>
      <point x="113" y="-5" type="curve"/>
      <point x="246" y="4" type="line"/>
      <point x="246" y="46" type="line"/>
      <point x="205" y="46"/>
      <point x="187" y="60"/>
      <point x="187" y="119" type="curve" smooth="yes"/>
      <point x="187" y="299" type="line" smooth="yes"/>
      <point x="187" y="491"/>
      <point x="242" y="565"/>
      <point x="336" y="565" type="curve" smooth="yes"/>
      <point x="410" y="565"/>
      <point x="436" y="508"/>
      <point x="436" y="393" type="curve" smooth="yes"/>
      <point x="436" y="297"/>
      <point x="434" y="190"/>
      <point x="434" y="98" type="curve" smooth="yes"/>
      <point x="434" y="50"/>
      <point x="441" y="20"/>
      <point x="460" y="0" type="curve"/>
      <point x="593" y="0" type="line"/>
      <point x="593" y="50" type="line"/>
      <point x="552" y="50"/>
      <point x="534" y="64"/>
      <point x="534" y="123" type="curve" smooth="yes"/>
      <point x="534" y="199"/>
      <point x="537" y="323"/>
      <point x="537" y="386" type="curve" smooth="yes"/>
      <point x="537" y="536"/>
      <point x="489" y="613"/>
      <point x="351" y="613" type="curve" smooth="yes"/>
      <point x="199" y="613"/>
      <point x="87" y="515"/>
      <point x="87" y="324" type="curve" smooth="yes"/>
      <point x="87" y="93" type="line" smooth="yes"/>
      <point x="87" y="51"/>
      <point x="94" y="15"/>
    </contour>
    <contour>
      <point x="277" y="585" type="line"/>
      <point x="375" y="585" type="line"/>
      <point x="375" y="682" type="line" smooth="yes"/>
      <point x="375" y="723"/>
      <point x="368" y="750"/>
      <point x="346" y="765" type="curve"/>
      <point x="231" y="756" type="line"/>
      <point x="231" y="718" type="line"/>
      <point x="261" y="717"/>
      <point x="277" y="698"/>
      <point x="277" y="649" type="curve" smooth="yes"/>
    </contour>
    <component base="rightdoubleflag" xOffset="508"/>
  </outline>
</glyph>
<glyph name="saa-ethiopic" format="2">
  <advance width="618"/>
  <unicode hex="1233"/>
  <note>
uni1233
</note>
  <anchor x="319" y="765" name="top"/>
  <outline>
    <contour>
      <point x="255" y="585" type="line"/>
      <point x="353" y="585" type="line"/>
      <point x="353" y="682" type="line" smooth="yes"/>
      <point x="353" y="723"/>
      <point x="346" y="750"/>
      <point x="324" y="765" type="curve"/>
      <point x="209" y="756" type="line"/>
      <point x="209" y="718" type="line"/>
      <point x="239" y="717"/>
      <point x="255" y="698"/>
      <point x="255" y="649" type="curve" smooth="yes"/>
    </contour>
    <component base="baashort"/>
  </outline>
</glyph>
<glyph name="see-ethiopic" format="2">
  <advance width="803"/>
  <unicode hex="1234"/>
  <note>
uni1234
</note>
  <anchor x="432" y="765" name="top"/>
  <outline>
    <contour>
      <point x="113" y="-5" type="curve"/>
      <point x="246" y="4" type="line"/>
      <point x="246" y="46" type="line"/>
      <point x="205" y="46"/>
      <point x="187" y="60"/>
      <point x="187" y="119" type="curve" smooth="yes"/>
      <point x="187" y="299" type="line" smooth="yes"/>
      <point x="187" y="491"/>
      <point x="242" y="565"/>
      <point x="336" y="565" type="curve" smooth="yes"/>
      <point x="410" y="565"/>
      <point x="436" y="507"/>
      <point x="436" y="392" type="curve" smooth="yes"/>
      <point x="436" y="346"/>
      <point x="434" y="199"/>
      <point x="434" y="83" type="curve" smooth="yes"/>
      <point x="434" y="35"/>
      <point x="461" y="9"/>
      <point x="504" y="0" type="curve"/>
      <point x="631" y="0" type="line" smooth="yes"/>
      <point x="725" y="0"/>
      <point x="778" y="57"/>
      <point x="778" y="126" type="curve" smooth="yes"/>
      <point x="778" y="191"/>
      <point x="735" y="222"/>
      <point x="645" y="222" type="curve" smooth="yes"/>
      <point x="534" y="222" type="line"/>
      <point x="534" y="258"/>
      <point x="537" y="346"/>
      <point x="537" y="385" type="curve" smooth="yes"/>
      <point x="537" y="527"/>
      <point x="494" y="604"/>
      <point x="373" y="612" type="curve"/>
      <point x="373" y="682" type="line" smooth="yes"/>
      <point x="373" y="723"/>
      <point x="366" y="750"/>
      <point x="344" y="765" type="curve"/>
      <point x="229" y="756" type="line"/>
      <point x="229" y="718" type="line"/>
      <point x="259" y="717"/>
      <point x="275" y="698"/>
      <point x="275" y="649" type="curve" smooth="yes"/>
      <point x="275" y="604" type="line"/>
      <point x="163" y="576"/>
      <point x="87" y="481"/>
      <point x="87" y="324" type="curve" smooth="yes"/>
      <point x="87" y="93" type="line" smooth="yes"/>
      <point x="87" y="51"/>
      <point x="94" y="15"/>
    </contour>
    <contour>
      <point x="602" y="35" type="curve" smooth="yes"/>
      <point x="558" y="35"/>
      <point x="534" y="47"/>
      <point x="534" y="90" type="curve" smooth="yes"/>
      <point x="534" y="184" type="line"/>
      <point x="614" y="184" type="line" smooth="yes"/>
      <point x="660" y="184"/>
      <point x="684" y="166"/>
      <point x="684" y="122" type="curve" smooth="yes"/>
      <point x="684" y="66"/>
      <point x="656" y="35"/>
    </contour>
  </outline>
</glyph>
<glyph name="se-ethiopic" format="2">
  <advance width="639"/>
  <unicode hex="1235"/>
  <note>
uni1235
</note>
  <anchor x="340" y="763" name="top"/>
  <outline>
    <contour>
      <point x="288" y="585" type="line"/>
      <point x="386" y="585" type="line"/>
      <point x="340" y="668" type="line" smooth="yes"/>
      <point x="335" y="677"/>
      <point x="332" y="686"/>
      <point x="332" y="695" type="curve" smooth="yes"/>
      <point x="332" y="710"/>
      <point x="342" y="722"/>
      <point x="362" y="725" type="curve"/>
      <point x="362" y="763" type="line"/>
      <point x="243" y="760" type="line"/>
      <point x="233" y="751"/>
      <point x="227" y="737"/>
      <point x="227" y="720" type="curve" smooth="yes"/>
      <point x="227" y="708"/>
      <point x="231" y="693"/>
      <point x="239" y="678" type="curve" smooth="yes"/>
    </contour>
    <component base="shortnarch" xOffset="-3"/>
  </outline>
</glyph>
<glyph name="so-ethiopic" format="2">
  <advance width="612"/>
  <unicode hex="1236"/>
  <note>
uni1236
</note>
  <anchor x="339" y="765" name="top"/>
  <outline>
    <contour>
      <point x="270" y="585" type="line"/>
      <point x="368" y="585" type="line"/>
      <point x="368" y="682" type="line" smooth="yes"/>
      <point x="368" y="723"/>
      <point x="361" y="750"/>
      <point x="339" y="765" type="curve"/>
      <point x="224" y="756" type="line"/>
      <point x="224" y="718" type="line"/>
      <point x="254" y="717"/>
      <point x="270" y="698"/>
      <point x="270" y="649" type="curve" smooth="yes"/>
    </contour>
    <component base="boshort" xOffset="-3"/>
  </outline>
</glyph>
<glyph name="swa-ethiopic" format="2">
  <advance width="751"/>
  <unicode hex="1237"/>
  <note>
uni1237
</note>
  <anchor x="375" y="765" name="top"/>
  <outline>
    <contour>
      <point x="456" y="0" type="curve"/>
      <point x="589" y="0" type="line"/>
      <point x="589" y="50" type="line"/>
      <point x="548" y="50"/>
      <point x="530" y="61"/>
      <point x="530" y="120" type="curve" smooth="yes"/>
      <point x="530" y="196"/>
      <point x="533" y="323"/>
      <point x="533" y="396" type="curve" smooth="yes"/>
      <point x="533" y="536"/>
      <point x="485" y="613"/>
      <point x="342" y="613" type="curve" smooth="yes"/>
      <point x="185" y="613"/>
      <point x="83" y="514"/>
      <point x="83" y="373" type="curve" smooth="yes"/>
      <point x="83" y="327" type="line" smooth="yes"/>
      <point x="83" y="285"/>
      <point x="90" y="249"/>
      <point x="109" y="229" type="curve"/>
      <point x="242" y="238" type="line"/>
      <point x="242" y="280" type="line"/>
      <point x="201" y="280"/>
      <point x="183" y="294"/>
      <point x="183" y="343" type="curve" smooth="yes"/>
      <point x="183" y="362" type="line" smooth="yes"/>
      <point x="183" y="494"/>
      <point x="231" y="565"/>
      <point x="327" y="565" type="curve" smooth="yes"/>
      <point x="406" y="565"/>
      <point x="432" y="508"/>
      <point x="432" y="399" type="curve" smooth="yes"/>
      <point x="432" y="297"/>
      <point x="430" y="186"/>
      <point x="430" y="94" type="curve" smooth="yes"/>
      <point x="430" y="46"/>
      <point x="437" y="20"/>
    </contour>
    <contour>
      <point x="280" y="585" type="line"/>
      <point x="378" y="585" type="line"/>
      <point x="378" y="682" type="line" smooth="yes"/>
      <point x="378" y="723"/>
      <point x="371" y="750"/>
      <point x="349" y="765" type="curve"/>
      <point x="234" y="756" type="line"/>
      <point x="234" y="718" type="line"/>
      <point x="264" y="717"/>
      <point x="280" y="698"/>
      <point x="280" y="649" type="curve" smooth="yes"/>
    </contour>
    <component base="footlong"/>
  </outline>
</glyph>
<glyph name="sha-ethiopic" format="2">
	<advance width="679"/>
	<unicode hex="1238"/>
	<anchor x="339" y="826" name="top"/>
	<note>
		uni1238
	</note>
	<outline>
		<contour>
			<point x="300" y="585" type="line"/>
			<point x="391" y="585" type="line"/>
			<point x="391" y="726" type="line"/>
			<point x="300" y="726" type="line"/>
		</contour>
		<component base="shortnarch" xOffset="14"/>
		<component base="bonemiddle" xOffset="45"/>
	</outline>
</glyph>
<glyph name="shi-ethiopic" format="2">
  <advance width="811"/>
  <unicode hex="123A"/>
  <note>
uni123A
</note>
  <anchor x="428" y="826" name="top"/>
  <outline>
    <contour>
      <point x="131" y="-5" type="curve"/>
      <point x="264" y="4" type="line"/>
      <point x="264" y="46" type="line"/>
      <point x="223" y="46"/>
      <point x="205" y="60"/>
      <point x="205" y="119" type="curve" smooth="yes"/>
      <point x="205" y="299" type="line" smooth="yes"/>
      <point x="205" y="491"/>
      <point x="260" y="565"/>
      <point x="354" y="565" type="curve" smooth="yes"/>
      <point x="428" y="565"/>
      <point x="454" y="508"/>
      <point x="454" y="393" type="curve" smooth="yes"/>
      <point x="454" y="297"/>
      <point x="452" y="185"/>
      <point x="452" y="93" type="curve" smooth="yes"/>
      <point x="452" y="45"/>
      <point x="460" y="20"/>
      <point x="477" y="0" type="curve"/>
      <point x="611" y="0" type="line"/>
      <point x="611" y="50" type="line"/>
      <point x="570" y="50"/>
      <point x="552" y="64"/>
      <point x="552" y="119" type="curve" smooth="yes"/>
      <point x="552" y="195"/>
      <point x="555" y="323"/>
      <point x="555" y="386" type="curve" smooth="yes"/>
      <point x="555" y="536"/>
      <point x="507" y="613"/>
      <point x="369" y="613" type="curve" smooth="yes"/>
      <point x="217" y="613"/>
      <point x="105" y="515"/>
      <point x="105" y="324" type="curve" smooth="yes"/>
      <point x="105" y="93" type="line" smooth="yes"/>
      <point x="105" y="51"/>
      <point x="112" y="15"/>
    </contour>
    <contour>
      <point x="740" y="-67" type="curve" smooth="yes"/>
      <point x="764" y="-67"/>
      <point x="786" y="-59"/>
      <point x="796" y="-51" type="curve"/>
      <point x="779" y="-36"/>
      <point x="765" y="-13"/>
      <point x="765" y="23" type="curve" smooth="yes"/>
      <point x="765" y="57"/>
      <point x="775" y="80"/>
      <point x="796" y="101" type="curve"/>
      <point x="786" y="108"/>
      <point x="764" y="115"/>
      <point x="740" y="115" type="curve" smooth="yes"/>
      <point x="687" y="115"/>
      <point x="661" y="84"/>
      <point x="655" y="50" type="curve"/>
      <point x="505" y="50" type="line"/>
      <point x="505" y="0" type="line"/>
      <point x="655" y="0" type="line"/>
      <point x="662" y="-36"/>
      <point x="687" y="-67"/>
    </contour>
    <contour>
      <point x="297" y="585" type="line"/>
      <point x="388" y="585" type="line"/>
      <point x="388" y="726" type="line"/>
      <point x="297" y="726" type="line"/>
    </contour>
    <component base="bonemiddle" xOffset="45"/>
  </outline>
</glyph>
<glyph name="shaa-ethiopic" format="2">
	<advance width="669"/>
	<unicode hex="123B"/>
	<anchor x="329" y="826" name="top"/>
	<note>
		uni123B
	</note>
	<outline>
		<contour>
			<point x="285" y="585" type="line"/>
			<point x="376" y="585" type="line"/>
			<point x="376" y="726" type="line"/>
			<point x="285" y="726" type="line"/>
		</contour>
		<component base="bonemiddle" xOffset="35"/>
		<component base="baashort" xOffset="26"/>
	</outline>
</glyph>
<glyph name="shee-ethiopic" format="2">
  <advance width="800"/>
  <unicode hex="123C"/>
  <note>
uni123C
</note>
  <anchor x="417" y="826" name="top"/>
  <outline>
    <contour>
      <point x="115" y="-5" type="curve"/>
      <point x="248" y="4" type="line"/>
      <point x="248" y="46" type="line"/>
      <point x="207" y="46"/>
      <point x="189" y="60"/>
      <point x="189" y="119" type="curve" smooth="yes"/>
      <point x="189" y="299" type="line" smooth="yes"/>
      <point x="189" y="491"/>
      <point x="244" y="565"/>
      <point x="338" y="565" type="curve" smooth="yes"/>
      <point x="412" y="565"/>
      <point x="438" y="508"/>
      <point x="438" y="393" type="curve" smooth="yes"/>
      <point x="438" y="311"/>
      <point x="437" y="261"/>
      <point x="437" y="188" type="curve"/>
      <point x="531" y="188" type="line"/>
      <point x="531" y="264"/>
      <point x="532" y="332"/>
      <point x="532" y="386" type="curve" smooth="yes"/>
      <point x="532" y="536"/>
      <point x="491" y="613"/>
      <point x="353" y="613" type="curve" smooth="yes"/>
      <point x="201" y="613"/>
      <point x="89" y="515"/>
      <point x="89" y="324" type="curve" smooth="yes"/>
      <point x="89" y="93" type="line" smooth="yes"/>
      <point x="89" y="51"/>
      <point x="96" y="15"/>
    </contour>
    <contour>
      <point x="295" y="585" type="line"/>
      <point x="386" y="585" type="line"/>
      <point x="386" y="726" type="line"/>
      <point x="295" y="726" type="line"/>
    </contour>
    <component base="bonemiddle" xOffset="45"/>
    <component base="baselinebowl" xOffset="412"/>
  </outline>
</glyph>
<glyph name="sho-ethiopic" format="2">
	<advance width="679"/>
	<unicode hex="123E"/>
	<anchor x="339" y="826" name="top"/>
	<note>
		uni123E
	</note>
	<outline>
		<contour>
			<point x="298" y="585" type="line"/>
			<point x="389" y="585" type="line"/>
			<point x="389" y="726" type="line"/>
			<point x="298" y="726" type="line"/>
		</contour>
		<component base="boshort" xOffset="12"/>
		<component base="bonemiddle" xOffset="45"/>
	</outline>
</glyph>
<glyph name="qi-ethiopic" format="2">
  <advance width="629"/>
  <unicode hex="1242"/>
  <note>
uni1242
</note>
  <anchor x="314" y="718" name="top"/>
  <outline>
    <contour>
      <point x="284" y="0" type="curve"/>
      <point x="417" y="0" type="line"/>
      <point x="417" y="50" type="line"/>
      <point x="376" y="50"/>
      <point x="358" y="64"/>
      <point x="358" y="123" type="curve"/>
      <point x="358" y="647" type="line" smooth="yes"/>
      <point x="358" y="678"/>
      <point x="345" y="707"/>
      <point x="327" y="718" type="curve"/>
      <point x="212" y="709" type="line"/>
      <point x="212" y="669" type="line"/>
      <point x="241" y="669"/>
      <point x="258" y="649"/>
      <point x="258" y="610" type="curve" smooth="yes"/>
      <point x="258" y="98" type="line" smooth="yes"/>
      <point x="258" y="50"/>
      <point x="265" y="20"/>
    </contour>
    <component base="rightdoubleflag" xOffset="328"/>
    <component base="midring" yOffset="1"/>
  </outline>
</glyph>
<glyph name="qee-ethiopic" format="2">
  <advance width="625"/>
  <unicode hex="1244"/>
  <note>
uni1244
</note>
  <anchor x="312" y="718" name="top"/>
  <outline>
    <contour>
      <point x="361" y="0" type="curve"/>
      <point x="458" y="0" type="line" smooth="yes"/>
      <point x="552" y="0"/>
      <point x="605" y="52"/>
      <point x="605" y="115" type="curve" smooth="yes"/>
      <point x="605" y="175"/>
      <point x="562" y="203"/>
      <point x="472" y="203" type="curve" smooth="yes"/>
      <point x="364" y="203" type="line"/>
      <point x="364" y="647" type="line" smooth="yes"/>
      <point x="364" y="678"/>
      <point x="353" y="707"/>
      <point x="335" y="718" type="curve"/>
      <point x="220" y="709" type="line"/>
      <point x="220" y="669" type="line"/>
      <point x="249" y="669"/>
      <point x="266" y="649"/>
      <point x="266" y="610" type="curve" smooth="yes"/>
      <point x="266" y="103" type="line" smooth="yes"/>
      <point x="266" y="41"/>
      <point x="298" y="12"/>
    </contour>
    <contour>
      <point x="429" y="35" type="curve" smooth="yes"/>
      <point x="387" y="35"/>
      <point x="364" y="54"/>
      <point x="364" y="110" type="curve" smooth="yes"/>
      <point x="364" y="167" type="line"/>
      <point x="441" y="167" type="line" smooth="yes"/>
      <point x="488" y="167"/>
      <point x="511" y="151"/>
      <point x="511" y="112" type="curve" smooth="yes"/>
      <point x="511" y="62"/>
      <point x="483" y="35"/>
    </contour>
    <component base="midringshort" yOffset="42"/>
  </outline>
</glyph>
<glyph name="qe-ethiopic" format="2">
  <advance width="628"/>
  <unicode hex="1245"/>
  <note>
uni1245
</note>
  <anchor x="314" y="819" name="top"/>
  <outline>
    <contour>
      <point x="293" y="-5" type="curve"/>
      <point x="411" y="4" type="line"/>
      <point x="411" y="44" type="line"/>
      <point x="380" y="44"/>
      <point x="362" y="57"/>
      <point x="362" y="111" type="curve"/>
      <point x="362" y="649" type="line" smooth="yes"/>
      <point x="362" y="676"/>
      <point x="351" y="703"/>
      <point x="333" y="714" type="curve"/>
      <point x="163" y="714" type="line"/>
      <point x="164" y="721"/>
      <point x="165" y="728"/>
      <point x="165" y="737" type="curve" smooth="yes"/>
      <point x="165" y="783"/>
      <point x="136" y="819"/>
      <point x="78" y="819" type="curve" smooth="yes"/>
      <point x="56" y="819"/>
      <point x="34" y="813"/>
      <point x="20" y="803" type="curve"/>
      <point x="41" y="786"/>
      <point x="54" y="756"/>
      <point x="54" y="720" type="curve" smooth="yes"/>
      <point x="54" y="696"/>
      <point x="49" y="673"/>
      <point x="46" y="664" type="curve"/>
      <point x="218" y="664" type="line" smooth="yes"/>
      <point x="252" y="664"/>
      <point x="264" y="649"/>
      <point x="264" y="610" type="curve" smooth="yes"/>
      <point x="264" y="73" type="line"/>
      <point x="264" y="35"/>
      <point x="275" y="12"/>
    </contour>
    <component base="midring" xOffset="4" yOffset="9"/>
  </outline>
</glyph>
<glyph name="qoa-ethiopic" format="2">
  <advance width="624"/>
  <unicode hex="1247"/>
  <note>
uni1247
</note>
  <anchor x="312" y="770" name="top"/>
  <outline>
    <contour>
      <point x="110" y="-67" type="curve" smooth="yes"/>
      <point x="163" y="-67"/>
      <point x="188" y="-36"/>
      <point x="195" y="0" type="curve"/>
      <point x="334" y="0" type="line"/>
      <point x="352" y="11"/>
      <point x="363" y="38"/>
      <point x="363" y="71" type="curve" smooth="yes"/>
      <point x="363" y="485" type="line" smooth="yes"/>
      <point x="363" y="515"/>
      <point x="367" y="526"/>
      <point x="387" y="543" type="curve" smooth="yes"/>
      <point x="423" y="574"/>
      <point x="454" y="596"/>
      <point x="454" y="659" type="curve" smooth="yes"/>
      <point x="454" y="737"/>
      <point x="402" y="770"/>
      <point x="315" y="770" type="curve" smooth="yes"/>
      <point x="232" y="770"/>
      <point x="175" y="736"/>
      <point x="175" y="653" type="curve" smooth="yes"/>
      <point x="175" y="582"/>
      <point x="220" y="552"/>
      <point x="286" y="543" type="curve"/>
      <point x="268" y="527"/>
      <point x="265" y="506"/>
      <point x="265" y="483" type="curve" smooth="yes"/>
      <point x="265" y="104" type="line" smooth="yes"/>
      <point x="265" y="65"/>
      <point x="253" y="50"/>
      <point x="219" y="50" type="curve" smooth="yes"/>
      <point x="195" y="50" type="line"/>
      <point x="189" y="84"/>
      <point x="163" y="115"/>
      <point x="110" y="115" type="curve" smooth="yes"/>
      <point x="86" y="115"/>
      <point x="64" y="108"/>
      <point x="54" y="101" type="curve"/>
      <point x="75" y="80"/>
      <point x="85" y="57"/>
      <point x="85" y="23" type="curve" smooth="yes"/>
      <point x="85" y="-13"/>
      <point x="71" y="-36"/>
      <point x="54" y="-51" type="curve"/>
      <point x="64" y="-59"/>
      <point x="86" y="-67"/>
    </contour>
    <contour>
      <point x="326" y="577" type="curve"/>
      <point x="283" y="584"/>
      <point x="264" y="608"/>
      <point x="264" y="654" type="curve" smooth="yes"/>
      <point x="264" y="701"/>
      <point x="283" y="724"/>
      <point x="315" y="724" type="curve" smooth="yes"/>
      <point x="348" y="724"/>
      <point x="365" y="703"/>
      <point x="365" y="658" type="curve" smooth="yes"/>
      <point x="365" y="620"/>
      <point x="354" y="598"/>
    </contour>
    <component base="midringshort" yOffset="-81"/>
  </outline>
</glyph>
<glyph name="qwaa-ethiopic" format="2">
  <advance width="668"/>
  <unicode hex="124B"/>
  <note>
uni124B
</note>
  <anchor x="334" y="718" name="top"/>
  <outline>
    <contour>
      <point x="288" y="154" type="line"/>
      <point x="386" y="154" type="line"/>
      <point x="386" y="647" type="line" smooth="yes"/>
      <point x="386" y="678"/>
      <point x="375" y="707"/>
      <point x="357" y="718" type="curve"/>
      <point x="242" y="709" type="line"/>
      <point x="242" y="669" type="line"/>
      <point x="271" y="669"/>
      <point x="288" y="649"/>
      <point x="288" y="610" type="curve" smooth="yes"/>
    </contour>
    <contour>
      <point x="236" y="129" type="line"/>
      <point x="599" y="129" type="line"/>
      <point x="599" y="179" type="line"/>
      <point x="236" y="179" type="line"/>
    </contour>
    <contour>
      <point x="530" y="-5" type="curve"/>
      <point x="648" y="4" type="line"/>
      <point x="648" y="44" type="line"/>
      <point x="617" y="44"/>
      <point x="599" y="57"/>
      <point x="599" y="111" type="curve" smooth="yes"/>
      <point x="599" y="174" type="line"/>
      <point x="501" y="174" type="line"/>
      <point x="501" y="73" type="line" smooth="yes"/>
      <point x="501" y="35"/>
      <point x="512" y="12"/>
    </contour>
    <component base="midring" xOffset="27" yOffset="25"/>
    <component base="leftsingleflag" xOffset="5" yOffset="-225"/>
  </outline>
</glyph>
<glyph name="qwee-ethiopic" format="2">
  <advance width="625"/>
  <unicode hex="124C"/>
  <note>
uni1244
</note>
  <anchor x="312" y="718" name="top"/>
  <outline>
    <contour>
      <point x="97" y="-105" type="curve" smooth="yes"/>
      <point x="155" y="-105"/>
      <point x="184" y="-69"/>
      <point x="184" y="-23" type="curve" smooth="yes"/>
      <point x="184" y="-14"/>
      <point x="183" y="-7"/>
      <point x="182" y="0" type="curve"/>
      <point x="419" y="0" type="line"/>
      <point x="325" y="50" type="line"/>
      <point x="65" y="50" type="line"/>
      <point x="68" y="41"/>
      <point x="73" y="18"/>
      <point x="73" y="-6" type="curve" smooth="yes"/>
      <point x="73" y="-42"/>
      <point x="60" y="-72"/>
      <point x="39" y="-89" type="curve"/>
      <point x="53" y="-99"/>
      <point x="75" y="-105"/>
    </contour>
    <component base="qee-ethiopic"/>
  </outline>
</glyph>
<glyph name="qha-ethiopic" format="2">
	<advance width="644"/>
	<unicode hex="1250"/>
	<anchor x="322" y="826" name="top"/>
	<note>
		uni1250
	</note>
	<outline>
		<contour>
			<point x="300" y="-5" type="curve"/>
			<point x="418" y="4" type="line"/>
			<point x="418" y="43" type="line"/>
			<point x="387" y="43"/>
			<point x="369" y="56"/>
			<point x="369" y="110" type="curve" smooth="yes"/>
			<point x="369" y="738" type="line"/>
			<point x="271" y="738" type="line"/>
			<point x="271" y="73" type="line" smooth="yes"/>
			<point x="271" y="35"/>
			<point x="282" y="12"/>
		</contour>
		<component base="midring" xOffset="10" yOffset="19"/>
		<component base="bonemiddle" xOffset="25"/>
	</outline>
</glyph>
<glyph name="qhi-ethiopic" format="2">
  <advance width="649"/>
  <unicode hex="1252"/>
  <note>
uni1252
</note>
  <anchor x="324" y="826" name="top"/>
  <outline>
    <contour>
      <point x="300" y="0" type="curve"/>
      <point x="433" y="0" type="line"/>
      <point x="433" y="50" type="line"/>
      <point x="392" y="50"/>
      <point x="374" y="64"/>
      <point x="374" y="123" type="curve" smooth="yes"/>
      <point x="374" y="738" type="line"/>
      <point x="276" y="738" type="line"/>
      <point x="276" y="98" type="line" smooth="yes"/>
      <point x="276" y="50"/>
      <point x="281" y="20"/>
    </contour>
    <component base="midring" xOffset="10" yOffset="19"/>
    <component base="bonemiddle" xOffset="30"/>
    <component base="rightdoubleflag" xOffset="338"/>
  </outline>
</glyph>
<glyph name="qhaa-ethiopic" format="2">
  <advance width="656"/>
  <unicode hex="1253"/>
  <note>
uni1253
</note>
  <anchor x="320" y="826" name="top"/>
  <outline>
    <contour>
      <point x="64" y="-99" type="curve" smooth="yes"/>
      <point x="115" y="-99"/>
      <point x="144" y="-61"/>
      <point x="144" y="-21" type="curve" smooth="yes"/>
      <point x="144" y="-16"/>
      <point x="144" y="-13"/>
      <point x="143" y="-5" type="curve"/>
      <point x="147" y="-5" type="line" smooth="yes"/>
      <point x="297" y="-5"/>
      <point x="384" y="93"/>
      <point x="384" y="243" type="curve" smooth="yes"/>
      <point x="384" y="732" type="line"/>
      <point x="286" y="732" type="line"/>
      <point x="286" y="248" type="line" smooth="yes"/>
      <point x="286" y="111"/>
      <point x="235" y="43"/>
      <point x="94" y="43" type="curve" smooth="yes"/>
      <point x="33" y="43" type="line"/>
      <point x="35" y="31"/>
      <point x="37" y="16"/>
      <point x="37" y="-2" type="curve" smooth="yes"/>
      <point x="37" y="-36"/>
      <point x="28" y="-68"/>
      <point x="15" y="-88" type="curve"/>
      <point x="26" y="-93"/>
      <point x="42" y="-99"/>
    </contour>
    <component base="midring" xOffset="22"/>
    <component base="bonemiddle" xOffset="37"/>
  </outline>
</glyph>
<glyph name="qhee-ethiopic" format="2">
  <advance width="639"/>
  <unicode hex="1254"/>
  <note>
uni1254
</note>
  <anchor x="322" y="826" name="top"/>
  <outline>
    <contour>
      <point x="368" y="0" type="curve"/>
      <point x="465" y="0" type="line" smooth="yes"/>
      <point x="559" y="0"/>
      <point x="612" y="52"/>
      <point x="612" y="115" type="curve" smooth="yes"/>
      <point x="612" y="175"/>
      <point x="569" y="203"/>
      <point x="479" y="203" type="curve" smooth="yes"/>
      <point x="371" y="203" type="line"/>
      <point x="371" y="751" type="line"/>
      <point x="273" y="751" type="line"/>
      <point x="273" y="103" type="line" smooth="yes"/>
      <point x="273" y="41"/>
      <point x="305" y="12"/>
    </contour>
    <contour>
      <point x="436" y="35" type="curve" smooth="yes"/>
      <point x="394" y="35"/>
      <point x="371" y="54"/>
      <point x="371" y="110" type="curve" smooth="yes"/>
      <point x="371" y="167" type="line"/>
      <point x="448" y="167" type="line" smooth="yes"/>
      <point x="495" y="167"/>
      <point x="518" y="151"/>
      <point x="518" y="112" type="curve" smooth="yes"/>
      <point x="518" y="62"/>
      <point x="490" y="35"/>
    </contour>
    <component base="midringshort" xOffset="10" yOffset="52"/>
    <component base="bonemiddle" xOffset="24"/>
  </outline>
</glyph>
<glyph name="qhe-ethiopic" format="2">
  <advance width="702"/>
  <unicode hex="1255"/>
  <note>
uni1255
</note>
  <anchor x="348" y="825" name="top"/>
  <outline>
    <contour>
      <point x="344" y="-5" type="curve"/>
      <point x="467" y="4" type="line"/>
      <point x="467" y="44" type="line"/>
      <point x="427" y="44"/>
      <point x="411" y="63"/>
      <point x="411" y="98" type="curve" smooth="yes"/>
      <point x="411" y="152"/>
      <point x="471" y="470"/>
      <point x="471" y="517" type="curve" smooth="yes"/>
      <point x="471" y="559"/>
      <point x="450" y="588"/>
      <point x="391" y="588" type="curve" smooth="yes"/>
      <point x="315" y="588" type="line"/>
      <point x="315" y="730" type="line"/>
      <point x="217" y="730" type="line"/>
      <point x="217" y="535" type="line"/>
      <point x="314" y="535" type="line" smooth="yes"/>
      <point x="354" y="535"/>
      <point x="372" y="523"/>
      <point x="372" y="484" type="curve" smooth="yes"/>
      <point x="372" y="424"/>
      <point x="312" y="136"/>
      <point x="312" y="70" type="curve" smooth="yes"/>
      <point x="312" y="31"/>
      <point x="324" y="9"/>
    </contour>
    <component base="midringshort" xOffset="78" yOffset="-106"/>
    <component base="bone" yOffset="-5"/>
  </outline>
</glyph>
<glyph name="qho-ethiopic" format="2">
  <advance width="667"/>
  <unicode hex="1256"/>
  <note>
uni1256
</note>
  <anchor x="333" y="825" name="top"/>
  <outline>
    <contour>
      <point x="314" y="-5" type="curve"/>
      <point x="432" y="4" type="line"/>
      <point x="432" y="43" type="line"/>
      <point x="401" y="43"/>
      <point x="383" y="56"/>
      <point x="383" y="110" type="curve" smooth="yes"/>
      <point x="383" y="375" type="line" smooth="yes"/>
      <point x="383" y="405"/>
      <point x="387" y="416"/>
      <point x="407" y="433" type="curve" smooth="yes"/>
      <point x="443" y="464"/>
      <point x="481" y="486"/>
      <point x="481" y="561" type="curve" smooth="yes"/>
      <point x="481" y="647"/>
      <point x="422" y="680"/>
      <point x="335" y="680" type="curve" smooth="yes"/>
      <point x="252" y="680"/>
      <point x="187" y="646"/>
      <point x="187" y="555" type="curve" smooth="yes"/>
      <point x="187" y="472"/>
      <point x="240" y="442"/>
      <point x="306" y="433" type="curve"/>
      <point x="288" y="417"/>
      <point x="285" y="396"/>
      <point x="285" y="373" type="curve" smooth="yes"/>
      <point x="285" y="73" type="line" smooth="yes"/>
      <point x="285" y="35"/>
      <point x="296" y="12"/>
    </contour>
    <contour>
      <point x="346" y="467" type="curve"/>
      <point x="303" y="474"/>
      <point x="276" y="498"/>
      <point x="276" y="556" type="curve" smooth="yes"/>
      <point x="276" y="611"/>
      <point x="303" y="634"/>
      <point x="335" y="634" type="curve" smooth="yes"/>
      <point x="368" y="634"/>
      <point x="392" y="613"/>
      <point x="392" y="560" type="curve" smooth="yes"/>
      <point x="392" y="510"/>
      <point x="374" y="488"/>
    </contour>
    <contour>
      <point x="285" y="653" type="line"/>
      <point x="383" y="653" type="line"/>
      <point x="383" y="734" type="line"/>
      <point x="285" y="734" type="line"/>
    </contour>
    <component base="bonelong" xOffset="15" yOffset="-2"/>
    <component base="midringshort" xOffset="19" yOffset="-138"/>
  </outline>
</glyph>
<glyph name="qhwa-ethiopic" format="2">
  <advance width="808"/>
  <unicode hex="1258"/>
  <note>
uni1258
</note>
  <anchor x="406" y="826" name="top"/>
  <outline>
    <contour>
      <point x="304" y="-5" type="curve"/>
      <point x="422" y="4" type="line"/>
      <point x="422" y="43" type="line"/>
      <point x="391" y="43"/>
      <point x="373" y="56"/>
      <point x="373" y="110" type="curve" smooth="yes"/>
      <point x="373" y="738" type="line"/>
      <point x="275" y="738" type="line"/>
      <point x="275" y="73" type="line" smooth="yes"/>
      <point x="275" y="35"/>
      <point x="286" y="12"/>
    </contour>
    <component base="rightbulbsmall" xOffset="356" yOffset="-158"/>
    <component base="midringshort" xOffset="10" yOffset="64"/>
    <component base="bonemiddle" xOffset="27"/>
  </outline>
</glyph>
<glyph name="qhwaa-ethiopic" format="2">
  <advance width="665"/>
  <unicode hex="125B"/>
  <note>
uni125B
</note>
  <anchor x="332" y="826" name="top"/>
  <outline>
    <contour>
      <point x="286" y="171" type="line"/>
      <point x="384" y="171" type="line"/>
      <point x="384" y="738" type="line"/>
      <point x="286" y="738" type="line"/>
    </contour>
    <contour>
      <point x="225" y="143" type="line"/>
      <point x="576" y="143" type="line"/>
      <point x="576" y="193" type="line"/>
      <point x="225" y="193" type="line"/>
    </contour>
    <contour>
      <point x="507" y="-5" type="curve"/>
      <point x="625" y="4" type="line"/>
      <point x="625" y="43" type="line"/>
      <point x="594" y="43"/>
      <point x="576" y="56"/>
      <point x="576" y="110" type="curve" smooth="yes"/>
      <point x="576" y="193" type="line"/>
      <point x="478" y="193" type="line"/>
      <point x="478" y="73" type="line" smooth="yes"/>
      <point x="478" y="35"/>
      <point x="489" y="12"/>
    </contour>
    <component base="midringshort" xOffset="20" yOffset="49"/>
    <component base="leftsingleflag" xOffset="37" yOffset="-211"/>
    <component base="bonemiddle" xOffset="38"/>
  </outline>
</glyph>
<glyph name="qhwee-ethiopic" format="2">
  <advance width="665"/>
  <unicode hex="125C"/>
  <note>
uni125C
</note>
  <anchor x="332" y="826" name="top"/>
  <outline>
    <contour>
      <point x="266" y="0" type="line"/>
      <point x="404" y="0" type="line"/>
      <point x="390" y="50" type="line"/>
      <point x="266" y="50" type="line"/>
    </contour>
    <component base="qhee-ethiopic" xOffset="11"/>
    <component base="leftsingleflag" xOffset="25" yOffset="-354"/>
  </outline>
</glyph>
<glyph name="ba-ethiopic" format="2">
  <advance width="646"/>
  <unicode hex="1260"/>
  <note>
uni1260
</note>
  <anchor x="343" y="726" name="top"/>
  <outline>
    <contour>
      <point x="354" y="726" type="curve" smooth="yes"/>
      <point x="202" y="726"/>
      <point x="90" y="628"/>
      <point x="90" y="429" type="curve" smooth="yes"/>
      <point x="90" y="94" type="line" smooth="yes"/>
      <point x="90" y="52"/>
      <point x="97" y="16"/>
      <point x="116" y="-4" type="curve"/>
      <point x="249" y="5" type="line"/>
      <point x="249" y="47" type="line"/>
      <point x="208" y="47"/>
      <point x="190" y="61"/>
      <point x="190" y="120" type="curve" smooth="yes"/>
      <point x="190" y="404" type="line" smooth="yes"/>
      <point x="190" y="604"/>
      <point x="245" y="678"/>
      <point x="339" y="678" type="curve" smooth="yes"/>
      <point x="413" y="678"/>
      <point x="439" y="621"/>
      <point x="439" y="506" type="curve" smooth="yes"/>
      <point x="439" y="402"/>
      <point x="437" y="246"/>
      <point x="437" y="94" type="curve" smooth="yes"/>
      <point x="437" y="46"/>
      <point x="444" y="16"/>
      <point x="463" y="-4" type="curve"/>
      <point x="596" y="5" type="line"/>
      <point x="596" y="47" type="line"/>
      <point x="555" y="47"/>
      <point x="537" y="61"/>
      <point x="537" y="120" type="curve" smooth="yes"/>
      <point x="537" y="256"/>
      <point x="540" y="428"/>
      <point x="540" y="499" type="curve" smooth="yes"/>
      <point x="540" y="649"/>
      <point x="492" y="726"/>
    </contour>
  </outline>
</glyph>
<glyph name="bu-ethiopic" format="2">
  <advance width="772"/>
  <unicode hex="1261"/>
  <note>
uni1261
</note>
  <anchor x="432" y="726" name="top"/>
  <outline>
    <contour>
      <point x="116" y="-4" type="curve"/>
      <point x="249" y="5" type="line"/>
      <point x="249" y="47" type="line"/>
      <point x="208" y="47"/>
      <point x="190" y="61"/>
      <point x="190" y="120" type="curve" smooth="yes"/>
      <point x="190" y="404" type="line" smooth="yes"/>
      <point x="190" y="604"/>
      <point x="245" y="678"/>
      <point x="339" y="678" type="curve" smooth="yes"/>
      <point x="413" y="678"/>
      <point x="439" y="621"/>
      <point x="439" y="506" type="curve" smooth="yes"/>
      <point x="439" y="402"/>
      <point x="437" y="246"/>
      <point x="437" y="94" type="curve" smooth="yes"/>
      <point x="437" y="46"/>
      <point x="444" y="16"/>
      <point x="463" y="-4" type="curve"/>
      <point x="596" y="5" type="line"/>
      <point x="596" y="47" type="line"/>
      <point x="555" y="47"/>
      <point x="537" y="61"/>
      <point x="537" y="120" type="curve" smooth="yes"/>
      <point x="537" y="256"/>
      <point x="540" y="428"/>
      <point x="540" y="499" type="curve" smooth="yes"/>
      <point x="540" y="649"/>
      <point x="492" y="726"/>
      <point x="354" y="726" type="curve" smooth="yes"/>
      <point x="202" y="726"/>
      <point x="90" y="628"/>
      <point x="90" y="429" type="curve" smooth="yes"/>
      <point x="90" y="94" type="line" smooth="yes"/>
      <point x="90" y="52"/>
      <point x="97" y="16"/>
    </contour>
    <component base="rightdoubleflag" xOffset="486" yOffset="299"/>
  </outline>
</glyph>
<glyph name="bi-ethiopic" format="2">
  <advance width="788"/>
  <unicode hex="1262"/>
  <note>
uni1262
</note>
  <anchor x="431" y="726" name="top"/>
  <outline>
    <contour>
      <point x="717" y="-67" type="curve" smooth="yes"/>
      <point x="741" y="-67"/>
      <point x="763" y="-59"/>
      <point x="773" y="-51" type="curve"/>
      <point x="756" y="-36"/>
      <point x="742" y="-13"/>
      <point x="742" y="23" type="curve" smooth="yes"/>
      <point x="742" y="57"/>
      <point x="752" y="80"/>
      <point x="773" y="101" type="curve"/>
      <point x="763" y="108"/>
      <point x="741" y="115"/>
      <point x="717" y="115" type="curve" smooth="yes"/>
      <point x="664" y="115"/>
      <point x="638" y="84"/>
      <point x="632" y="50" type="curve"/>
      <point x="596" y="50" type="line" smooth="yes"/>
      <point x="555" y="50"/>
      <point x="537" y="61"/>
      <point x="537" y="120" type="curve" smooth="yes"/>
      <point x="537" y="256"/>
      <point x="540" y="428"/>
      <point x="540" y="499" type="curve" smooth="yes"/>
      <point x="540" y="649"/>
      <point x="492" y="726"/>
      <point x="354" y="726" type="curve" smooth="yes"/>
      <point x="202" y="726"/>
      <point x="90" y="628"/>
      <point x="90" y="429" type="curve" smooth="yes"/>
      <point x="90" y="94" type="line" smooth="yes"/>
      <point x="90" y="52"/>
      <point x="97" y="16"/>
      <point x="116" y="-4" type="curve"/>
      <point x="249" y="5" type="line"/>
      <point x="249" y="47" type="line"/>
      <point x="208" y="47"/>
      <point x="190" y="61"/>
      <point x="190" y="120" type="curve" smooth="yes"/>
      <point x="190" y="404" type="line" smooth="yes"/>
      <point x="190" y="604"/>
      <point x="245" y="678"/>
      <point x="339" y="678" type="curve" smooth="yes"/>
      <point x="413" y="678"/>
      <point x="439" y="621"/>
      <point x="439" y="506" type="curve" smooth="yes"/>
      <point x="439" y="402"/>
      <point x="437" y="246"/>
      <point x="437" y="94" type="curve" smooth="yes"/>
      <point x="437" y="46"/>
      <point x="445" y="19"/>
      <point x="461" y="0" type="curve"/>
      <point x="632" y="0" type="line"/>
      <point x="639" y="-36"/>
      <point x="664" y="-67"/>
    </contour>
  </outline>
</glyph>
<glyph name="baa-ethiopic" format="2">
  <advance width="622"/>
  <unicode hex="1263"/>
  <note>
uni1263
</note>
  <anchor x="319" y="726" name="top"/>
  <outline>
    <contour>
      <point x="439" y="-4" type="curve"/>
      <point x="572" y="5" type="line"/>
      <point x="572" y="47" type="line"/>
      <point x="531" y="47"/>
      <point x="513" y="61"/>
      <point x="513" y="120" type="curve" smooth="yes"/>
      <point x="513" y="256"/>
      <point x="516" y="428"/>
      <point x="516" y="499" type="curve" smooth="yes"/>
      <point x="516" y="649"/>
      <point x="468" y="726"/>
      <point x="330" y="726" type="curve" smooth="yes"/>
      <point x="178" y="726"/>
      <point x="66" y="628"/>
      <point x="66" y="429" type="curve" smooth="yes"/>
      <point x="66" y="337" type="line" smooth="yes"/>
      <point x="66" y="295"/>
      <point x="73" y="259"/>
      <point x="92" y="239" type="curve"/>
      <point x="225" y="248" type="line"/>
      <point x="225" y="290" type="line"/>
      <point x="184" y="290"/>
      <point x="166" y="304"/>
      <point x="166" y="363" type="curve" smooth="yes"/>
      <point x="166" y="404" type="line" smooth="yes"/>
      <point x="166" y="604"/>
      <point x="221" y="678"/>
      <point x="315" y="678" type="curve" smooth="yes"/>
      <point x="389" y="678"/>
      <point x="415" y="621"/>
      <point x="415" y="506" type="curve" smooth="yes"/>
      <point x="415" y="402"/>
      <point x="413" y="246"/>
      <point x="413" y="94" type="curve" smooth="yes"/>
      <point x="413" y="46"/>
      <point x="420" y="16"/>
    </contour>
  </outline>
</glyph>
<glyph name="bee-ethiopic" format="2">
  <advance width="806"/>
  <unicode hex="1264"/>
  <note>
uni1264
</note>
  <anchor x="435" y="726" name="top"/>
  <outline>
    <contour>
      <point x="116" y="-4" type="curve"/>
      <point x="249" y="5" type="line"/>
      <point x="249" y="47" type="line"/>
      <point x="208" y="47"/>
      <point x="190" y="61"/>
      <point x="190" y="120" type="curve" smooth="yes"/>
      <point x="190" y="404" type="line" smooth="yes"/>
      <point x="190" y="604"/>
      <point x="245" y="678"/>
      <point x="339" y="678" type="curve" smooth="yes"/>
      <point x="413" y="678"/>
      <point x="439" y="621"/>
      <point x="439" y="506" type="curve" smooth="yes"/>
      <point x="439" y="407"/>
      <point x="437" y="248"/>
      <point x="437" y="83" type="curve" smooth="yes"/>
      <point x="437" y="35"/>
      <point x="464" y="9"/>
      <point x="507" y="0" type="curve"/>
      <point x="634" y="0" type="line" smooth="yes"/>
      <point x="728" y="0"/>
      <point x="781" y="57"/>
      <point x="781" y="126" type="curve" smooth="yes"/>
      <point x="781" y="191"/>
      <point x="738" y="222"/>
      <point x="648" y="222" type="curve" smooth="yes"/>
      <point x="537" y="222" type="line"/>
      <point x="537" y="290"/>
      <point x="540" y="416"/>
      <point x="540" y="499" type="curve" smooth="yes"/>
      <point x="540" y="649"/>
      <point x="492" y="726"/>
      <point x="354" y="726" type="curve" smooth="yes"/>
      <point x="202" y="726"/>
      <point x="90" y="628"/>
      <point x="90" y="429" type="curve" smooth="yes"/>
      <point x="90" y="94" type="line" smooth="yes"/>
      <point x="90" y="52"/>
      <point x="97" y="16"/>
    </contour>
    <contour>
      <point x="605" y="35" type="curve" smooth="yes"/>
      <point x="561" y="35"/>
      <point x="537" y="47"/>
      <point x="537" y="90" type="curve" smooth="yes"/>
      <point x="537" y="184" type="line"/>
      <point x="617" y="184" type="line" smooth="yes"/>
      <point x="663" y="184"/>
      <point x="687" y="166"/>
      <point x="687" y="122" type="curve" smooth="yes"/>
      <point x="687" y="66"/>
      <point x="659" y="35"/>
    </contour>
  </outline>
</glyph>
<glyph name="bo-ethiopic" format="2">
  <advance width="626"/>
  <unicode hex="1266"/>
  <note>
uni1266
</note>
  <anchor x="343" y="726" name="top"/>
  <outline>
    <contour>
      <point x="116" y="-4" type="curve"/>
      <point x="249" y="5" type="line"/>
      <point x="249" y="47" type="line"/>
      <point x="208" y="47"/>
      <point x="190" y="61"/>
      <point x="190" y="120" type="curve" smooth="yes"/>
      <point x="190" y="404" type="line" smooth="yes"/>
      <point x="190" y="604"/>
      <point x="245" y="678"/>
      <point x="339" y="678" type="curve" smooth="yes"/>
      <point x="413" y="678"/>
      <point x="439" y="621"/>
      <point x="439" y="506" type="curve" smooth="yes"/>
      <point x="439" y="462"/>
      <point x="437" y="391"/>
      <point x="437" y="339" type="curve" smooth="yes"/>
      <point x="437" y="291"/>
      <point x="444" y="261"/>
      <point x="463" y="241" type="curve"/>
      <point x="596" y="250" type="line"/>
      <point x="596" y="292" type="line"/>
      <point x="555" y="292"/>
      <point x="537" y="306"/>
      <point x="537" y="365" type="curve" smooth="yes"/>
      <point x="537" y="401"/>
      <point x="540" y="468"/>
      <point x="540" y="499" type="curve" smooth="yes"/>
      <point x="540" y="649"/>
      <point x="492" y="726"/>
      <point x="354" y="726" type="curve" smooth="yes"/>
      <point x="202" y="726"/>
      <point x="90" y="628"/>
      <point x="90" y="429" type="curve" smooth="yes"/>
      <point x="90" y="94" type="line" smooth="yes"/>
      <point x="90" y="52"/>
      <point x="97" y="16"/>
    </contour>
  </outline>
</glyph>
<glyph name="bwa-ethiopic" format="2">
  <advance width="751"/>
  <unicode hex="1267"/>
  <note>
uni1267
</note>
  <anchor x="375" y="726" name="top"/>
  <outline>
    <contour>
      <point x="428" y="15" type="line"/>
      <point x="529" y="15" type="line"/>
      <point x="529" y="499" type="line" smooth="yes"/>
      <point x="529" y="649"/>
      <point x="482" y="726"/>
      <point x="344" y="726" type="curve" smooth="yes"/>
      <point x="192" y="726"/>
      <point x="80" y="628"/>
      <point x="80" y="429" type="curve" smooth="yes"/>
      <point x="80" y="337" type="line" smooth="yes"/>
      <point x="80" y="295"/>
      <point x="87" y="259"/>
      <point x="106" y="239" type="curve"/>
      <point x="239" y="248" type="line"/>
      <point x="239" y="290" type="line"/>
      <point x="198" y="290"/>
      <point x="180" y="304"/>
      <point x="180" y="363" type="curve" smooth="yes"/>
      <point x="180" y="404" type="line" smooth="yes"/>
      <point x="180" y="604"/>
      <point x="235" y="678"/>
      <point x="329" y="678" type="curve" smooth="yes"/>
      <point x="403" y="678"/>
      <point x="428" y="621"/>
      <point x="428" y="506" type="curve" smooth="yes"/>
    </contour>
    <component base="footlong"/>
  </outline>
</glyph>
<glyph name="vi-ethiopic" format="2">
  <advance width="807"/>
  <unicode hex="126A"/>
  <note>
uni126A
</note>
  <anchor x="441" y="825" name="top"/>
  <outline>
    <contour>
      <point x="116" y="-5" type="curve"/>
      <point x="249" y="4" type="line"/>
      <point x="249" y="46" type="line"/>
      <point x="208" y="46"/>
      <point x="190" y="60"/>
      <point x="190" y="119" type="curve" smooth="yes"/>
      <point x="190" y="299" type="line" smooth="yes"/>
      <point x="190" y="491"/>
      <point x="245" y="565"/>
      <point x="339" y="565" type="curve" smooth="yes"/>
      <point x="413" y="565"/>
      <point x="439" y="508"/>
      <point x="439" y="393" type="curve" smooth="yes"/>
      <point x="439" y="297"/>
      <point x="437" y="190"/>
      <point x="437" y="98" type="curve" smooth="yes"/>
      <point x="437" y="50"/>
      <point x="444" y="20"/>
      <point x="463" y="0" type="curve"/>
      <point x="596" y="0" type="line"/>
      <point x="596" y="50" type="line"/>
      <point x="555" y="50"/>
      <point x="537" y="64"/>
      <point x="537" y="123" type="curve" smooth="yes"/>
      <point x="537" y="199"/>
      <point x="540" y="323"/>
      <point x="540" y="386" type="curve" smooth="yes"/>
      <point x="540" y="536"/>
      <point x="492" y="613"/>
      <point x="354" y="613" type="curve" smooth="yes"/>
      <point x="202" y="613"/>
      <point x="90" y="515"/>
      <point x="90" y="324" type="curve" smooth="yes"/>
      <point x="90" y="93" type="line" smooth="yes"/>
      <point x="90" y="51"/>
      <point x="97" y="15"/>
    </contour>
    <component base="bone" xOffset="75" yOffset="-5"/>
    <component base="rightdoubleflag" xOffset="511"/>
  </outline>
</glyph>
<glyph name="vee-ethiopic" format="2">
  <advance width="806"/>
  <unicode hex="126C"/>
  <note>
uni126C
</note>
  <anchor x="435" y="825" name="top"/>
  <outline>
    <contour>
      <point x="116" y="-5" type="curve"/>
      <point x="249" y="4" type="line"/>
      <point x="249" y="46" type="line"/>
      <point x="208" y="46"/>
      <point x="190" y="60"/>
      <point x="190" y="119" type="curve" smooth="yes"/>
      <point x="190" y="299" type="line" smooth="yes"/>
      <point x="190" y="491"/>
      <point x="245" y="565"/>
      <point x="339" y="565" type="curve" smooth="yes"/>
      <point x="413" y="565"/>
      <point x="439" y="508"/>
      <point x="439" y="393" type="curve" smooth="yes"/>
      <point x="439" y="347"/>
      <point x="437" y="199"/>
      <point x="437" y="83" type="curve" smooth="yes"/>
      <point x="437" y="35"/>
      <point x="464" y="9"/>
      <point x="507" y="0" type="curve"/>
      <point x="634" y="0" type="line" smooth="yes"/>
      <point x="728" y="0"/>
      <point x="781" y="57"/>
      <point x="781" y="126" type="curve" smooth="yes"/>
      <point x="781" y="191"/>
      <point x="738" y="222"/>
      <point x="648" y="222" type="curve" smooth="yes"/>
      <point x="537" y="222" type="line"/>
      <point x="537" y="258"/>
      <point x="540" y="347"/>
      <point x="540" y="386" type="curve" smooth="yes"/>
      <point x="540" y="536"/>
      <point x="492" y="613"/>
      <point x="354" y="613" type="curve" smooth="yes"/>
      <point x="202" y="613"/>
      <point x="90" y="515"/>
      <point x="90" y="324" type="curve" smooth="yes"/>
      <point x="90" y="93" type="line" smooth="yes"/>
      <point x="90" y="51"/>
      <point x="97" y="15"/>
    </contour>
    <contour>
      <point x="605" y="35" type="curve" smooth="yes"/>
      <point x="561" y="35"/>
      <point x="537" y="47"/>
      <point x="537" y="90" type="curve" smooth="yes"/>
      <point x="537" y="184" type="line"/>
      <point x="617" y="184" type="line" smooth="yes"/>
      <point x="663" y="184"/>
      <point x="687" y="166"/>
      <point x="687" y="122" type="curve" smooth="yes"/>
      <point x="687" y="66"/>
      <point x="659" y="35"/>
    </contour>
    <component base="bone" xOffset="80" yOffset="-5"/>
  </outline>
</glyph>
<glyph name="vwa-ethiopic" format="2">
  <advance width="751"/>
  <unicode hex="126F"/>
  <note>
uni126F
</note>
  <anchor x="375" y="826" name="top"/>
  <outline>
    <contour>
      <point x="432" y="24" type="curve"/>
      <point x="532" y="24" type="line"/>
      <point x="532" y="113"/>
      <point x="535" y="323"/>
      <point x="535" y="396" type="curve" smooth="yes"/>
      <point x="535" y="536"/>
      <point x="487" y="613"/>
      <point x="344" y="613" type="curve" smooth="yes"/>
      <point x="187" y="613"/>
      <point x="85" y="514"/>
      <point x="85" y="373" type="curve" smooth="yes"/>
      <point x="85" y="327" type="line" smooth="yes"/>
      <point x="85" y="285"/>
      <point x="92" y="249"/>
      <point x="111" y="229" type="curve"/>
      <point x="244" y="238" type="line"/>
      <point x="244" y="280" type="line"/>
      <point x="203" y="280"/>
      <point x="185" y="294"/>
      <point x="185" y="343" type="curve" smooth="yes"/>
      <point x="185" y="362" type="line" smooth="yes"/>
      <point x="185" y="494"/>
      <point x="233" y="565"/>
      <point x="329" y="565" type="curve" smooth="yes"/>
      <point x="408" y="565"/>
      <point x="434" y="508"/>
      <point x="434" y="399" type="curve" smooth="yes"/>
      <point x="434" y="297"/>
      <point x="432" y="103"/>
    </contour>
    <component base="footlong"/>
    <component base="bonemiddle" xOffset="44"/>
  </outline>
</glyph>
<glyph name="ti-ethiopic" format="2">
  <advance width="651"/>
  <unicode hex="1272"/>
  <note>
uni1272
</note>
  <anchor x="320" y="718" name="top"/>
  <outline>
    <contour>
      <point x="545" y="-67" type="curve" smooth="yes"/>
      <point x="569" y="-67"/>
      <point x="591" y="-59"/>
      <point x="601" y="-51" type="curve"/>
      <point x="584" y="-36"/>
      <point x="570" y="-13"/>
      <point x="570" y="23" type="curve" smooth="yes"/>
      <point x="570" y="57"/>
      <point x="580" y="80"/>
      <point x="601" y="101" type="curve"/>
      <point x="591" y="108"/>
      <point x="569" y="115"/>
      <point x="545" y="115" type="curve" smooth="yes"/>
      <point x="492" y="115"/>
      <point x="466" y="84"/>
      <point x="460" y="50" type="curve"/>
      <point x="422" y="50" type="line" smooth="yes"/>
      <point x="391" y="50"/>
      <point x="373" y="63"/>
      <point x="373" y="117" type="curve" smooth="yes"/>
      <point x="373" y="647" type="line" smooth="yes"/>
      <point x="373" y="678"/>
      <point x="362" y="707"/>
      <point x="344" y="718" type="curve"/>
      <point x="229" y="709" type="line"/>
      <point x="229" y="669" type="line"/>
      <point x="258" y="669"/>
      <point x="275" y="649"/>
      <point x="275" y="610" type="curve" smooth="yes"/>
      <point x="275" y="78" type="line" smooth="yes"/>
      <point x="275" y="40"/>
      <point x="286" y="17"/>
      <point x="304" y="0" type="curve"/>
      <point x="460" y="0" type="line"/>
      <point x="467" y="-36"/>
      <point x="492" y="-67"/>
    </contour>
    <component base="footmiddle" xOffset="-10" yOffset="486"/>
  </outline>
</glyph>
<glyph name="tee-ethiopic" format="2">
  <advance width="661"/>
  <unicode hex="1274"/>
  <note>
uni1274
</note>
  <anchor x="320" y="718" name="top"/>
  <outline>
    <contour>
      <point x="374" y="0" type="curve"/>
      <point x="471" y="0" type="line" smooth="yes"/>
      <point x="565" y="0"/>
      <point x="618" y="52"/>
      <point x="618" y="115" type="curve" smooth="yes"/>
      <point x="618" y="175"/>
      <point x="575" y="203"/>
      <point x="485" y="203" type="curve" smooth="yes"/>
      <point x="377" y="203" type="line"/>
      <point x="377" y="647" type="line" smooth="yes"/>
      <point x="377" y="678"/>
      <point x="366" y="707"/>
      <point x="348" y="718" type="curve"/>
      <point x="233" y="709" type="line"/>
      <point x="233" y="669" type="line"/>
      <point x="262" y="669"/>
      <point x="279" y="649"/>
      <point x="279" y="610" type="curve" smooth="yes"/>
      <point x="279" y="103" type="line" smooth="yes"/>
      <point x="279" y="41"/>
      <point x="311" y="12"/>
    </contour>
    <contour>
      <point x="442" y="35" type="curve" smooth="yes"/>
      <point x="400" y="35"/>
      <point x="377" y="54"/>
      <point x="377" y="110" type="curve" smooth="yes"/>
      <point x="377" y="167" type="line"/>
      <point x="454" y="167" type="line" smooth="yes"/>
      <point x="501" y="167"/>
      <point x="524" y="151"/>
      <point x="524" y="112" type="curve" smooth="yes"/>
      <point x="524" y="62"/>
      <point x="496" y="35"/>
    </contour>
    <component base="footmiddle" xOffset="-10" yOffset="486"/>
  </outline>
</glyph>
<glyph name="te-ethiopic" format="2">
  <advance width="651"/>
  <unicode hex="1275"/>
  <note>
uni1275
</note>
  <anchor x="330" y="819" name="top"/>
  <outline>
    <contour>
      <point x="313" y="-5" type="curve"/>
      <point x="431" y="4" type="line"/>
      <point x="431" y="44" type="line"/>
      <point x="400" y="44"/>
      <point x="382" y="57"/>
      <point x="382" y="111" type="curve"/>
      <point x="382" y="649" type="line" smooth="yes"/>
      <point x="382" y="676"/>
      <point x="371" y="703"/>
      <point x="353" y="714" type="curve"/>
      <point x="183" y="714" type="line"/>
      <point x="184" y="721"/>
      <point x="185" y="728"/>
      <point x="185" y="737" type="curve" smooth="yes"/>
      <point x="185" y="783"/>
      <point x="156" y="819"/>
      <point x="98" y="819" type="curve" smooth="yes"/>
      <point x="76" y="819"/>
      <point x="54" y="813"/>
      <point x="40" y="803" type="curve"/>
      <point x="61" y="786"/>
      <point x="74" y="756"/>
      <point x="74" y="720" type="curve" smooth="yes"/>
      <point x="74" y="696"/>
      <point x="69" y="673"/>
      <point x="66" y="664" type="curve"/>
      <point x="238" y="664" type="line" smooth="yes"/>
      <point x="272" y="664"/>
      <point x="284" y="649"/>
      <point x="284" y="610" type="curve" smooth="yes"/>
      <point x="284" y="73" type="line"/>
      <point x="284" y="35"/>
      <point x="295" y="12"/>
    </contour>
    <component base="footmiddle" yOffset="406"/>
  </outline>
</glyph>
<glyph name="twa-ethiopic" format="2">
  <advance width="684"/>
  <unicode hex="1277"/>
  <note>
uni1277
</note>
  <anchor x="342" y="718" name="top"/>
  <outline>
    <contour>
      <point x="325" y="3" type="curve"/>
      <point x="443" y="10" type="line"/>
      <point x="443" y="50" type="line"/>
      <point x="412" y="50"/>
      <point x="394" y="63"/>
      <point x="394" y="111" type="curve" smooth="yes"/>
      <point x="394" y="647" type="line" smooth="yes"/>
      <point x="394" y="678"/>
      <point x="383" y="707"/>
      <point x="365" y="718" type="curve"/>
      <point x="250" y="709" type="line"/>
      <point x="250" y="669" type="line"/>
      <point x="279" y="669"/>
      <point x="296" y="649"/>
      <point x="296" y="610" type="curve" smooth="yes"/>
      <point x="296" y="79" type="line" smooth="yes"/>
      <point x="296" y="41"/>
      <point x="307" y="20"/>
    </contour>
    <component base="footmiddle" xOffset="10" yOffset="464"/>
    <component base="footmiddle" xOffset="13"/>
  </outline>
</glyph>
<glyph name="ca-ethiopic" format="2">
	<advance width="681"/>
	<unicode hex="1278"/>
	<anchor x="340" y="826" name="top"/>
	<note>
		uni1278
	</note>
	<outline>
		<contour>
			<point x="320" y="-5" type="curve"/>
			<point x="438" y="4" type="line"/>
			<point x="438" y="44" type="line"/>
			<point x="407" y="44"/>
			<point x="389" y="57"/>
			<point x="389" y="111" type="curve" smooth="yes"/>
			<point x="389" y="732" type="line"/>
			<point x="291" y="732" type="line"/>
			<point x="291" y="73" type="line" smooth="yes"/>
			<point x="291" y="35"/>
			<point x="302" y="12"/>
		</contour>
		<component base="bonemiddle" xOffset="44"/>
		<component base="footmiddle" xOffset="10" yOffset="471"/>
	</outline>
</glyph>
<glyph name="ci-ethiopic" format="2">
  <advance width="701"/>
  <unicode hex="127A"/>
  <note>
uni127A
</note>
  <anchor x="350" y="826" name="top"/>
  <outline>
    <contour>
      <point x="583" y="-67" type="curve" smooth="yes"/>
      <point x="607" y="-67"/>
      <point x="629" y="-59"/>
      <point x="639" y="-51" type="curve"/>
      <point x="622" y="-36"/>
      <point x="608" y="-13"/>
      <point x="608" y="23" type="curve" smooth="yes"/>
      <point x="608" y="57"/>
      <point x="618" y="80"/>
      <point x="639" y="101" type="curve"/>
      <point x="629" y="108"/>
      <point x="607" y="115"/>
      <point x="583" y="115" type="curve" smooth="yes"/>
      <point x="530" y="115"/>
      <point x="504" y="84"/>
      <point x="498" y="50" type="curve"/>
      <point x="451" y="50" type="line" smooth="yes"/>
      <point x="420" y="50"/>
      <point x="402" y="63"/>
      <point x="402" y="113" type="curve" smooth="yes"/>
      <point x="402" y="719" type="line"/>
      <point x="304" y="719" type="line"/>
      <point x="304" y="78" type="line" smooth="yes"/>
      <point x="304" y="40"/>
      <point x="315" y="17"/>
      <point x="333" y="0" type="curve"/>
      <point x="498" y="0" type="line"/>
      <point x="505" y="-36"/>
      <point x="530" y="-67"/>
    </contour>
    <component base="bonemiddle" xOffset="56"/>
    <component base="footmiddle" xOffset="20" yOffset="471"/>
  </outline>
</glyph>
<glyph name="caa-ethiopic" format="2">
  <advance width="682"/>
  <unicode hex="127B"/>
  <note>
uni127B
</note>
  <anchor x="351" y="826" name="top"/>
  <outline>
    <contour>
      <point x="84" y="-99" type="curve" smooth="yes"/>
      <point x="135" y="-99"/>
      <point x="164" y="-61"/>
      <point x="164" y="-21" type="curve" smooth="yes"/>
      <point x="164" y="-16"/>
      <point x="164" y="-13"/>
      <point x="163" y="-5" type="curve"/>
      <point x="167" y="-5" type="line" smooth="yes"/>
      <point x="317" y="-5"/>
      <point x="404" y="93"/>
      <point x="404" y="243" type="curve" smooth="yes"/>
      <point x="404" y="731" type="line"/>
      <point x="306" y="731" type="line"/>
      <point x="306" y="248" type="line" smooth="yes"/>
      <point x="306" y="111"/>
      <point x="255" y="43"/>
      <point x="114" y="43" type="curve" smooth="yes"/>
      <point x="53" y="43" type="line"/>
      <point x="55" y="31"/>
      <point x="57" y="16"/>
      <point x="57" y="-2" type="curve" smooth="yes"/>
      <point x="57" y="-36"/>
      <point x="48" y="-68"/>
      <point x="35" y="-88" type="curve"/>
      <point x="46" y="-93"/>
      <point x="62" y="-99"/>
    </contour>
    <component base="footmiddle" xOffset="21" yOffset="462"/>
    <component base="bonemiddle" xOffset="60"/>
  </outline>
</glyph>
<glyph name="cee-ethiopic" format="2">
  <advance width="711"/>
  <unicode hex="127C"/>
  <note>
uni127C
</note>
  <anchor x="350" y="826" name="top"/>
  <outline>
    <contour>
      <point x="403" y="0" type="curve"/>
      <point x="500" y="0" type="line" smooth="yes"/>
      <point x="594" y="0"/>
      <point x="647" y="52"/>
      <point x="647" y="115" type="curve" smooth="yes"/>
      <point x="647" y="175"/>
      <point x="604" y="203"/>
      <point x="514" y="203" type="curve" smooth="yes"/>
      <point x="406" y="203" type="line"/>
      <point x="406" y="740" type="line"/>
      <point x="308" y="740" type="line"/>
      <point x="308" y="103" type="line" smooth="yes"/>
      <point x="308" y="41"/>
      <point x="340" y="12"/>
    </contour>
    <contour>
      <point x="471" y="35" type="curve" smooth="yes"/>
      <point x="429" y="35"/>
      <point x="406" y="54"/>
      <point x="406" y="110" type="curve" smooth="yes"/>
      <point x="406" y="167" type="line"/>
      <point x="483" y="167" type="line" smooth="yes"/>
      <point x="530" y="167"/>
      <point x="553" y="151"/>
      <point x="553" y="112" type="curve" smooth="yes"/>
      <point x="553" y="62"/>
      <point x="525" y="35"/>
    </contour>
    <component base="bonemiddle" xOffset="62"/>
    <component base="footmiddle" xOffset="20" yOffset="468"/>
  </outline>
</glyph>
<glyph name="ce-ethiopic" format="2">
  <advance width="722"/>
  <unicode hex="127D"/>
  <note>
uni127D
</note>
  <anchor x="345" y="826" name="top"/>
  <outline>
    <contour>
      <point x="341" y="-5" type="curve"/>
      <point x="464" y="4" type="line"/>
      <point x="464" y="44" type="line"/>
      <point x="424" y="44"/>
      <point x="408" y="63"/>
      <point x="408" y="98" type="curve" smooth="yes"/>
      <point x="408" y="152"/>
      <point x="468" y="438"/>
      <point x="468" y="485" type="curve" smooth="yes"/>
      <point x="468" y="527"/>
      <point x="447" y="556"/>
      <point x="388" y="556" type="curve" smooth="yes"/>
      <point x="312" y="556" type="line"/>
      <point x="312" y="760" type="line"/>
      <point x="214" y="760" type="line"/>
      <point x="214" y="503" type="line"/>
      <point x="311" y="503" type="line" smooth="yes"/>
      <point x="351" y="503"/>
      <point x="369" y="491"/>
      <point x="369" y="452" type="curve" smooth="yes"/>
      <point x="369" y="392"/>
      <point x="309" y="136"/>
      <point x="309" y="70" type="curve" smooth="yes"/>
      <point x="309" y="31"/>
      <point x="321" y="9"/>
    </contour>
    <component base="footmiddle" xOffset="61" yOffset="340"/>
    <component base="bone.alt" yOffset="-5"/>
  </outline>
</glyph>
<glyph name="co-ethiopic" format="2">
	<advance width="673"/>
	<unicode hex="127E"/>
	<anchor x="336" y="881" name="top"/>
	<note>
		uni127E
	</note>
	<outline>
		<contour>
			<point x="266" y="726" type="line"/>
			<point x="406" y="726" type="line"/>
			<point x="406" y="776" type="line"/>
			<point x="266" y="776" type="line"/>
		</contour>
		<contour>
			<point x="582" y="881" type="curve" smooth="yes"/>
			<point x="524" y="881"/>
			<point x="495" y="845"/>
			<point x="495" y="799" type="curve" smooth="yes"/>
			<point x="495" y="790"/>
			<point x="496" y="783"/>
			<point x="497" y="776" type="curve"/>
			<point x="354" y="776" type="line"/>
			<point x="354" y="726" type="line"/>
			<point x="614" y="726" type="line"/>
			<point x="611" y="735"/>
			<point x="606" y="758"/>
			<point x="606" y="782" type="curve" smooth="yes"/>
			<point x="606" y="818"/>
			<point x="619" y="848"/>
			<point x="640" y="865" type="curve"/>
			<point x="626" y="875"/>
			<point x="604" y="881"/>
		</contour>
		<component base="to-ethiopic" xOffset="12"/>
		<component base="leftdoubleflag" yOffset="726"/>
	</outline>
</glyph>
<glyph name="cwa-ethiopic" format="2">
  <advance width="691"/>
  <unicode hex="127F"/>
  <note>
uni127F
</note>
  <anchor x="345" y="826" name="top"/>
  <outline>
    <contour>
      <point x="326" y="5" type="curve"/>
      <point x="444" y="10" type="line"/>
      <point x="444" y="50" type="line"/>
      <point x="413" y="50"/>
      <point x="395" y="63"/>
      <point x="395" y="117" type="curve" smooth="yes"/>
      <point x="395" y="733" type="line"/>
      <point x="297" y="733" type="line"/>
      <point x="297" y="73" type="line" smooth="yes"/>
      <point x="297" y="35"/>
      <point x="308" y="22"/>
    </contour>
    <component base="bonemiddle" xOffset="48"/>
    <component base="footmiddle" xOffset="15" yOffset="461"/>
    <component base="footmiddle" xOffset="15"/>
  </outline>
</glyph>
<glyph name="xaa-ethiopic" format="2">
  <advance width="568"/>
  <unicode hex="1283"/>
  <note>
uni1283
</note>
  <anchor x="241" y="718" name="top"/>
  <outline>
    <contour>
      <point x="137" y="-99" type="curve" smooth="yes"/>
      <point x="188" y="-99"/>
      <point x="217" y="-61"/>
      <point x="217" y="-21" type="curve" smooth="yes"/>
      <point x="217" y="-16"/>
      <point x="217" y="-13"/>
      <point x="216" y="-5" type="curve"/>
      <point x="220" y="-5" type="line" smooth="yes"/>
      <point x="370" y="-5"/>
      <point x="478" y="93"/>
      <point x="478" y="273" type="curve" smooth="yes"/>
      <point x="478" y="460" type="line" smooth="yes"/>
      <point x="478" y="502"/>
      <point x="457" y="531"/>
      <point x="398" y="531" type="curve" smooth="yes"/>
      <point x="322" y="531" type="line"/>
      <point x="322" y="635" type="line" smooth="yes"/>
      <point x="322" y="676"/>
      <point x="315" y="702"/>
      <point x="293" y="718" type="curve"/>
      <point x="178" y="709" type="line"/>
      <point x="178" y="669" type="line"/>
      <point x="209" y="669"/>
      <point x="224" y="652"/>
      <point x="224" y="607" type="curve" smooth="yes"/>
      <point x="224" y="478" type="line"/>
      <point x="321" y="478" type="line" smooth="yes"/>
      <point x="361" y="478"/>
      <point x="379" y="466"/>
      <point x="379" y="427" type="curve" smooth="yes"/>
      <point x="379" y="278" type="line" smooth="yes"/>
      <point x="379" y="111"/>
      <point x="308" y="43"/>
      <point x="167" y="43" type="curve" smooth="yes"/>
      <point x="106" y="43" type="line"/>
      <point x="108" y="31"/>
      <point x="110" y="16"/>
      <point x="110" y="-2" type="curve" smooth="yes"/>
      <point x="110" y="-36"/>
      <point x="101" y="-68"/>
      <point x="88" y="-88" type="curve"/>
      <point x="99" y="-93"/>
      <point x="115" y="-99"/>
    </contour>
    <component base="leftsingleflag" xOffset="-10" yOffset="181"/>
  </outline>
</glyph>
<glyph name="xe-ethiopic" format="2">
  <advance width="554"/>
  <unicode hex="1285"/>
  <note>
uni1285
</note>
  <anchor x="253" y="718" name="top"/>
  <outline>
    <contour>
      <point x="52" y="305" type="curve"/>
      <point x="173" y="314" type="line"/>
      <point x="173" y="354" type="line"/>
      <point x="139" y="354"/>
      <point x="120" y="370"/>
      <point x="120" y="413" type="curve" smooth="yes"/>
      <point x="120" y="506"/>
      <point x="175" y="560"/>
      <point x="247" y="574" type="curve"/>
      <point x="247" y="622" type="line"/>
      <point x="126" y="602"/>
      <point x="28" y="524"/>
      <point x="28" y="390" type="curve" smooth="yes"/>
      <point x="28" y="353"/>
      <point x="40" y="323"/>
    </contour>
    <component base="na-ethiopic" xOffset="159"/>
  </outline>
</glyph>
<glyph name="xwaa-ethiopic" format="2">
  <advance width="668"/>
  <unicode hex="128B"/>
  <note>
uni128B
</note>
  <anchor x="329" y="718" name="top"/>
  <outline>
    <contour>
      <point x="387" y="148" type="curve"/>
      <point x="510" y="157" type="line"/>
      <point x="510" y="197" type="line"/>
      <point x="470" y="197"/>
      <point x="454" y="216"/>
      <point x="454" y="251" type="curve" smooth="yes"/>
      <point x="454" y="283"/>
      <point x="492" y="432"/>
      <point x="492" y="460" type="curve" smooth="yes"/>
      <point x="492" y="502"/>
      <point x="471" y="531"/>
      <point x="412" y="531" type="curve" smooth="yes"/>
      <point x="336" y="531" type="line"/>
      <point x="336" y="635" type="line" smooth="yes"/>
      <point x="336" y="676"/>
      <point x="329" y="702"/>
      <point x="307" y="718" type="curve"/>
      <point x="192" y="709" type="line"/>
      <point x="192" y="669" type="line"/>
      <point x="223" y="669"/>
      <point x="238" y="652"/>
      <point x="238" y="607" type="curve" smooth="yes"/>
      <point x="238" y="478" type="line"/>
      <point x="335" y="478" type="line" smooth="yes"/>
      <point x="375" y="478"/>
      <point x="393" y="466"/>
      <point x="393" y="427" type="curve" smooth="yes"/>
      <point x="393" y="392"/>
      <point x="355" y="261"/>
      <point x="355" y="223" type="curve" smooth="yes"/>
      <point x="355" y="184"/>
      <point x="367" y="162"/>
    </contour>
    <contour>
      <point x="217" y="147" type="line"/>
      <point x="607" y="147" type="line"/>
      <point x="607" y="197" type="line"/>
      <point x="217" y="197" type="line"/>
    </contour>
    <contour>
      <point x="538" y="-5" type="curve"/>
      <point x="653" y="4" type="line"/>
      <point x="653" y="44" type="line"/>
      <point x="622" y="44"/>
      <point x="607" y="61"/>
      <point x="607" y="106" type="curve" smooth="yes"/>
      <point x="607" y="197" type="line"/>
      <point x="509" y="197" type="line"/>
      <point x="509" y="78" type="line" smooth="yes"/>
      <point x="509" y="37"/>
      <point x="516" y="11"/>
    </contour>
    <component base="leftsingleflag" xOffset="29" yOffset="-207"/>
    <component base="leftsingleflag" xOffset="-10" yOffset="214"/>
  </outline>
</glyph>
<glyph name="xwee-ethiopic" format="2">
  <advance width="666"/>
  <unicode hex="128C"/>
  <note>
uni128C
</note>
  <anchor x="323" y="718" name="top"/>
  <outline>
    <contour>
      <point x="314" y="0" type="line"/>
      <point x="440" y="0" type="line"/>
      <point x="400" y="50" type="line"/>
      <point x="314" y="50" type="line"/>
    </contour>
    <component base="xee-ethiopic"/>
    <component base="leftsingleflag" xOffset="75" yOffset="-354"/>
  </outline>
</glyph>
<glyph name="na-ethiopic" format="2">
  <advance width="395"/>
  <unicode hex="1290"/>
  <note>
uni1290
</note>
  <anchor x="170" y="718" name="top"/>
  <outline>
    <contour>
      <point x="193" y="-5" type="curve"/>
      <point x="316" y="4" type="line"/>
      <point x="316" y="44" type="line"/>
      <point x="276" y="44"/>
      <point x="260" y="63"/>
      <point x="260" y="98" type="curve" smooth="yes"/>
      <point x="260" y="152"/>
      <point x="320" y="413"/>
      <point x="320" y="460" type="curve" smooth="yes"/>
      <point x="320" y="502"/>
      <point x="299" y="531"/>
      <point x="240" y="531" type="curve" smooth="yes"/>
      <point x="164" y="531" type="line"/>
      <point x="164" y="635" type="line" smooth="yes"/>
      <point x="164" y="676"/>
      <point x="157" y="702"/>
      <point x="135" y="718" type="curve"/>
      <point x="20" y="709" type="line"/>
      <point x="20" y="669" type="line"/>
      <point x="51" y="669"/>
      <point x="66" y="652"/>
      <point x="66" y="607" type="curve" smooth="yes"/>
      <point x="66" y="478" type="line"/>
      <point x="163" y="478" type="line" smooth="yes"/>
      <point x="203" y="478"/>
      <point x="221" y="466"/>
      <point x="221" y="427" type="curve" smooth="yes"/>
      <point x="221" y="367"/>
      <point x="161" y="136"/>
      <point x="161" y="70" type="curve" smooth="yes"/>
      <point x="161" y="31"/>
      <point x="173" y="9"/>
    </contour>
  </outline>
</glyph>
<glyph name="ni-ethiopic" format="2">
  <advance width="548"/>
  <unicode hex="1292"/>
  <note>
uni1292
</note>
  <anchor x="276" y="718" name="top"/>
  <outline>
    <contour>
      <point x="191" y="0" type="curve"/>
      <point x="316" y="0" type="line"/>
      <point x="316" y="50" type="line"/>
      <point x="276" y="50"/>
      <point x="260" y="69"/>
      <point x="260" y="98" type="curve" smooth="yes"/>
      <point x="260" y="152"/>
      <point x="320" y="413"/>
      <point x="320" y="460" type="curve" smooth="yes"/>
      <point x="320" y="502"/>
      <point x="299" y="531"/>
      <point x="240" y="531" type="curve" smooth="yes"/>
      <point x="164" y="531" type="line"/>
      <point x="164" y="635" type="line" smooth="yes"/>
      <point x="164" y="676"/>
      <point x="157" y="702"/>
      <point x="135" y="718" type="curve"/>
      <point x="20" y="709" type="line"/>
      <point x="20" y="669" type="line"/>
      <point x="51" y="669"/>
      <point x="66" y="652"/>
      <point x="66" y="607" type="curve" smooth="yes"/>
      <point x="66" y="478" type="line"/>
      <point x="163" y="478" type="line" smooth="yes"/>
      <point x="203" y="478"/>
      <point x="221" y="466"/>
      <point x="221" y="427" type="curve" smooth="yes"/>
      <point x="221" y="367"/>
      <point x="161" y="136"/>
      <point x="161" y="70" type="curve" smooth="yes"/>
      <point x="161" y="31"/>
      <point x="175" y="14"/>
    </contour>
    <component base="rightdoubleflag" xOffset="252"/>
  </outline>
</glyph>
<glyph name="naa-ethiopic" format="2">
  <advance width="509"/>
  <unicode hex="1293"/>
  <note>
uni1293
</note>
  <anchor x="262" y="714" name="top"/>
  <outline>
    <contour>
      <point x="298" y="-5" type="curve"/>
      <point x="416" y="4" type="line"/>
      <point x="416" y="43" type="line"/>
      <point x="385" y="43"/>
      <point x="367" y="56"/>
      <point x="367" y="110" type="curve" smooth="yes"/>
      <point x="367" y="201" type="line" smooth="yes"/>
      <point x="367" y="285"/>
      <point x="321" y="331"/>
      <point x="225" y="331" type="curve" smooth="yes"/>
      <point x="128" y="331" type="line"/>
      <point x="131" y="578"/>
      <point x="233" y="664"/>
      <point x="352" y="664" type="curve" smooth="yes"/>
      <point x="366" y="664" type="line"/>
      <point x="365" y="656"/>
      <point x="365" y="653"/>
      <point x="365" y="648" type="curve" smooth="yes"/>
      <point x="365" y="608"/>
      <point x="394" y="572"/>
      <point x="445" y="572" type="curve" smooth="yes"/>
      <point x="467" y="572"/>
      <point x="483" y="578"/>
      <point x="494" y="583" type="curve"/>
      <point x="481" y="603"/>
      <point x="472" y="636"/>
      <point x="472" y="670" type="curve" smooth="yes"/>
      <point x="472" y="688"/>
      <point x="474" y="702"/>
      <point x="476" y="714" type="curve"/>
      <point x="350" y="714" type="line" smooth="yes"/>
      <point x="176" y="714"/>
      <point x="30" y="604"/>
      <point x="30" y="313" type="curve" smooth="yes"/>
      <point x="30" y="284" type="line"/>
      <point x="172" y="284" type="line" smooth="yes"/>
      <point x="238" y="284"/>
      <point x="269" y="250"/>
      <point x="269" y="184" type="curve" smooth="yes"/>
      <point x="269" y="73" type="line" smooth="yes"/>
      <point x="269" y="35"/>
      <point x="280" y="12"/>
    </contour>
  </outline>
</glyph>
<glyph name="nee-ethiopic" format="2">
  <advance width="494"/>
  <unicode hex="1294"/>
  <note>
uni1294
</note>
  <anchor x="244" y="718" name="top"/>
  <outline>
    <contour>
      <point x="225" y="0" type="curve"/>
      <point x="322" y="0" type="line" smooth="yes"/>
      <point x="416" y="0"/>
      <point x="469" y="57"/>
      <point x="469" y="126" type="curve" smooth="yes"/>
      <point x="469" y="191"/>
      <point x="426" y="222"/>
      <point x="336" y="222" type="curve" smooth="yes"/>
      <point x="247" y="222" type="line"/>
      <point x="273" y="283" type="line" smooth="yes"/>
      <point x="305" y="358"/>
      <point x="321" y="407"/>
      <point x="321" y="453" type="curve" smooth="yes"/>
      <point x="321" y="495"/>
      <point x="298" y="531"/>
      <point x="229" y="531" type="curve" smooth="yes"/>
      <point x="164" y="531" type="line"/>
      <point x="164" y="635" type="line" smooth="yes"/>
      <point x="164" y="676"/>
      <point x="157" y="702"/>
      <point x="135" y="718" type="curve"/>
      <point x="20" y="709" type="line"/>
      <point x="20" y="669" type="line"/>
      <point x="51" y="669"/>
      <point x="66" y="652"/>
      <point x="66" y="607" type="curve" smooth="yes"/>
      <point x="66" y="478" type="line"/>
      <point x="163" y="478" type="line" smooth="yes"/>
      <point x="203" y="478"/>
      <point x="223" y="466"/>
      <point x="223" y="433" type="curve" smooth="yes"/>
      <point x="223" y="400"/>
      <point x="207" y="361"/>
      <point x="191" y="324" type="curve" smooth="yes"/>
      <point x="171" y="277" type="line" smooth="yes"/>
      <point x="148" y="222"/>
      <point x="128" y="171"/>
      <point x="128" y="121" type="curve" smooth="yes"/>
      <point x="128" y="52"/>
      <point x="162" y="10"/>
    </contour>
    <contour>
      <point x="293" y="35" type="curve" smooth="yes"/>
      <point x="249" y="35"/>
      <point x="222" y="57"/>
      <point x="222" y="116" type="curve" smooth="yes"/>
      <point x="222" y="141"/>
      <point x="228" y="165"/>
      <point x="234" y="184" type="curve"/>
      <point x="305" y="184" type="line" smooth="yes"/>
      <point x="351" y="184"/>
      <point x="375" y="166"/>
      <point x="375" y="122" type="curve" smooth="yes"/>
      <point x="375" y="66"/>
      <point x="347" y="35"/>
    </contour>
  </outline>
</glyph>
<glyph name="ne-ethiopic" format="2">
  <advance width="561"/>
  <unicode hex="1295"/>
  <note>
uni1295
</note>
  <anchor x="250" y="714" name="top"/>
  <outline>
    <contour>
      <point x="359" y="-5" type="curve"/>
      <point x="482" y="4" type="line"/>
      <point x="482" y="44" type="line"/>
      <point x="442" y="44"/>
      <point x="426" y="63"/>
      <point x="426" y="98" type="curve" smooth="yes"/>
      <point x="426" y="152"/>
      <point x="486" y="413"/>
      <point x="486" y="460" type="curve" smooth="yes"/>
      <point x="486" y="502"/>
      <point x="465" y="531"/>
      <point x="406" y="531" type="curve" smooth="yes"/>
      <point x="330" y="531" type="line"/>
      <point x="330" y="599" type="line" smooth="yes"/>
      <point x="330" y="669"/>
      <point x="293" y="714"/>
      <point x="205" y="714" type="curve" smooth="yes"/>
      <point x="41" y="714" type="line"/>
      <point x="44" y="705"/>
      <point x="49" y="682"/>
      <point x="49" y="658" type="curve" smooth="yes"/>
      <point x="49" y="622"/>
      <point x="36" y="592"/>
      <point x="15" y="575" type="curve"/>
      <point x="29" y="565"/>
      <point x="51" y="559"/>
      <point x="73" y="559" type="curve" smooth="yes"/>
      <point x="131" y="559"/>
      <point x="160" y="595"/>
      <point x="160" y="641" type="curve" smooth="yes"/>
      <point x="160" y="650"/>
      <point x="159" y="657"/>
      <point x="158" y="664" type="curve"/>
      <point x="169" y="664" type="line" smooth="yes"/>
      <point x="210" y="664"/>
      <point x="232" y="642"/>
      <point x="232" y="588" type="curve" smooth="yes"/>
      <point x="232" y="478" type="line"/>
      <point x="329" y="478" type="line" smooth="yes"/>
      <point x="369" y="478"/>
      <point x="387" y="466"/>
      <point x="387" y="427" type="curve" smooth="yes"/>
      <point x="387" y="367"/>
      <point x="327" y="136"/>
      <point x="327" y="70" type="curve" smooth="yes"/>
      <point x="327" y="31"/>
      <point x="339" y="9"/>
    </contour>
  </outline>
</glyph>
<glyph name="no-ethiopic" format="2">
  <advance width="579"/>
  <unicode hex="1296"/>
  <note>
uni1296
</note>
  <anchor x="292" y="714" name="top"/>
  <outline>
    <contour>
      <point x="289" y="-4" type="curve"/>
      <point x="416" y="5" type="line"/>
      <point x="416" y="47" type="line"/>
      <point x="375" y="47"/>
      <point x="357" y="61"/>
      <point x="357" y="120" type="curve" smooth="yes"/>
      <point x="357" y="213" type="line" smooth="yes"/>
      <point x="357" y="307"/>
      <point x="300" y="338"/>
      <point x="227" y="338" type="curve" smooth="yes"/>
      <point x="124" y="338" type="line"/>
      <point x="124" y="359" type="line" smooth="yes"/>
      <point x="124" y="567"/>
      <point x="205" y="676"/>
      <point x="346" y="676" type="curve" smooth="yes"/>
      <point x="357" y="676" type="line"/>
      <point x="427" y="714" type="line"/>
      <point x="339" y="714" type="line" smooth="yes"/>
      <point x="154" y="714"/>
      <point x="30" y="592"/>
      <point x="30" y="338" type="curve" smooth="yes"/>
      <point x="30" y="283" type="line"/>
      <point x="169" y="283" type="line" smooth="yes"/>
      <point x="236" y="283"/>
      <point x="263" y="254"/>
      <point x="263" y="188" type="curve" smooth="yes"/>
      <point x="263" y="94" type="line" smooth="yes"/>
      <point x="263" y="46"/>
      <point x="270" y="16"/>
    </contour>
    <component base="ballsmall" xOffset="243" yOffset="298"/>
  </outline>
</glyph>
<glyph name="nwa-ethiopic" format="2">
  <advance width="678"/>
  <unicode hex="1297"/>
  <note>
uni1297
</note>
  <anchor x="347" y="714" name="top"/>
  <outline>
    <contour>
      <point x="314" y="30" type="line"/>
      <point x="408" y="30" type="line"/>
      <point x="408" y="203" type="line" smooth="yes"/>
      <point x="408" y="297"/>
      <point x="359" y="338"/>
      <point x="276" y="338" type="curve" smooth="yes"/>
      <point x="172" y="338" type="line"/>
      <point x="175" y="568"/>
      <point x="259" y="664"/>
      <point x="388" y="664" type="curve" smooth="yes"/>
      <point x="410" y="664" type="line"/>
      <point x="409" y="656"/>
      <point x="409" y="653"/>
      <point x="409" y="648" type="curve" smooth="yes"/>
      <point x="409" y="608"/>
      <point x="438" y="572"/>
      <point x="489" y="572" type="curve" smooth="yes"/>
      <point x="511" y="572"/>
      <point x="527" y="578"/>
      <point x="538" y="583" type="curve"/>
      <point x="525" y="603"/>
      <point x="516" y="636"/>
      <point x="516" y="670" type="curve" smooth="yes"/>
      <point x="516" y="688"/>
      <point x="518" y="702"/>
      <point x="520" y="714" type="curve"/>
      <point x="386" y="714" type="line" smooth="yes"/>
      <point x="172" y="714"/>
      <point x="81" y="588"/>
      <point x="81" y="313" type="curve" smooth="yes"/>
      <point x="81" y="283" type="line"/>
      <point x="220" y="283" type="line" smooth="yes"/>
      <point x="282" y="283"/>
      <point x="314" y="264"/>
      <point x="314" y="178" type="curve" smooth="yes"/>
    </contour>
    <component base="footmiddle" xOffset="17"/>
  </outline>
</glyph>
<glyph name="nya-ethiopic" format="2">
  <advance width="609"/>
  <unicode hex="1298"/>
  <note>
uni1298
</note>
  <anchor x="294" y="780" name="top"/>
  <outline>
    <contour>
      <point x="377" y="-5" type="curve"/>
      <point x="500" y="4" type="line"/>
      <point x="500" y="44" type="line"/>
      <point x="460" y="44"/>
      <point x="444" y="63"/>
      <point x="444" y="98" type="curve" smooth="yes"/>
      <point x="444" y="152"/>
      <point x="504" y="398"/>
      <point x="504" y="445" type="curve" smooth="yes"/>
      <point x="504" y="487"/>
      <point x="483" y="516"/>
      <point x="424" y="516" type="curve" smooth="yes"/>
      <point x="348" y="516" type="line"/>
      <point x="348" y="684" type="line"/>
      <point x="250" y="684" type="line"/>
      <point x="250" y="463" type="line"/>
      <point x="347" y="463" type="line" smooth="yes"/>
      <point x="387" y="463"/>
      <point x="405" y="451"/>
      <point x="405" y="412" type="curve" smooth="yes"/>
      <point x="405" y="352"/>
      <point x="345" y="136"/>
      <point x="345" y="70" type="curve" smooth="yes"/>
      <point x="345" y="31"/>
      <point x="357" y="9"/>
    </contour>
    <component base="bonemiddle" yOffset="-46"/>
  </outline>
</glyph>
<glyph name="nyi-ethiopic" format="2">
  <advance width="719"/>
  <unicode hex="129A"/>
  <note>
uni129A
</note>
  <anchor x="359" y="780" name="top"/>
  <outline>
    <contour>
      <point x="374" y="0" type="curve"/>
      <point x="497" y="0" type="line"/>
      <point x="497" y="50" type="line"/>
      <point x="457" y="50"/>
      <point x="441" y="69"/>
      <point x="441" y="98" type="curve" smooth="yes"/>
      <point x="441" y="152"/>
      <point x="501" y="398"/>
      <point x="501" y="445" type="curve" smooth="yes"/>
      <point x="501" y="487"/>
      <point x="480" y="516"/>
      <point x="421" y="516" type="curve" smooth="yes"/>
      <point x="345" y="516" type="line"/>
      <point x="345" y="694" type="line"/>
      <point x="247" y="694" type="line"/>
      <point x="247" y="463" type="line"/>
      <point x="344" y="463" type="line" smooth="yes"/>
      <point x="384" y="463"/>
      <point x="402" y="451"/>
      <point x="402" y="412" type="curve" smooth="yes"/>
      <point x="402" y="352"/>
      <point x="342" y="136"/>
      <point x="342" y="75" type="curve" smooth="yes"/>
      <point x="342" y="36"/>
      <point x="354" y="14"/>
    </contour>
    <component base="rightdoubleflag" xOffset="423"/>
    <component base="bonemiddle" yOffset="-46"/>
  </outline>
</glyph>
<glyph name="nyaa-ethiopic" format="2">
  <advance width="604"/>
  <unicode hex="129B"/>
  <note>
uni129B
</note>
  <anchor x="309" y="780" name="top"/>
  <outline>
    <contour>
      <point x="300" y="-5" type="curve"/>
      <point x="418" y="4" type="line"/>
      <point x="418" y="43" type="line"/>
      <point x="387" y="43"/>
      <point x="369" y="56"/>
      <point x="369" y="110" type="curve" smooth="yes"/>
      <point x="369" y="158" type="line" smooth="yes"/>
      <point x="369" y="232"/>
      <point x="318" y="271"/>
      <point x="241" y="271" type="curve" smooth="yes"/>
      <point x="145" y="271" type="line"/>
      <point x="148" y="411"/>
      <point x="232" y="511"/>
      <point x="361" y="511" type="curve" smooth="yes"/>
      <point x="383" y="511" type="line"/>
      <point x="382" y="503"/>
      <point x="382" y="500"/>
      <point x="382" y="495" type="curve" smooth="yes"/>
      <point x="382" y="455"/>
      <point x="411" y="419"/>
      <point x="462" y="419" type="curve" smooth="yes"/>
      <point x="484" y="419"/>
      <point x="500" y="425"/>
      <point x="511" y="430" type="curve"/>
      <point x="498" y="450"/>
      <point x="489" y="483"/>
      <point x="489" y="517" type="curve" smooth="yes"/>
      <point x="489" y="535"/>
      <point x="491" y="549"/>
      <point x="493" y="561" type="curve"/>
      <point x="359" y="561" type="line" smooth="yes"/>
      <point x="155" y="561"/>
      <point x="47" y="435"/>
      <point x="47" y="250" type="curve" smooth="yes"/>
      <point x="47" y="224" type="line"/>
      <point x="188" y="224" type="line" smooth="yes"/>
      <point x="244" y="224"/>
      <point x="271" y="196"/>
      <point x="271" y="139" type="curve" smooth="yes"/>
      <point x="271" y="73" type="line" smooth="yes"/>
      <point x="271" y="35"/>
      <point x="282" y="12"/>
    </contour>
    <contour>
      <point x="262" y="526" type="line"/>
      <point x="356" y="535" type="line"/>
      <point x="356" y="694" type="line"/>
      <point x="262" y="694" type="line"/>
    </contour>
    <component base="bonemiddle" xOffset="15" yOffset="-46"/>
  </outline>
</glyph>
<glyph name="nyee-ethiopic" format="2">
	<advance width="673"/>
	<unicode hex="129C"/>
	<anchor x="331" y="780" name="top"/>
	<note>
		uni129C
	</note>
	<outline>
		<contour>
			<point x="404" y="0" type="curve"/>
			<point x="501" y="0" type="line" smooth="yes"/>
			<point x="595" y="0"/>
			<point x="648" y="57"/>
			<point x="648" y="126" type="curve" smooth="yes"/>
			<point x="648" y="191"/>
			<point x="605" y="222"/>
			<point x="515" y="222" type="curve" smooth="yes"/>
			<point x="426" y="222" type="line"/>
			<point x="452" y="283" type="line" smooth="yes"/>
			<point x="484" y="358"/>
			<point x="500" y="407"/>
			<point x="500" y="453" type="curve" smooth="yes"/>
			<point x="500" y="495"/>
			<point x="477" y="531"/>
			<point x="408" y="531" type="curve" smooth="yes"/>
			<point x="343" y="531" type="line"/>
			<point x="343" y="695" type="line"/>
			<point x="245" y="695" type="line"/>
			<point x="245" y="478" type="line"/>
			<point x="342" y="478" type="line" smooth="yes"/>
			<point x="382" y="478"/>
			<point x="402" y="466"/>
			<point x="402" y="433" type="curve" smooth="yes"/>
			<point x="402" y="400"/>
			<point x="386" y="361"/>
			<point x="370" y="324" type="curve" smooth="yes"/>
			<point x="350" y="277" type="line" smooth="yes"/>
			<point x="327" y="222"/>
			<point x="307" y="173"/>
			<point x="307" y="129" type="curve" smooth="yes"/>
			<point x="307" y="54"/>
			<point x="341" y="10"/>
		</contour>
		<contour>
			<point x="472" y="35" type="curve" smooth="yes"/>
			<point x="428" y="35"/>
			<point x="401" y="57"/>
			<point x="401" y="116" type="curve" smooth="yes"/>
			<point x="401" y="141"/>
			<point x="407" y="165"/>
			<point x="413" y="184" type="curve"/>
			<point x="484" y="184" type="line" smooth="yes"/>
			<point x="530" y="184"/>
			<point x="554" y="166"/>
			<point x="554" y="122" type="curve" smooth="yes"/>
			<point x="554" y="66"/>
			<point x="526" y="35"/>
		</contour>
		<component base="bonemiddle" yOffset="-46"/>
	</outline>
</glyph>
<glyph name="nye-ethiopic" format="2">
  <advance width="586"/>
  <unicode hex="129D"/>
  <note>
uni129D
</note>
  <anchor x="263" y="819" name="top"/>
  <outline>
    <contour>
      <point x="388" y="-5" type="curve"/>
      <point x="511" y="4" type="line"/>
      <point x="511" y="44" type="line"/>
      <point x="471" y="44"/>
      <point x="455" y="63"/>
      <point x="455" y="98" type="curve" smooth="yes"/>
      <point x="455" y="132"/>
      <point x="502" y="274"/>
      <point x="502" y="321" type="curve" smooth="yes"/>
      <point x="502" y="363"/>
      <point x="481" y="392"/>
      <point x="422" y="392" type="curve" smooth="yes"/>
      <point x="346" y="392" type="line"/>
      <point x="346" y="418" type="line" smooth="yes"/>
      <point x="346" y="488"/>
      <point x="309" y="533"/>
      <point x="221" y="533" type="curve" smooth="yes"/>
      <point x="57" y="533" type="line"/>
      <point x="60" y="524"/>
      <point x="65" y="501"/>
      <point x="65" y="477" type="curve" smooth="yes"/>
      <point x="65" y="441"/>
      <point x="52" y="411"/>
      <point x="31" y="394" type="curve"/>
      <point x="45" y="384"/>
      <point x="67" y="378"/>
      <point x="89" y="378" type="curve" smooth="yes"/>
      <point x="147" y="378"/>
      <point x="176" y="414"/>
      <point x="176" y="460" type="curve" smooth="yes"/>
      <point x="176" y="469"/>
      <point x="175" y="476"/>
      <point x="174" y="483" type="curve"/>
      <point x="185" y="483" type="line" smooth="yes"/>
      <point x="226" y="483"/>
      <point x="248" y="461"/>
      <point x="248" y="407" type="curve" smooth="yes"/>
      <point x="248" y="339" type="line"/>
      <point x="345" y="339" type="line" smooth="yes"/>
      <point x="385" y="339"/>
      <point x="403" y="327"/>
      <point x="403" y="288" type="curve" smooth="yes"/>
      <point x="403" y="248"/>
      <point x="356" y="116"/>
      <point x="356" y="70" type="curve" smooth="yes"/>
      <point x="356" y="31"/>
      <point x="368" y="9"/>
    </contour>
    <contour>
      <point x="196" y="508" type="line"/>
      <point x="289" y="508" type="line"/>
      <point x="289" y="673" type="line"/>
      <point x="196" y="673" type="line"/>
    </contour>
    <contour>
      <point x="422" y="819" type="curve" smooth="yes"/>
      <point x="364" y="819"/>
      <point x="335" y="783"/>
      <point x="335" y="737" type="curve" smooth="yes"/>
      <point x="335" y="728"/>
      <point x="336" y="721"/>
      <point x="337" y="714" type="curve"/>
      <point x="158" y="714" type="line"/>
      <point x="159" y="721"/>
      <point x="160" y="728"/>
      <point x="160" y="737" type="curve" smooth="yes"/>
      <point x="160" y="783"/>
      <point x="131" y="819"/>
      <point x="73" y="819" type="curve" smooth="yes"/>
      <point x="51" y="819"/>
      <point x="29" y="813"/>
      <point x="15" y="803" type="curve"/>
      <point x="36" y="786"/>
      <point x="49" y="756"/>
      <point x="49" y="720" type="curve" smooth="yes"/>
      <point x="49" y="696"/>
      <point x="44" y="673"/>
      <point x="41" y="664" type="curve"/>
      <point x="454" y="664" type="line"/>
      <point x="451" y="673"/>
      <point x="446" y="696"/>
      <point x="446" y="720" type="curve" smooth="yes"/>
      <point x="446" y="756"/>
      <point x="459" y="786"/>
      <point x="480" y="803" type="curve"/>
      <point x="466" y="813"/>
      <point x="444" y="819"/>
    </contour>
  </outline>
</glyph>
<glyph name="nyo-ethiopic" format="2">
  <advance width="625"/>
  <unicode hex="129E"/>
  <note>
uni129E
</note>
  <anchor x="315" y="826" name="top"/>
  <outline>
    <contour>
      <point x="289" y="-4" type="curve"/>
      <point x="416" y="5" type="line"/>
      <point x="416" y="47" type="line"/>
      <point x="375" y="47"/>
      <point x="357" y="61"/>
      <point x="357" y="120" type="curve" smooth="yes"/>
      <point x="357" y="149" type="line" smooth="yes"/>
      <point x="357" y="223"/>
      <point x="325" y="244"/>
      <point x="272" y="244" type="curve" smooth="yes"/>
      <point x="124" y="244" type="line"/>
      <point x="124" y="355"/>
      <point x="175" y="466"/>
      <point x="347" y="478" type="curve"/>
      <point x="467" y="530" type="line"/>
      <point x="398" y="530" type="line" smooth="yes"/>
      <point x="114" y="530"/>
      <point x="30" y="397"/>
      <point x="30" y="219" type="curve" smooth="yes"/>
      <point x="30" y="189" type="line"/>
      <point x="199" y="189" type="line" smooth="yes"/>
      <point x="246" y="189"/>
      <point x="263" y="170"/>
      <point x="263" y="124" type="curve" smooth="yes"/>
      <point x="263" y="94" type="line" smooth="yes"/>
      <point x="263" y="46"/>
      <point x="270" y="16"/>
    </contour>
    <contour>
      <point x="277" y="494" type="line"/>
      <point x="368" y="494" type="line"/>
      <point x="368" y="721" type="line"/>
      <point x="277" y="721" type="line"/>
    </contour>
    <component base="bonemiddle" xOffset="24"/>
    <component base="ballsmall" xOffset="289" yOffset="114"/>
  </outline>
</glyph>
<glyph name="nywa-ethiopic" format="2">
  <advance width="681"/>
  <unicode hex="129F"/>
  <note>
uni129F
</note>
  <anchor x="350" y="826" name="top"/>
  <outline>
    <contour>
      <point x="329" y="2" type="curve"/>
      <point x="447" y="11" type="line"/>
      <point x="447" y="50" type="line"/>
      <point x="416" y="50"/>
      <point x="398" y="63"/>
      <point x="398" y="117" type="curve" smooth="yes"/>
      <point x="398" y="138" type="line" smooth="yes"/>
      <point x="398" y="232"/>
      <point x="337" y="271"/>
      <point x="250" y="271" type="curve" smooth="yes"/>
      <point x="154" y="271" type="line"/>
      <point x="157" y="411"/>
      <point x="241" y="511"/>
      <point x="370" y="511" type="curve" smooth="yes"/>
      <point x="392" y="511" type="line"/>
      <point x="391" y="503"/>
      <point x="391" y="500"/>
      <point x="391" y="495" type="curve" smooth="yes"/>
      <point x="391" y="455"/>
      <point x="420" y="419"/>
      <point x="471" y="419" type="curve" smooth="yes"/>
      <point x="493" y="419"/>
      <point x="509" y="425"/>
      <point x="520" y="430" type="curve"/>
      <point x="507" y="450"/>
      <point x="498" y="483"/>
      <point x="498" y="517" type="curve" smooth="yes"/>
      <point x="498" y="535"/>
      <point x="500" y="549"/>
      <point x="502" y="561" type="curve"/>
      <point x="368" y="561" type="line" smooth="yes"/>
      <point x="164" y="561"/>
      <point x="56" y="435"/>
      <point x="56" y="250" type="curve" smooth="yes"/>
      <point x="56" y="224" type="line"/>
      <point x="197" y="224" type="line" smooth="yes"/>
      <point x="263" y="224"/>
      <point x="300" y="196"/>
      <point x="300" y="119" type="curve" smooth="yes"/>
      <point x="300" y="80" type="line" smooth="yes"/>
      <point x="300" y="42"/>
      <point x="311" y="19"/>
    </contour>
    <contour>
      <point x="271" y="526" type="line"/>
      <point x="365" y="535" type="line"/>
      <point x="365" y="718" type="line"/>
      <point x="271" y="718" type="line"/>
    </contour>
    <component base="bonemiddle" xOffset="24"/>
    <component base="footmiddle" xOffset="20"/>
  </outline>
</glyph>
<glyph name="aGlottal-ethiopic" format="2">
  <advance width="578"/>
  <unicode hex="12A0"/>
  <note>
uni12A0
</note>
  <anchor x="288" y="718" name="top"/>
  <outline>
    <contour>
      <point x="106" y="-5" type="curve"/>
      <point x="233" y="4" type="line"/>
      <point x="233" y="42" type="line"/>
      <point x="207" y="42"/>
      <point x="186" y="53"/>
      <point x="186" y="88" type="curve" smooth="yes"/>
      <point x="186" y="109"/>
      <point x="192" y="133"/>
      <point x="210" y="183" type="curve" smooth="yes"/>
      <point x="263" y="329" type="line" smooth="yes"/>
      <point x="289" y="400"/>
      <point x="301" y="436"/>
      <point x="301" y="466" type="curve" smooth="yes"/>
      <point x="301" y="509"/>
      <point x="270" y="536"/>
      <point x="223" y="536" type="curve" smooth="yes"/>
      <point x="180" y="536" type="line"/>
      <point x="180" y="633" type="line" smooth="yes"/>
      <point x="180" y="671"/>
      <point x="176" y="697"/>
      <point x="159" y="718" type="curve"/>
      <point x="28" y="709" type="line"/>
      <point x="28" y="667" type="line"/>
      <point x="77" y="667"/>
      <point x="86" y="647"/>
      <point x="86" y="593" type="curve" smooth="yes"/>
      <point x="86" y="479" type="line"/>
      <point x="147" y="479" type="line" smooth="yes"/>
      <point x="186" y="479"/>
      <point x="201" y="469"/>
      <point x="201" y="442" type="curve" smooth="yes"/>
      <point x="201" y="413"/>
      <point x="186" y="380"/>
      <point x="173" y="344" type="curve" smooth="yes"/>
      <point x="119" y="199" type="line" smooth="yes"/>
      <point x="98" y="144"/>
      <point x="86" y="104"/>
      <point x="86" y="66" type="curve" smooth="yes"/>
      <point x="86" y="36"/>
      <point x="92" y="17"/>
    </contour>
    <contour>
      <point x="424" y="-5" type="curve"/>
      <point x="548" y="4" type="line"/>
      <point x="548" y="42" type="line"/>
      <point x="508" y="42"/>
      <point x="491" y="61"/>
      <point x="480" y="129" type="curve" smooth="yes"/>
      <point x="455" y="283"/>
      <point x="437" y="348"/>
      <point x="275" y="378" type="curve"/>
      <point x="261" y="330" type="line"/>
      <point x="361" y="305"/>
      <point x="368" y="235"/>
      <point x="389" y="93" type="curve" smooth="yes"/>
      <point x="396" y="45"/>
      <point x="405" y="18"/>
    </contour>
  </outline>
</glyph>
<glyph name="iGlottal-ethiopic" format="2">
  <advance width="742"/>
  <unicode hex="12A2"/>
  <note>
uni12A2
</note>
  <anchor x="377" y="718" name="top"/>
  <outline>
    <contour>
      <point x="106" y="-5" type="curve"/>
      <point x="233" y="4" type="line"/>
      <point x="233" y="42" type="line"/>
      <point x="207" y="42"/>
      <point x="186" y="53"/>
      <point x="186" y="88" type="curve" smooth="yes"/>
      <point x="186" y="109"/>
      <point x="192" y="133"/>
      <point x="210" y="183" type="curve" smooth="yes"/>
      <point x="263" y="329" type="line" smooth="yes"/>
      <point x="289" y="400"/>
      <point x="301" y="436"/>
      <point x="301" y="466" type="curve" smooth="yes"/>
      <point x="301" y="509"/>
      <point x="270" y="536"/>
      <point x="223" y="536" type="curve" smooth="yes"/>
      <point x="180" y="536" type="line"/>
      <point x="180" y="633" type="line" smooth="yes"/>
      <point x="180" y="671"/>
      <point x="176" y="697"/>
      <point x="159" y="718" type="curve"/>
      <point x="28" y="709" type="line"/>
      <point x="28" y="667" type="line"/>
      <point x="77" y="667"/>
      <point x="86" y="647"/>
      <point x="86" y="593" type="curve" smooth="yes"/>
      <point x="86" y="479" type="line"/>
      <point x="147" y="479" type="line" smooth="yes"/>
      <point x="186" y="479"/>
      <point x="201" y="469"/>
      <point x="201" y="442" type="curve" smooth="yes"/>
      <point x="201" y="413"/>
      <point x="186" y="380"/>
      <point x="173" y="344" type="curve" smooth="yes"/>
      <point x="119" y="199" type="line" smooth="yes"/>
      <point x="98" y="144"/>
      <point x="86" y="104"/>
      <point x="86" y="66" type="curve" smooth="yes"/>
      <point x="86" y="36"/>
      <point x="92" y="17"/>
    </contour>
    <contour>
      <point x="424" y="0" type="curve"/>
      <point x="548" y="0" type="line"/>
      <point x="548" y="50" type="line"/>
      <point x="508" y="50"/>
      <point x="490" y="66"/>
      <point x="480" y="129" type="curve" smooth="yes"/>
      <point x="456" y="283"/>
      <point x="437" y="348"/>
      <point x="275" y="378" type="curve"/>
      <point x="261" y="330" type="line"/>
      <point x="361" y="305"/>
      <point x="368" y="235"/>
      <point x="389" y="93" type="curve" smooth="yes"/>
      <point x="396" y="45"/>
      <point x="408" y="22"/>
    </contour>
    <component base="rightdoubleflag" xOffset="446"/>
  </outline>
</glyph>
<glyph name="aaGlottal-ethiopic" format="2">
  <advance width="575"/>
  <unicode hex="12A3"/>
  <note>
uni12A3
</note>
  <anchor x="286" y="718" name="top"/>
  <outline>
    <contour>
      <point x="117" y="135" type="curve"/>
      <point x="249" y="144" type="line"/>
      <point x="249" y="182" type="line"/>
      <point x="223" y="182"/>
      <point x="202" y="193"/>
      <point x="202" y="218" type="curve" smooth="yes"/>
      <point x="202" y="239"/>
      <point x="214" y="259"/>
      <point x="246" y="318" type="curve" smooth="yes"/>
      <point x="287" y="394"/>
      <point x="301" y="428"/>
      <point x="301" y="466" type="curve" smooth="yes"/>
      <point x="301" y="509"/>
      <point x="270" y="536"/>
      <point x="223" y="536" type="curve" smooth="yes"/>
      <point x="180" y="536" type="line"/>
      <point x="180" y="633" type="line" smooth="yes"/>
      <point x="180" y="671"/>
      <point x="176" y="697"/>
      <point x="159" y="718" type="curve"/>
      <point x="28" y="709" type="line"/>
      <point x="28" y="667" type="line"/>
      <point x="77" y="667"/>
      <point x="86" y="647"/>
      <point x="86" y="593" type="curve" smooth="yes"/>
      <point x="86" y="479" type="line"/>
      <point x="147" y="479" type="line" smooth="yes"/>
      <point x="186" y="479"/>
      <point x="201" y="469"/>
      <point x="201" y="442" type="curve" smooth="yes"/>
      <point x="201" y="416"/>
      <point x="189" y="395"/>
      <point x="155" y="337" type="curve" smooth="yes"/>
      <point x="116" y="271"/>
      <point x="101" y="234"/>
      <point x="101" y="202" type="curve" smooth="yes"/>
      <point x="101" y="175"/>
      <point x="106" y="157"/>
    </contour>
    <contour>
      <point x="421" y="-5" type="curve"/>
      <point x="545" y="4" type="line"/>
      <point x="545" y="42" type="line"/>
      <point x="505" y="42"/>
      <point x="488" y="61"/>
      <point x="477" y="129" type="curve" smooth="yes"/>
      <point x="452" y="283"/>
      <point x="434" y="348"/>
      <point x="265" y="378" type="curve"/>
      <point x="240" y="333" type="line"/>
      <point x="358" y="305"/>
      <point x="365" y="235"/>
      <point x="386" y="93" type="curve" smooth="yes"/>
      <point x="393" y="45"/>
      <point x="402" y="18"/>
    </contour>
  </outline>
</glyph>
<glyph name="eeGlottal-ethiopic" format="2">
  <advance width="751"/>
  <unicode hex="12A4"/>
  <note>
uni12A4
</note>
  <anchor x="377" y="718" name="top"/>
  <outline>
    <contour>
      <point x="106" y="-5" type="curve"/>
      <point x="233" y="4" type="line"/>
      <point x="233" y="42" type="line"/>
      <point x="207" y="42"/>
      <point x="186" y="53"/>
      <point x="186" y="88" type="curve" smooth="yes"/>
      <point x="186" y="109"/>
      <point x="192" y="133"/>
      <point x="210" y="183" type="curve" smooth="yes"/>
      <point x="263" y="329" type="line"/>
      <point x="361" y="304"/>
      <point x="367" y="239"/>
      <point x="387" y="108" type="curve" smooth="yes"/>
      <point x="396" y="49"/>
      <point x="417" y="16"/>
      <point x="443" y="0" type="curve"/>
      <point x="579" y="0" type="line" smooth="yes"/>
      <point x="673" y="0"/>
      <point x="726" y="57"/>
      <point x="726" y="126" type="curve" smooth="yes"/>
      <point x="726" y="191"/>
      <point x="683" y="222"/>
      <point x="593" y="222" type="curve" smooth="yes"/>
      <point x="462" y="222" type="line"/>
      <point x="439" y="310"/>
      <point x="401" y="354"/>
      <point x="280" y="377" type="curve"/>
      <point x="294" y="418"/>
      <point x="301" y="444"/>
      <point x="301" y="466" type="curve" smooth="yes"/>
      <point x="301" y="509"/>
      <point x="270" y="536"/>
      <point x="223" y="536" type="curve" smooth="yes"/>
      <point x="180" y="536" type="line"/>
      <point x="180" y="633" type="line" smooth="yes"/>
      <point x="180" y="671"/>
      <point x="176" y="697"/>
      <point x="159" y="718" type="curve"/>
      <point x="28" y="709" type="line"/>
      <point x="28" y="667" type="line"/>
      <point x="77" y="667"/>
      <point x="86" y="647"/>
      <point x="86" y="593" type="curve" smooth="yes"/>
      <point x="86" y="479" type="line"/>
      <point x="147" y="479" type="line" smooth="yes"/>
      <point x="186" y="479"/>
      <point x="201" y="469"/>
      <point x="201" y="442" type="curve" smooth="yes"/>
      <point x="201" y="413"/>
      <point x="186" y="380"/>
      <point x="173" y="344" type="curve" smooth="yes"/>
      <point x="119" y="199" type="line" smooth="yes"/>
      <point x="98" y="144"/>
      <point x="86" y="104"/>
      <point x="86" y="66" type="curve" smooth="yes"/>
      <point x="86" y="36"/>
      <point x="92" y="17"/>
    </contour>
    <contour>
      <point x="557" y="37" type="curve" smooth="yes"/>
      <point x="510" y="37"/>
      <point x="491" y="61"/>
      <point x="483" y="113" type="curve" smooth="yes"/>
      <point x="477" y="149"/>
      <point x="474" y="167"/>
      <point x="470" y="184" type="curve"/>
      <point x="562" y="184" type="line" smooth="yes"/>
      <point x="608" y="184"/>
      <point x="632" y="166"/>
      <point x="632" y="122" type="curve" smooth="yes"/>
      <point x="632" y="66"/>
      <point x="606" y="37"/>
    </contour>
  </outline>
</glyph>
<glyph name="eGlottal-ethiopic" format="2">
  <advance width="555"/>
  <unicode hex="12A5"/>
  <note>
uni12A5
</note>
  <anchor x="248" y="718" name="top"/>
  <outline>
    <contour>
      <point x="86" y="-5" type="curve"/>
      <point x="213" y="4" type="line"/>
      <point x="213" y="42" type="line"/>
      <point x="187" y="42"/>
      <point x="162" y="54"/>
      <point x="162" y="93" type="curve" smooth="yes"/>
      <point x="162" y="114"/>
      <point x="167" y="134"/>
      <point x="186" y="184" type="curve" smooth="yes"/>
      <point x="241" y="329" type="line"/>
      <point x="338" y="304"/>
      <point x="345" y="234"/>
      <point x="366" y="93" type="curve" smooth="yes"/>
      <point x="373" y="45"/>
      <point x="382" y="18"/>
      <point x="401" y="-5" type="curve"/>
      <point x="525" y="4" type="line"/>
      <point x="525" y="42" type="line"/>
      <point x="485" y="42"/>
      <point x="468" y="61"/>
      <point x="457" y="129" type="curve" smooth="yes"/>
      <point x="432" y="281"/>
      <point x="417" y="346"/>
      <point x="261" y="377" type="curve"/>
      <point x="300" y="472" type="line"/>
      <point x="300" y="516" type="line"/>
      <point x="209" y="516" type="line"/>
      <point x="238" y="584" type="line"/>
      <point x="238" y="617" type="line"/>
      <point x="144" y="617" type="line"/>
      <point x="153" y="640" type="line" smooth="yes"/>
      <point x="165" y="670"/>
      <point x="165" y="704"/>
      <point x="152" y="718" type="curve"/>
      <point x="32" y="709" type="line"/>
      <point x="32" y="667" type="line"/>
      <point x="75" y="667"/>
      <point x="80" y="639"/>
      <point x="65" y="604" type="curve" smooth="yes"/>
      <point x="44" y="554" type="line"/>
      <point x="141" y="554" type="line"/>
      <point x="98" y="452" type="line"/>
      <point x="193" y="452" type="line"/>
      <point x="94" y="202" type="line" smooth="yes"/>
      <point x="77" y="159"/>
      <point x="63" y="112"/>
      <point x="63" y="74" type="curve" smooth="yes"/>
      <point x="63" y="44"/>
      <point x="72" y="17"/>
    </contour>
  </outline>
</glyph>
<glyph name="oGlottal-ethiopic" format="2">
  <advance width="584"/>
  <unicode hex="12A6"/>
  <note>
uni12A6
</note>
  <anchor x="302" y="718" name="top"/>
  <outline>
    <contour>
      <point x="118" y="-5" type="curve"/>
      <point x="245" y="4" type="line"/>
      <point x="245" y="42" type="line"/>
      <point x="219" y="42"/>
      <point x="198" y="53"/>
      <point x="198" y="88" type="curve" smooth="yes"/>
      <point x="198" y="109"/>
      <point x="204" y="133"/>
      <point x="222" y="183" type="curve" smooth="yes"/>
      <point x="275" y="329" type="line" smooth="yes"/>
      <point x="301" y="400"/>
      <point x="313" y="436"/>
      <point x="313" y="466" type="curve" smooth="yes"/>
      <point x="313" y="509"/>
      <point x="282" y="536"/>
      <point x="235" y="536" type="curve" smooth="yes"/>
      <point x="192" y="536" type="line"/>
      <point x="192" y="633" type="line" smooth="yes"/>
      <point x="192" y="671"/>
      <point x="188" y="697"/>
      <point x="171" y="718" type="curve"/>
      <point x="40" y="709" type="line"/>
      <point x="40" y="667" type="line"/>
      <point x="89" y="667"/>
      <point x="98" y="647"/>
      <point x="98" y="593" type="curve" smooth="yes"/>
      <point x="98" y="479" type="line"/>
      <point x="159" y="479" type="line" smooth="yes"/>
      <point x="198" y="479"/>
      <point x="213" y="469"/>
      <point x="213" y="442" type="curve" smooth="yes"/>
      <point x="213" y="413"/>
      <point x="198" y="380"/>
      <point x="185" y="344" type="curve" smooth="yes"/>
      <point x="131" y="199" type="line" smooth="yes"/>
      <point x="110" y="144"/>
      <point x="98" y="104"/>
      <point x="98" y="66" type="curve" smooth="yes"/>
      <point x="98" y="36"/>
      <point x="104" y="17"/>
    </contour>
    <contour>
      <point x="440" y="135" type="curve"/>
      <point x="564" y="144" type="line"/>
      <point x="564" y="182" type="line"/>
      <point x="524" y="182"/>
      <point x="511" y="199"/>
      <point x="502" y="232" type="curve" smooth="yes"/>
      <point x="479" y="318"/>
      <point x="434" y="369"/>
      <point x="287" y="378" type="curve"/>
      <point x="273" y="330" type="line"/>
      <point x="373" y="317"/>
      <point x="395" y="279"/>
      <point x="411" y="199" type="curve" smooth="yes"/>
      <point x="416" y="175"/>
      <point x="425" y="150"/>
    </contour>
  </outline>
</glyph>
<glyph name="waGlottal-ethiopic" format="2">
  <advance width="709"/>
  <unicode hex="12A7"/>
  <note>
uni12A7
</note>
  <anchor x="347" y="784" name="top"/>
  <outline>
    <contour>
      <point x="237" y="-5" type="curve"/>
      <point x="364" y="4" type="line"/>
      <point x="364" y="42" type="line"/>
      <point x="338" y="42"/>
      <point x="317" y="53"/>
      <point x="317" y="88" type="curve" smooth="yes"/>
      <point x="317" y="109"/>
      <point x="323" y="133"/>
      <point x="341" y="183" type="curve" smooth="yes"/>
      <point x="394" y="329" type="line" smooth="yes"/>
      <point x="420" y="400"/>
      <point x="432" y="436"/>
      <point x="432" y="466" type="curve" smooth="yes"/>
      <point x="432" y="509"/>
      <point x="401" y="536"/>
      <point x="354" y="536" type="curve" smooth="yes"/>
      <point x="311" y="536" type="line"/>
      <point x="311" y="695" type="line"/>
      <point x="217" y="695" type="line"/>
      <point x="217" y="479" type="line"/>
      <point x="278" y="479" type="line" smooth="yes"/>
      <point x="317" y="479"/>
      <point x="332" y="469"/>
      <point x="332" y="442" type="curve" smooth="yes"/>
      <point x="332" y="413"/>
      <point x="317" y="380"/>
      <point x="304" y="344" type="curve" smooth="yes"/>
      <point x="250" y="199" type="line" smooth="yes"/>
      <point x="229" y="144"/>
      <point x="217" y="104"/>
      <point x="217" y="66" type="curve" smooth="yes"/>
      <point x="217" y="36"/>
      <point x="223" y="17"/>
    </contour>
    <contour>
      <point x="555" y="-5" type="curve"/>
      <point x="679" y="4" type="line"/>
      <point x="679" y="42" type="line"/>
      <point x="639" y="42"/>
      <point x="622" y="61"/>
      <point x="611" y="129" type="curve" smooth="yes"/>
      <point x="586" y="283"/>
      <point x="568" y="348"/>
      <point x="406" y="378" type="curve"/>
      <point x="392" y="330" type="line"/>
      <point x="492" y="305"/>
      <point x="499" y="235"/>
      <point x="520" y="93" type="curve" smooth="yes"/>
      <point x="527" y="45"/>
      <point x="536" y="18"/>
    </contour>
    <component base="bone" xOffset="1" yOffset="-46"/>
  </outline>
</glyph>
<glyph name="ka-ethiopic" format="2">
  <advance width="699"/>
  <unicode hex="12A8"/>
  <note>
uni12A8
</note>
  <anchor x="349" y="768" name="top"/>
  <outline>
    <contour>
      <point x="143" y="494" type="curve" smooth="yes"/>
      <point x="171" y="494"/>
      <point x="205" y="501"/>
      <point x="240" y="509" type="curve"/>
      <point x="240" y="551" type="line"/>
      <point x="195" y="551"/>
      <point x="183" y="571"/>
      <point x="183" y="607" type="curve" smooth="yes"/>
      <point x="183" y="689" type="line" smooth="yes"/>
      <point x="183" y="736"/>
      <point x="173" y="754"/>
      <point x="158" y="768" type="curve"/>
      <point x="45" y="760" type="line"/>
      <point x="45" y="718" type="line"/>
      <point x="74" y="718"/>
      <point x="89" y="700"/>
      <point x="89" y="664" type="curve" smooth="yes"/>
      <point x="89" y="558" type="line" smooth="yes"/>
      <point x="89" y="517"/>
      <point x="103" y="494"/>
    </contour>
    <component base="shortnarch" xOffset="57"/>
  </outline>
</glyph>
